<!-- by TradingView --><svg width="56" height="56" viewBox="0 0 56 56" xmlns="http://www.w3.org/2000/svg"><path fill="url(#a)" d="M0 0h56v56H0z"/><path d="M42.51 22.52c.28 1.1.45 2.24.49 3.4l-.01.7c-.23 0-.38-.2-.45-.62l-.1-.53c-.19-1.13-.39-1.95-.58-2.47a.84.84 0 0 0-.36-.42l-.1-.07c-.8-.48-1.36-.8-1.72-.98a7.22 7.22 0 0 0-1.75-.6c-.05-.01-.07 0-.08.06l-.05.43c-.07-.28-.06-.52.03-.72.06-.13.19-.2.39-.2.05 0 .07-.02.08-.06a.46.46 0 0 0-.02-.21c-.02-.09-.08-.14-.19-.15a.55.55 0 0 0-.35.04c-.06.03-.15.1-.25.2l-.08.09c-.05.05-.08.1-.09.13 0 .06.01.12.04.18.03.04.04.09.03.13 0 .25 0 .4.02.46a3 3 0 0 1 .15.73v2.63c.02.78-.02 1.33-.12 1.65a3.7 3.7 0 0 1-.8 1.5 476.62 476.62 0 0 1-7.44 7.57c-.38.38-.86.54-1.43.47a1.4 1.4 0 0 1-.23-.3c-.07-.15-.06-.26.03-.35.08-.08.21-.1.4-.1l-.02.36c0 .05.02.08.06.09.38.13.85-.08 1.4-.63 2-2 4.04-4.04 6.1-6.13l.85-.95c.17-.2.3-.44.38-.73.01-.05 0-.08-.06-.06a.38.38 0 0 0-.24.15c-.1.13-.15.12-.18-.04l-.17-.9a.1.1 0 0 0-.07-.08.1.1 0 0 0-.1.02 47.39 47.39 0 0 0-1.48 1.34 165.94 165.94 0 0 1-3.62 3.65c-.36.34-.8.8-1.3 1.35-.55.61-1 1.06-1.32 1.33a.56.56 0 0 0-.17.24c-.05.14-.07.23-.06.28a2.77 2.77 0 0 1 .07.76v-.03a.1.1 0 0 1 0 .07c-.02.02-.04.02-.05 0a.12.12 0 0 1-.02-.08.73.73 0 0 0-.09-.26c-.02-.04-.06-.05-.1-.04-.25.1-.52.12-.78.08.19.04.34.02.45-.08.07-.07.11-.2.14-.37.03-.32.14-.57.33-.75.33-.32.56-.55.7-.72.1-.11.24-.23.4-.35.18-.13.3-.26.4-.37.14-.2.32-.39.54-.57.14-.13.33-.32.56-.57l1.32-1.49c.43-.48.9-.94 1.4-1.4a41.3 41.3 0 0 0 1.95-1.87c.09-.1.18-.23.27-.43a5 5 0 0 1 .06-.13.18.18 0 0 0 .02-.1 16 16 0 0 1 .03-3.13c.01-.1.06-.16.15-.2l.41-.16c.14.35.22.63.22.83a11 11 0 0 0 .3 2.4c0 .02.02.03.04.04.02 0 .04 0 .05-.02.04-.06.09-.1.13-.13a.12.12 0 0 0 .08-.1c.09-.7.13-1.3.13-1.78 0-.37-.03-.65-.12-.82-.1-.23-.32-.38-.63-.46l.76-.06a.1.1 0 0 0 .1-.07c.12-.38.15-.64.08-.8-.18-.44-.52-.67-1.03-.7a46.9 46.9 0 0 0-2.43 0 .91.91 0 0 0-.3-.05c-.05 0-.06-.02-.03-.05.2-.23.64-.34 1.3-.33h-.02c-.63-.01-1.2.04-1.71.17a2 2 0 0 0-1.16.07c-.07-.13-.06-.2.03-.2.21-.03.43-.08.63-.15.05-.02.06-.05.04-.1l-.06-.1 1.28-.02c1.04.05 2.07.03 3.1-.07.04 0 .05-.02.02-.04a20.8 20.8 0 0 0-4.42-3.07c-1.15-.6-2.1-1.06-2.85-1.38a97.48 97.48 0 0 0-5.95-2.32 10.3 10.3 0 0 1 3.08-.71 13.36 13.36 0 0 1 6.62 1.02c2.1.89 3.95 2.2 5.54 3.93l.97 1.05a8.44 8.44 0 0 1 1 1.43c.01.03.03.04.07.04.01 0 .03 0 .04-.02.02 0 .02-.03.01-.08a9.92 9.92 0 0 0-.06-.25.76.76 0 0 0-.13-.2.76.76 0 0 1-.14-.25l-.09-.23-.48-.9a7.4 7.4 0 0 0-1.08-1.45 14.45 14.45 0 0 0-9.34-4.81 15.4 15.4 0 0 0-6.85.88.46.46 0 0 0-.16-.37l.4-.16a14.7 14.7 0 0 1 8.5-.36c1.54.38 3 .98 4.36 1.8a14.87 14.87 0 0 1 4.94 4.9c.13.2.25.48.36.83l.81 2.1c.1.25.25.73.43 1.43Z" fill="#F79094"/><path d="m23.71 12.9-1.92.86a15.01 15.01 0 0 0-7.6 10.6c-.15.98-.18 2.13-.1 3.48l.36 2.51.3 2.1c-.17-.2-.28-.41-.34-.65 0 0 0-.02-.02-.02a.8.8 0 0 0-.03-.03c-.04-.02-.06 0-.07.03l-.01.09-.39-1.32-.4-1.72c0-.39-.03-.77-.08-1.15a8.94 8.94 0 0 1-.09-1.15l.03-1.32c.02-.73.12-1.45.32-2.16.16-.57.33-1.14.52-1.7a15.13 15.13 0 0 1 8.68-9A15.4 15.4 0 0 1 32.4 12c2.59.79 4.8 2.22 6.65 4.28.55.61.9 1.1 1.08 1.44.13.27.3.57.48.91l.09.23c.02.07.07.15.14.25.07.08.11.14.13.2a9.71 9.71 0 0 1 .05.33.08.08 0 0 1-.04.02.08.08 0 0 1-.08-.04l-.21-.35c-.32-.5-.58-.86-.78-1.08l-.97-1.05a15.96 15.96 0 0 0-5.54-3.93 13.36 13.36 0 0 0-6.62-1.02c-.8.02-1.84.26-3.08.7Z" fill="#FFF1F6"/><path d="M22.71 11.98c.12.11.17.23.16.37a15.13 15.13 0 0 0-9.2 10.7c-.2.71-.3 1.43-.32 2.16-.12.85-.13 1.7-.04 2.56l-.14.52a8.59 8.59 0 0 1-.3-1.68c0-.17 0-.33.06-.48 0-.02.01-.03.03-.03H13c.03 0 .04-.03.05-.07a155.58 155.58 0 0 0 .27-2.13l-.03-.04c-.02-.02-.03-.02-.03.01l-.26 1.9a11.76 11.76 0 0 1 .37-3.17c.05-.2.1-.2.13.01l-.01.23c0 .02 0 .03.03.03.02 0 .03 0 .03-.02l.09-.44c.3-1.05.67-2.08 1.12-3.08.34-.75.76-1.47 1.23-2.16l.8-1.06.9-.94a14.86 14.86 0 0 1 5.02-3.19Z" fill="#F0474F"/><path d="M33.8 19.78a29.68 29.68 0 0 0-5.6-3.23 63.95 63.95 0 0 0-3.86-1.51 15.7 15.7 0 0 1-2.55-1.28l1.92-.86c2.02.7 4 1.48 5.95 2.32.76.32 1.7.78 2.85 1.38a20.8 20.8 0 0 1 4.42 3.07c.03.02.02.04-.01.04-1.04.1-2.07.12-3.11.07Z" fill="#F66C71"/><path d="M21.79 13.76a15.7 15.7 0 0 0 2.55 1.28c1.4.5 2.69 1 3.85 1.51 1.96.85 3.83 1.93 5.62 3.23l-1.28.02-.63.02a.17.17 0 0 0-.12.05l-3.4 3.52c-.07.1-.16.15-.28.14l-1.06-1.02c-.7-.81-1.48-1.6-2.38-2.35-.07-.24-.3-.35-.7-.35-1.4 0-2.8 0-4.2-.02h-1.64c-.13 0-.2.06-.19.2l.05 1.5c-.43-.28-.67.2-.7 1.46v.06c-.06 1.36-.05 2.6.01 3.76.06.98.41 1.81 1.06 2.5a265.8 265.8 0 0 0 2.95 3.05h-.02c-.65-.53-1.17-1-1.57-1.43A160.46 160.46 0 0 1 18 29.02a3.14 3.14 0 0 1-.8-1.9c-.07-1.48-.06-3.1.04-4.85.04-.72.24-1.2.59-1.45.06-.04.06-.07 0-.1-.1-.04-.22-.02-.37.06a.14.14 0 0 0-.07.1c-.13.48-.21.88-.24 1.19a26.62 26.62 0 0 0 0 5.34c.07.66.3 1.25.73 1.75.5.6 1.14 1.28 1.95 2.04l.81.78c.95.91 1.64 1.53 2.08 1.87.28.22.52.42.72.63 1.35 1.32 2.4 2.3 3.16 2.94.6.5 1.3.55 2.07.14a7.38 7.38 0 0 0 1.86-1.3c.75-.78 1.5-1.53 2.23-2.23a34.04 34.04 0 0 0 1.48-1.54c.3-.32.67-.7 1.12-1.14.77-.78 1.44-1.47 1.99-2.07.4-.44.52-.87.38-1.29-.02-.05-.05-.05-.08-.02-.46.35-.93.8-1.42 1.37a122.75 122.75 0 0 0-3.4 3.47c-.56.58-1.2 1.22-1.94 1.92-.64.6-1.27 1.27-1.9 1.98a.1.1 0 0 1-.1.04.1.1 0 0 1-.08-.09c0-.02.02-.08.07-.17.26-.3.67-.72 1.23-1.26a24.6 24.6 0 0 0 1.22-1.26c0-.02-.01-.02-.03 0l-.97 1c-.02.01-.03.01-.04-.01l-.02-.04v-.02c.28-.25.54-.5.76-.78.05-.06.04-.07-.02-.02a.46.46 0 0 1-.11.06c-.03.01-.04 0-.02-.01a.14.14 0 0 1 .06-.04.09.09 0 0 0 .06-.08l.04-.22 4.89-4.96c.36-.15.62-.3.77-.47l1.22-1.23c.28-.29.42-.55.42-.78v-3.76c0-.05.03-.07.08-.07.28.04.6.22.92.54.75.7 1.25 1.2 1.51 1.47.36.38.64.78.83 1.2.13.28.22.73.26 1.36.06.89.1 1.55.1 1.97 0 .17 0 .37-.03.6a51.7 51.7 0 0 0-.14 1.3l.02-.01c.02 0 .02 0 .01.03v.04c-.03.05-.02.05.03.02a.25.25 0 0 0 .08-.1c.22-.6.46-1.2.71-1.8a14.53 14.53 0 0 1-2.04 5.45 1.95 1.95 0 0 1-.04-.8c.03-.16.1-.42.23-.77l.13-.4a.31.31 0 0 0-.05-.31c-.04-.04-.06-.04-.08.01a14.63 14.63 0 0 1-4.69 5.72c-1.18.4-1.98.63-2.4.7-.68.1-1.22.12-1.62.07-1.11-.13-2.1-.23-2.97-.28a8.34 8.34 0 0 1-2-.29 5.67 5.67 0 0 1-1.8-1.02c-2.17-1.83-4.35-3.8-6.55-5.92a15.68 15.68 0 0 1-2.73-3.56c-.53-.93-.94-2.12-1.23-3.57a.78.78 0 0 0-.26-.48c-.04-.03-.07-.02-.09.03a6.82 6.82 0 0 0-.3 1.45l-.06-.31c0-.05-.01-.05-.01 0l-.08 2.96a13.1 13.1 0 0 1 .73-5.92 15.01 15.01 0 0 1 6.97-8.16Z" fill="#F0474F"/><path d="M24.66 20.16a5.15 5.15 0 0 0 2.27 2.46c.08 0 .12-.04.1-.1l1.07 1 .52.05c-.47.08-.82.1-1.04.03a3.66 3.66 0 0 1-1.27-.86c-.29-.3-.7-.7-1.21-1.18-.4-.38-.74-.63-1-.75a4.2 4.2 0 0 0-1.6-.28c-.96-.02-1.73-.02-2.32.01-.4.02-.74.14-1 .37-.27.23-.43.54-.48.93l-.02.12c-.07.45-.1.77-.1.96.02 1.09.02 2.16-.01 3.23a.1.1 0 0 1-.06.1.09.09 0 0 1-.1-.03l-.12-.1.16-.02c.05 0 .07-.03.07-.08l.02-2.83c0-.34-.03-.85-.1-1.51a23.25 23.25 0 0 1-.07-.75.14.14 0 0 0-.06-.02c-.06-.01-.09.01-.09.07l-.05 1.76a14.83 14.83 0 0 1-.05-1.94c0-.16.02-.26.06-.3.16-.23.26-.2.3.09l.06.44c.01.06.04.1.1.1.06.02.1 0 .13-.05.08-.11.16-.23.26-.33.11-.13.33-.26.66-.4.1-.05.17-.09.22-.1.24-.13.24-.23-.01-.31a.59.59 0 0 1-.13-.15l4.18.02c.4 0 .64.11.71.35Z" fill="#F79094"/><path d="m32.53 19.8.06.1c.02.05.01.08-.04.1-.2.07-.42.12-.63.15-.09 0-.1.07-.03.2-.17.18-.29.4-.37.65-.49.4-1.03.9-1.63 1.51-.4.41-.9.7-1.52.88l3.41-3.52a.17.17 0 0 1 .12-.05l.63-.02Z" fill="#FFCFDE"/><path d="M37.8 21.42c.03 1.33.03 2.65 0 3.98a4 4 0 0 1-.4 1.67c-.17.27-.3.46-.4.57l-1.07 1.21-4.9 4.96-1.94 1.91-.54.3c-.26.08-.52.1-.77.06a.46.46 0 0 0-.23-.06.2.2 0 0 1-.12-.04l-.36-.23c-.36-.3-.87-.78-1.54-1.46a7297.69 7297.69 0 0 1-6.96-7.06c-.07-.07-.15-.1-.22-.1-.1 0-.23.04-.36.1l-.01-1.62c.03-.97.05-1.94.06-2.92 0-.16.04-.21.1-.16a.4.4 0 0 0 .03.21c-.03 1.09-.03 2.05.01 2.9.01.15.05.3.11.48l.11.1c.03.03.07.04.1.02a.1.1 0 0 0 .07-.09c.03-1.07.03-2.14.02-3.23a6.93 6.93 0 0 1 .1-1.08c.06-.4.22-.7.5-.93.25-.23.59-.35.99-.37.59-.03 1.36-.03 2.32 0 .67 0 1.2.1 1.6.27.26.12.6.37 1 .75.52.49.92.88 1.2 1.18a3.67 3.67 0 0 0 1.27.86c.23.06.58.05 1.05-.03.42-.14.77-.34 1.04-.6l1.55-1.48c.74-.68 1.6-1 2.6-.96.82-.01 1.63 0 2.43.02.5.02.85.25 1.03.69.07.16.04.42-.09.8a.1.1 0 0 1-.09.07l-.76.06-.2.04-.41.16a.22.22 0 0 0-.15.2 16 16 0 0 0-.03 3.14c0 .03 0 .06-.02.1a5.1 5.1 0 0 0-.06.12c-.1.2-.18.34-.27.43a41.2 41.2 0 0 1-1.94 1.87c-.51.46-.98.92-1.4 1.4l-1.33 1.49c-.23.25-.42.44-.56.57a4 4 0 0 0-.55.57c-.08.11-.21.24-.39.37-.16.12-.3.24-.4.35a13 13 0 0 1-.7.72c-.19.18-.3.43-.33.75-.02.18-.07.3-.14.37-.11.1-.26.12-.45.08-.16-.1-.31-.21-.45-.35l-6.92-7.01c-.3-.31-.52-.6-.66-.85-.11-.2-.2-.53-.27-.98l-.04-.28c0-.02-.02-.03-.04-.03h-.04v.01c.05.32.09.63.11.94.02.18-.03.21-.13.09l-.14-.15c-.08-.1-.1-.1-.06 0 .12.26.33.56.63.89a49.2 49.2 0 0 0 2.29 2.41c.23.2.4.35.51.48.48.53.96 1.04 1.44 1.53l.94.94 2.65 2.67c.27.28.6.5.95.65.57.07 1.05-.09 1.43-.47 3.1-3.1 5.59-5.63 7.44-7.57.33-.35.6-.85.8-1.5.1-.32.14-.87.12-1.65v-2.63a3 3 0 0 0-.15-.73 2.08 2.08 0 0 1-.02-.46c0-.04 0-.09-.03-.13a.33.33 0 0 1-.04-.18c0-.03.04-.08.1-.13l.07-.08c.1-.1.19-.18.25-.21.1-.05.22-.07.35-.04.1.01.17.06.2.15.02.08.02.15.01.2 0 .05-.03.08-.08.08-.2 0-.33.06-.39.19-.1.2-.1.44-.03.72Z" fill="#fff"/><path d="M33.81 20.53c-1-.04-1.86.28-2.6.96l-1.55 1.48c-.27.26-.62.46-1.04.6l-.52-.04c.12 0 .21-.04.27-.14a3.4 3.4 0 0 0 1.52-.88c.6-.6 1.14-1.11 1.63-1.5.42-.29.93-.53 1.53-.73a6.17 6.17 0 0 1 1.74-.17c-.67 0-1.1.1-1.3.33-.04.03-.03.05.01.05.11 0 .22 0 .31.04Z" fill="#F66C71"/><path d="M33.05 20.28c-.6.2-1.11.44-1.53.72.08-.25.2-.47.37-.65a2 2 0 0 1 1.16-.07Z" fill="#FFE3EC"/><path d="M42.99 26.61c-.02.87-.1 1.72-.27 2.55-.25.6-.49 1.2-.71 1.8a.25.25 0 0 1-.08.1c-.05.03-.06.03-.04-.02l.01-.04c.01-.02 0-.04-.01-.03h-.02a51.68 51.68 0 0 1 .14-1.3c.03-.22.04-.42.03-.6 0-.41-.04-1.07-.1-1.96a4.18 4.18 0 0 0-.26-1.37c-.2-.41-.47-.81-.83-1.19a47.4 47.4 0 0 0-1.5-1.47c-.34-.32-.65-.5-.93-.54-.05 0-.07.02-.07.07-.02 1.12-.02 2.38-.01 3.76 0 .23-.14.49-.42.78l-1.22 1.23a2.5 2.5 0 0 1-.77.47l1.07-1.2a4 4 0 0 0 .4-.58v.03c.03.04.04.03.04-.01 0-.02-.01-.03-.03-.05a4 4 0 0 0 .39-1.64c.03-1.33.03-2.65 0-3.98l.05-.43c0-.05.03-.07.08-.06.6.12 1.18.32 1.75.6a23.05 23.05 0 0 1 1.82 1.05c.17.1.3.25.36.42.2.52.4 1.34.58 2.47l.1.53c.07.41.22.62.45.61Z" fill="#F66C71"/><path d="M17.98 21.5v5.73c.03.02.04.06.06.13.02.04.04.08.08.1.21.13.4.25.55.37a.5.5 0 0 1 .13.18l.11.18 1.92 1.96a657.2 657.2 0 0 1 5.42 5.49h.07c.05-.02.08 0 .1.06.03.16.13.27.3.33.05.02.09.05.12.09.08.11.18.2.29.26.1.05.19.13.26.25.08.12.12.23.12.33 0 .05.02.09.07.1.12.07.24.18.37.35.04.05.03.09-.03.1a2.93 2.93 0 0 1-.8.16c.2.01.39 0 .57-.04a.6.6 0 0 0 .34-.19c.09-.1.15-.22.2-.36l.75-.79v.05c-.07.05-.1.1-.1.15l-.07.17c0 .05.03.07.08.09a.1.1 0 0 0 .1-.04c.63-.71 1.26-1.37 1.9-1.98.73-.7 1.38-1.34 1.94-1.92a123.06 123.06 0 0 1 3.4-3.47c.49-.56.96-1.02 1.42-1.37.03-.03.06-.03.08.02.14.42.01.85-.38 1.29-.55.6-1.22 1.3-2 2.07a41.65 41.65 0 0 0-1.3 1.34c-.55.6-.97 1.04-1.28 1.34a75.9 75.9 0 0 0-2.24 2.23c-.42.43-1.04.87-1.86 1.3-.78.41-1.47.36-2.07-.14a58.35 58.35 0 0 1-3.16-2.94c-.2-.2-.44-.41-.72-.63-.44-.34-1.13-.96-2.08-1.87l-.81-.78c-.8-.76-1.46-1.44-1.95-2.04a3.19 3.19 0 0 1-.73-1.75 26.6 26.6 0 0 1 0-5.34c.03-.31.1-.71.24-1.2a.14.14 0 0 1 .07-.09c.15-.08.27-.1.36-.06.07.03.07.06.01.1-.35.25-.55.73-.6 1.45-.1 1.75-.1 3.37-.02 4.85.04.69.3 1.32.79 1.9l1.71 1.87a15.2 15.2 0 0 0 1.59 1.43v-.02a265.8 265.8 0 0 1-2.95-3.03c-.65-.69-1-1.52-1.06-2.5a41.67 41.67 0 0 1-.02-3.82c.04-1.26.28-1.74.7-1.46Z" fill="#D5262D"/><path d="M25.05 21.9c-.54.17-1.02.25-1.44.23H20.38a.2.2 0 0 0-.16.08.22.22 0 0 0-.06.16l.02 2.54a7.2 7.2 0 0 1-.2 1.71c-.03.16-.09.26-.18.32-.04.03-.08.03-.12 0a2.86 2.86 0 0 0-.14-.12.98.98 0 0 1-.25-.24 2.24 2.24 0 0 1-.38-1.22 83.2 83.2 0 0 1 .02-3.4c.02-.79.48-1.2 1.4-1.24.32-.02 1.08-.02 2.29 0 .99.01 1.8.4 2.43 1.18ZM32.97 22.24l-2.27.03c.35-.4.6-.65.76-.78.54-.44 1.12-.7 1.73-.75.27-.02.76-.03 1.47-.03h1.13c.3 0 .57.06.8.2.1.07.19.16.24.3.06.13.05.25-.02.35-.12.17-.3.31-.55.42-.24.1-.47.16-.7.15h-.22c-1.09-.02-1.88.01-2.37.11Z" fill="#F79094"/><path d="M18.3 26.12c-.07-.17-.1-.33-.12-.48-.04-.85-.04-1.81-.01-2.9l.05-1.76c0-.06.03-.08.09-.07.02 0 .04 0 .06.02a23.07 23.07 0 0 0 .08.75c.06.66.1 1.17.09 1.5l-.02 2.84c0 .05-.03.08-.07.08l-.16.02Z" fill="#F66C71"/><path d="m30.7 22.27 2.27-.03c-.3.25-.5.44-.63.57l-1.76 1.8c-.4.4-.93.66-1.57.79-.59.11-1.17.1-1.75-.06-.4-.1-.76-.38-1.11-.84a7.68 7.68 0 0 0-2.54-2.37c.42.02.9-.06 1.44-.23.22.21.43.44.64.66.29.3.66.6 1.13.9.18.12.53.23 1.06.35a1 1 0 0 0 .53-.04l.26-.06a1.3 1.3 0 0 0 .6-.24c.27-.16.47-.3.6-.43l.83-.77Z" fill="#FABDBE"/><path d="m22.66 22.13-1.73.07c-.05 0-.07.03-.07.08l-.14 3.17c0 .08.02.18.05.3l.05.16-.02.04c-.02.03-.04.02-.05-.03l-.19-.62c-.01-.04-.03-.05-.05 0a1.7 1.7 0 0 0-.14.5l-.03.13a.52.52 0 0 0-.05-.19c-.02-.05-.04-.05-.06 0l-.26.88c.14-.56.2-1.13.2-1.71l-.01-2.54c0-.07.02-.12.06-.16a.2.2 0 0 1 .16-.07l2.28-.01Z" fill="#FFE3EC"/><path d="M36.33 22.17c.31.08.52.23.63.46.09.17.13.45.12.82 0 .49-.04 1.08-.13 1.78 0 .05-.03.08-.08.1a.38.38 0 0 0-.13.13.04.04 0 0 1-.05.02.05.05 0 0 1-.04-.04c-.15-.52-.25-1.32-.3-2.4 0-.2-.08-.48-.22-.83l.2-.04Z" fill="#FABDBE"/><path d="M36.18 38.06c-1.42 1.03-3 1.8-4.75 2.3l-.7.12c-.06.01-.07.03 0 .05.3.12.53.18.65.2a12.38 12.38 0 0 0 1.73 0l-.87.11c-.64.07-1.3 0-2-.2l-.08.02-.11.05c-.02.01-.03.03-.03.05 0 .02.02.03.04.04a9.6 9.6 0 0 0 2.63.13l-1.08.32c-.32-.1-.8-.2-1.4-.26l-.09-.01a.64.64 0 0 0-.35.05.12.12 0 0 0-.07.1c0 .04 0 .08.04.11.18.17.39.26.62.26-2 .28-3.96.18-5.9-.3l-.07-.1c-.03-.04-.02-.07.01-.08l.15-.08a.12.12 0 0 0 .07-.1c0-.03 0-.07-.03-.1-.1-.1-.2-.18-.27-.21a5.48 5.48 0 0 1-.91-.58 5.69 5.69 0 0 0-.86-.57c-.97-.5-1.73-.96-2.29-1.4a75.61 75.61 0 0 1-2.33-2 .75.75 0 0 0-.03.02c-.03.02-.03.04 0 .08.2.37.45.71.73 1.02.51.57 1.08 1.13 1.69 1.7.22.2.34.47.35.81l-.62-.38c.04-.25-.07-.51-.32-.78l-.68-.71a2.77 2.77 0 0 1-.66-.64c-.1-.15-.28-.38-.57-.7-.36-.41-.6-.71-.7-.91-.18-.3-.38-.6-.6-.9a.24.24 0 0 0-.16-.1c-.06 0-.1.01-.12.06-.04.07-.06.23-.05.45 0 .04-.02.05-.06.04a.4.4 0 0 1-.2-.16.8.8 0 0 0-.2-.24.89.89 0 0 0-.29-.13.2.2 0 0 1-.1-.07l-.23-.27c0-.1-.08-.22-.23-.37l-.15-.35c0-.02-.02-.03-.04-.02l-.06.02c-.02 0-.03.02-.02.04l.16.5c.05.09.08.17.06.23l-.26-.5-.11-.73-.14-.78c0-.03 0-.04.03-.04h.07l.03.03c.24.62.42 1.04.52 1.24.08.16.26.4.54.71.04.05.06.04.07-.02 0-.03 0-.06.03-.08a.13.13 0 0 0 .01-.14c-.1-.25-.17-.4-.2-.45-.05-.06-.06-.06-.05.02l.03.18c0 .05-.02.07-.06.04-.1-.03-.15-.1-.16-.18.17.1.21-.03.12-.4a266.03 266.03 0 0 0-.39-1.37c-.02 0-.02 0-.02.02 0 .04 0 .07-.03.1-.01.02 0 .08.04.17l.09.3c-.03.17-.1.29-.2.36.09-.53.1-.89.04-1.07a38.8 38.8 0 0 1-.38-1.28l-.37-2.51.08-2.96c0-.05 0-.05.01 0 .04.24.05.34.06.3.03-.42.14-.9.3-1.44.02-.05.05-.06.09-.03.13.1.22.27.26.48.3 1.45.7 2.64 1.23 3.57a15.68 15.68 0 0 0 2.73 3.56 129.8 129.8 0 0 0 6.55 5.92c.54.45 1.14.8 1.8 1.02.38.14 1.05.23 2 .3.87.04 1.86.14 2.97.27.4.05.94.02 1.62-.08.42-.06 1.22-.3 2.4-.7Z" fill="#F66C71"/><path d="m27.26 23.89.62.45c.02.02.02.03 0 .05a.19.19 0 0 1-.03.02c-.03.01-.06.01-.07 0l-.59-.49v-.02l.03-.01h.04Z" fill="#F79094"/><path d="m13.17 28.29.14-.52.17 1.06c1.23 5.19 2.26 4.14 4.91 8.27.12.19.34.4.66.64l.68.71c.25.27.36.53.32.78l-.66-.48c.26-.18.2-.4-.16-.65-.04-.02-.05-.02-.03.03.07.17.03.3-.13.4-2.66-2.1-6.93-5.99-1.34-.72a14.99 14.99 0 0 0 20.3.42.13.13 0 0 1 .14-.02c.05.02.08.06.08.11.04.4-.22.86-.77 1.4l-.37.32a16.7 16.7 0 0 1-2.18 1.65c-.65.38-1.24.7-1.77.95-1.9.91-4 1.36-6.3 1.36a13.5 13.5 0 0 1-3.82-.5 18.54 18.54 0 0 1-4.2-1.82 13.33 13.33 0 0 1-4-3.94c-.85-1.3-1.5-2.59-1.96-3.87-1-2.77-1.15-5.62-.46-8.56.08-.35.2-.67.35-.96.02-.05.04-.05.03 0 0 .05-.01.08-.03.12a.2.2 0 0 0-.02.1l.02 1.03c0 1.01.05 1.76.13 2.26.11.75.2.89.27.43Z" fill="#C3737C"/><path d="m13.35 25.21-.03 1.32c0 .29.03.67.1 1.14.04.39.06.77.06 1.16l-.17-1.06c-.09-.85-.08-1.7.04-2.56ZM27 34.9c.27.04.53.01.78-.08.04-.01.08 0 .1.04.04.07.07.15.1.26-.2-.02-.33.01-.41.1-.09.08-.1.2-.03.33.06.1.13.2.23.31a3.2 3.2 0 0 1-.95-.65 401.32 401.32 0 0 1-3.59-3.61c-.48-.49-.96-1-1.44-1.53a5.1 5.1 0 0 0-.7-.64 49.3 49.3 0 0 1-2.1-2.25c-.3-.33-.5-.63-.63-.89-.04-.1-.02-.1.06 0l.14.15c.1.12.15.1.13-.09a12.12 12.12 0 0 0-.11-.94h.04c.02-.01.03 0 .04.02l.04.28c.07.45.16.78.27.98.14.25.36.54.66.85 1.81 1.85 4.12 4.18 6.92 7 .14.15.29.26.45.36Z" fill="#FABDBE"/><path d="m20.34 25.93.03-.12c.26.21.42.54.48.96 0 .02 0 .03-.03.02-.15-.05-.3-.13-.44-.22a.1.1 0 0 1-.05-.09v-.55Z" fill="#FFCFDE"/><path d="M13.08 26.06c.03 0 .04.18.04.54 0 .36-.02.54-.04.54s-.03-.18-.03-.54c0-.36.01-.54.03-.54Z" fill="#F79094"/><path d="M27.97 35.12c0 .03 0 .06.02.08.01.02.03.02.04 0a.1.1 0 0 0 .01-.08v.04s0 .01 0 0c.02-.16 0-.41-.07-.76-.01-.05.01-.14.06-.28a.56.56 0 0 1 .17-.24c.33-.27.77-.72 1.32-1.33.5-.55.94-1 1.3-1.35 1.14-1.12 2.35-2.34 3.62-3.65a20.83 20.83 0 0 1 1.47-1.34.1.1 0 0 1 .1-.02.1.1 0 0 1 .08.08l.17.9c.03.16.09.17.18.04a.38.38 0 0 1 .24-.15c.05-.02.07 0 .06.06-.08.29-.21.53-.38.73-.4.46-.69.78-.86.95a847.01 847.01 0 0 1-6.09 6.13c-.55.55-1.02.76-1.4.63-.04-.01-.06-.04-.06-.09l.02-.35Z" fill="#fff"/><path d="m27.07 35.75.97.85c.04.04.07.04.11 0l.8-.68c-.29.34-.53.73-.72 1.16a.96.96 0 0 1-.2.36.6.6 0 0 1-.34.2 2.18 2.18 0 0 1-.58.02c.3-.01.57-.06.8-.14.07-.02.08-.06.04-.1a1.14 1.14 0 0 0-.37-.35.11.11 0 0 1-.07-.11c0-.1-.04-.21-.12-.33a.71.71 0 0 0-.26-.25.83.83 0 0 1-.29-.26.25.25 0 0 0-.12-.09.43.43 0 0 1-.3-.33c-.02-.05-.05-.08-.1-.07h-.07l-.06-.04c-.46-.5-2.25-2.3-5.36-5.44l-1.92-1.96a.74.74 0 0 1-.11-.18.5.5 0 0 0-.13-.18 7.1 7.1 0 0 0-.55-.37.17.17 0 0 1-.08-.1.38.38 0 0 0-.05-.13c.13-.06.25-.1.36-.1.07 0 .15.03.22.1l.19.18 6.77 6.88a22.1 22.1 0 0 0 1.54 1.46Z" fill="#F66C71"/><path d="M40.68 34.61a15.1 15.1 0 0 1-6.43 5.7 4.3 4.3 0 0 1-2.82.04 14.72 14.72 0 0 0 9.44-8.01c.02-.05.04-.05.08-.01.07.09.09.2.05.32l-.13.39c-.12.35-.2.6-.23.78-.04.26-.03.53.04.8Z" fill="#D5262D"/><path d="M41.91 32.14c.02.17.07.32.14.46l-.33.99-1.47 2.29-2.14 2.28c-.03.04-.03.05.02.05.09 0 .22-.1.39-.26.16-.15.22-.12.18.1-.08.52-.49 1.08-1.22 1.67.55-.54.81-1 .77-1.4 0-.05-.03-.09-.08-.11a.13.13 0 0 0-.14.02 15.65 15.65 0 0 1-5.23 3 14.99 14.99 0 0 1-17.46-6.34c-.02-.03-.03-.03-.03 0v.09a.83.83 0 0 0-.06-.32c-.02-.05 0-.08.04-.1a.11.11 0 0 1 .08 0c.02 0 .04.02.06.04a17.3 17.3 0 0 0 3.64 3.92l.32.23.66.48.62.38c1.18.71 2.45 1.24 3.8 1.58 1.93.49 3.9.6 5.9.3l1.24-.24 1.08-.32 1.56-.62a15.1 15.1 0 0 0 7.66-8.17Z" fill="#FFF1F6"/><path d="m31.04 33.81-.04.22c0 .04-.03.06-.06.08a.14.14 0 0 0-.06.04c-.02.02-.01.02.02.01a.46.46 0 0 0 .1-.06c.07-.05.08-.04.03.02a6.22 6.22 0 0 1-.76.8l.02.04c0 .02.02.02.04 0l.97-.99c.02-.02.03-.02.03 0V34l-.02.01c-.25.29-.65.7-1.2 1.23-.56.54-.97.96-1.23 1.26 0-.05.03-.1.09-.15l.01-.02v-.03l-.75.79c.19-.43.43-.82.73-1.16l.13-.2 1.95-1.9Z" fill="#F66C71"/><path d="m29.09 35.72-.13.2-.8.69c-.05.03-.08.03-.12 0l-.97-.86.36.23a.2.2 0 0 0 .12.04c.08 0 .15.02.23.06.25.26.5.23.77-.07l.54-.29ZM24.47 41.2a14.14 14.14 0 0 1-3.8-1.59c0-.34-.13-.6-.35-.81a26.36 26.36 0 0 1-1.7-1.7 5.36 5.36 0 0 1-.72-1.02c-.03-.04-.03-.06 0-.08l.03-.01h.02a75.19 75.19 0 0 0 2.31 1.99c.56.44 1.32.9 2.3 1.4.22.11.5.3.85.57.28.22.59.42.91.58.07.03.16.1.27.21.03.03.04.07.03.1 0 .05-.03.08-.07.1l-.15.08c-.03.01-.04.04 0 .07l.07.1Z" fill="#F79094"/><path d="M28.55 36.01c-.27.3-.52.33-.77.07.25.04.5.02.77-.07Z" fill="#FABDBE"/><path d="m19.39 38.75-.32-.23c.16-.09.2-.22.13-.4-.02-.03-.01-.04.03-.02.37.26.42.47.16.65Z" fill="#F66C71"/><path d="m34.25 40.31-1.56.62a9.6 9.6 0 0 1-2.63-.13.04.04 0 0 1-.04-.04c0-.02.01-.04.03-.05l.11-.05c.04-.02.07-.03.08-.02.7.2 1.36.27 2 .2a385.3 385.3 0 0 0 .87-.11c-.72.04-1.3.03-1.73 0a3.1 3.1 0 0 1-.66-.2c-.06-.02-.05-.04 0-.05l.7-.13c.85.3 1.79.3 2.83-.04Z" fill="#F0474F"/><path d="m31.6 41.25-1.24.25a.87.87 0 0 1-.62-.26.12.12 0 0 1-.04-.11c.01-.05.03-.08.07-.1.1-.05.22-.07.35-.05h.08c.62.08 1.09.16 1.4.27Z" fill="#C3737C"/><defs><linearGradient id="a" x1="56" y1="9.46" x2="28" y2="56" gradientUnits="userSpaceOnUse"><stop stop-color="#F0F3FA"/><stop offset="1" stop-color="#FFCFDE"/></linearGradient></defs></svg>