<!-- by TradingView --><svg width="56" height="56" viewBox="0 0 56 56" xmlns="http://www.w3.org/2000/svg"><path fill="url(#a)" d="M0 0h56v56H0z"/><path d="M34.82 31.49a955.85 955.85 0 0 0 8.76.02l.01.02v.01a15.63 15.63 0 0 1-3.91 7.38 15.7 15.7 0 0 1-7.1 4.4 16.15 16.15 0 0 1-9.96-.26 14.9 14.9 0 0 1 1.28-5.33 10.01 10.01 0 0 1 7.34-6.04c.7-.14 1.9-.21 3.58-.2Zm-22.37 0h2.87c.76 0 1.38.06 1.87.16 1.4.31 2.55 1.04 3.46 2.2A5.96 5.96 0 0 1 22 37.7c0 .5-.09 1.12-.26 1.85a211.93 211.93 0 0 0-.67 2.85h-.05a16.3 16.3 0 0 1-5.54-4.45 16.32 16.32 0 0 1-3.08-6.45l.02-.02h.03ZM27.64 12a.06.06 0 0 1 .03.07c-.73 3.36-1.38 6.35-1.93 8.98a15 15 0 0 1-.82 2.84 10 10 0 0 1-7.5 5.87c-.65.12-1.53.17-2.61.15a210.03 210.03 0 0 0-2.67-.02 15.7 15.7 0 0 1 1.14-8.13A16.02 16.02 0 0 1 27.64 12Zm1.73.06a15.92 15.92 0 0 1 12.13 7.37 16.07 16.07 0 0 1 2.5 8.44 11.62 11.62 0 0 1-.16 2.02 6.22 6.22 0 0 1-16.91-5.96c-.04-.54.09-1.39.36-2.55a1490.07 1490.07 0 0 0 2.03-9.3.07.07 0 0 1 .05-.02Z" fill="#F7D4AC"/><defs><linearGradient id="a" x1="10.42" y1="9.71" x2="68.15" y2="76.02" gradientUnits="userSpaceOnUse"><stop stop-color="#1A1E21"/><stop offset="1" stop-color="#06060A"/></linearGradient></defs></svg>