<!-- by TradingView --><svg width="56" height="56" viewBox="0 0 56 56" xmlns="http://www.w3.org/2000/svg"><path fill="#090015" d="M0 0h56v56H0z"/><path d="M11.4 36.6s-1.28-4.4.75-6.42a4.02 4.02 0 0 1 5.67 5.67c-2.02 2.03-6.42.75-6.42.75Z" fill="url(#a)"/><path d="M17.48 23.5c-1.49-2.52.97-6.5.97-6.5s4.75-.1 6.23 2.42l6.76 11.47a4.03 4.03 0 0 1-1.52 5.56 4.2 4.2 0 0 1-5.68-1.49L17.48 23.5Z" fill="url(#b)"/><path d="M30.48 23.5c-1.49-2.52.97-6.5.97-6.5s4.75-.1 6.23 2.42l6.76 11.47a4.03 4.03 0 0 1-1.52 5.56 4.2 4.2 0 0 1-5.68-1.49L30.48 23.5Z" fill="url(#c)"/><defs><linearGradient id="a" x1="17.82" y1="30.18" x2="11.4" y2="36.6" gradientUnits="userSpaceOnUse"><stop stop-color="#6F17BA"/><stop offset="1" stop-color="#B038FA"/></linearGradient><linearGradient id="b" x1="29.92" y1="36.45" x2="18.81" y2="16.8" gradientUnits="userSpaceOnUse"><stop stop-color="#C41BAF"/><stop offset="1" stop-color="#F52586"/></linearGradient><linearGradient id="c" x1="42.92" y1="36.45" x2="31.81" y2="16.8" gradientUnits="userSpaceOnUse"><stop stop-color="#3054B6"/><stop offset="1" stop-color="#00A4FC"/></linearGradient></defs></svg>