<!-- by TradingView --><svg width="56" height="56" viewBox="0 0 56 56" xmlns="http://www.w3.org/2000/svg"><path fill="#181B1E" d="M0 0h56v56H0z"/><path d="M15 35.54c0-.23.13-.44.34-.55l9.25-4.87c.83-.44 1.73.44 1.3 1.26l-4.81 9.28a.64.64 0 0 1-.57.34h-4.87a.63.63 0 0 1-.64-.63v-4.83ZM15 20.46c0 .23.13.44.34.55l9.25 4.87c.83.44 1.73-.44 1.3-1.26l-4.81-9.28a.64.64 0 0 0-.57-.34h-4.87a.63.63 0 0 0-.64.63v4.83ZM41 35.54a.63.63 0 0 0-.34-.55l-9.25-4.87c-.83-.44-1.73.44-1.3 1.26l4.81 9.28c.1.2.33.34.57.34h4.87c.35 0 .64-.28.64-.63v-4.83ZM41 20.46c0 .23-.13.44-.34.55l-9.25 4.87c-.83.44-1.73-.44-1.3-1.26l4.81-9.28c.1-.2.33-.34.57-.34h4.87c.35 0 .64.28.64.63v4.83ZM27.21 32.62a.81.81 0 0 1 1.58 0l2.17 7.21c.17.58-.23 1.17-.79 1.17h-4.34c-.56 0-.96-.6-.79-1.17l2.17-7.21ZM27.21 23.38a.81.81 0 0 0 1.58 0l2.17-7.21c.17-.58-.23-1.17-.79-1.17h-4.34c-.56 0-.96.6-.79 1.17l2.17 7.21ZM23.38 27.21a.81.81 0 0 1 0 1.58l-7.21 2.17c-.58.17-1.17-.23-1.17-.79v-4.34c0-.56.6-.96 1.17-.79l7.21 2.17ZM32.62 27.21a.81.81 0 0 0 0 1.58l7.21 2.17c.58.17 1.17-.23 1.17-.79v-4.34c0-.56-.6-.96-1.17-.79l-7.21 2.17Z" fill="#fff"/></svg>