<?xml version="1.0" encoding="UTF-8"?>
<svg version="1.1" xmlns="http://www.w3.org/2000/svg" width="96" height="96">
<path d="M0 0 C10.02815119 6.31460145 17.50840267 15.04955535 22 26 C22.54720703 27.30710937 22.54720703 27.30710937 23.10546875 28.640625 C26.38406411 40.95325386 25.36233334 55.91826496 19 67 C12.68539855 77.02815119 3.95044465 84.50840267 -7 89 C-7.87140625 89.36480469 -8.7428125 89.72960937 -9.640625 90.10546875 C-21.95325386 93.38406411 -36.91826496 92.36233334 -48 86 C-58.02815119 79.68539855 -65.50840267 70.95044465 -70 60 C-70.36480469 59.12859375 -70.72960937 58.2571875 -71.10546875 57.359375 C-74.38406411 45.04674614 -73.36233334 30.08173504 -67 19 C-60.68539855 8.97184881 -51.95044465 1.49159733 -41 -3 C-40.12859375 -3.36480469 -39.2571875 -3.72960937 -38.359375 -4.10546875 C-26.04674614 -7.38406411 -11.08173504 -6.36233334 0 0 Z " fill="#FDFDFD" transform="translate(72,5)"/>
<path d="M0 0 C1.79296875 2.1953125 1.79296875 2.1953125 3 4 C0.69 6.31 -1.62 8.62 -4 11 C-4.63164063 10.4946875 -5.26328125 9.989375 -5.9140625 9.46875 C-13.50514913 3.95591475 -19.69594229 2.52909502 -29 4 C-34.04939802 6.35058184 -37.49965922 9.99931844 -40 15 C-40.71559199 24.05722726 -40.71559199 24.05722726 -38.3125 32.625 C-33.26918767 37.80461807 -30.10721199 40.15308929 -22.875 40.3125 C-15.93803286 40.27408933 -11.04093779 39.04093779 -6 34 C-3 34 -3 34 -1.61328125 35.3125 C-0.40885417 36.875 0.79557292 38.4375 2 40 C0.49861622 44.50415134 -3.05899081 46.73070488 -7 49 C-14.53696067 52.70236664 -23.48140922 53.55054061 -31.5859375 51.2734375 C-33.84472811 50.32520799 -35.89618555 49.25236891 -38 48 C-38.62519531 47.66097656 -39.25039063 47.32195312 -39.89453125 46.97265625 C-45.78980256 43.36356859 -49.88826311 37.20584799 -51.6484375 30.546875 C-52.94555916 21.1499492 -52.79645687 12.20855363 -47.078125 4.36328125 C-34.20812562 -10.83663182 -15.88863088 -11.79653234 0 0 Z " fill="#080808" transform="translate(70,26)"/>
</svg>
