<?xml version="1.0" encoding="UTF-8"?>
<svg version="1.1" xmlns="http://www.w3.org/2000/svg" width="192" height="192">
<path d="M0 0 C20.74214802 16.36295874 35.24768955 37.80942542 39.08984375 64.4375 C41.23429433 94.7507401 35.20654084 119.85377198 15.19946289 143.1015625 C-0.24141956 160.40289245 -22.66162943 173.00505778 -46.06445312 174.66064453 C-76.91659688 175.69954325 -101.60641605 169.19525544 -124.59375 147.79467773 C-141.14677537 131.75067991 -152.46398239 109.15993104 -153.24609375 85.93359375 C-153.63659358 55.62397823 -146.33434962 31.45758762 -124.84375 9.28515625 C-91.79128842 -23.47863754 -37.48370416 -27.42936077 0 0 Z " fill="#121214" transform="translate(152.91015625,17.5625)"/>
<path d="M0 0 C20.74214802 16.36295874 35.24768955 37.80942542 39.08984375 64.4375 C41.23429433 94.7507401 35.20654084 119.85377198 15.19946289 143.1015625 C-0.24141956 160.40289245 -22.66162943 173.00505778 -46.06445312 174.66064453 C-76.91659688 175.69954325 -101.60641605 169.19525544 -124.59375 147.79467773 C-141.14677537 131.75067991 -152.46398239 109.15993104 -153.24609375 85.93359375 C-153.63659358 55.62397823 -146.33434962 31.45758762 -124.84375 9.28515625 C-91.79128842 -23.47863754 -37.48370416 -27.42936077 0 0 Z M-101.91015625 22.4375 C-103.06644531 23.32888672 -103.06644531 23.32888672 -104.24609375 24.23828125 C-117.75983688 35.31006729 -126.17479442 51.46401768 -128.6640625 68.68359375 C-130.28954036 86.87346504 -127.54725784 106.09750264 -115.97265625 120.8125 C-114.63326138 122.36701756 -113.27947026 123.90927141 -111.91015625 125.4375 C-110.95689453 126.56865234 -110.95689453 126.56865234 -109.984375 127.72265625 C-107.18316698 131.02772182 -104.58283596 134.07339318 -100.91015625 136.4375 C-99.92015625 136.4375 -98.93015625 136.4375 -97.91015625 136.4375 C-97.91015625 137.0975 -97.91015625 137.7575 -97.91015625 138.4375 C-96.92015625 138.4375 -95.93015625 138.4375 -94.91015625 138.4375 C-94.58015625 139.4275 -94.25015625 140.4175 -93.91015625 141.4375 C-84.94935079 147.10627973 -74.52120885 150.84117638 -63.91015625 151.4375 C-62.29173828 151.53417969 -62.29173828 151.53417969 -60.640625 151.6328125 C-49.16099569 151.99342913 -38.51057436 149.9457238 -27.91015625 145.4375 C-27.91015625 144.7775 -27.91015625 144.1175 -27.91015625 143.4375 C-27.07484375 143.251875 -27.07484375 143.251875 -26.22265625 143.0625 C-23.68901261 142.37773145 -21.33094593 141.44616237 -18.91015625 140.4375 C-18.91015625 139.7775 -18.91015625 139.1175 -18.91015625 138.4375 C-17.92015625 138.4375 -16.93015625 138.4375 -15.91015625 138.4375 C-15.91015625 137.7775 -15.91015625 137.1175 -15.91015625 136.4375 C-15.32621094 136.33050781 -14.74226563 136.22351563 -14.140625 136.11328125 C-4.88522389 133.30910543 1.93003776 121.6503779 6.62890625 113.8984375 C11.43211778 104.851898 14.70013626 94.70544521 15.08984375 84.4375 C15.12980469 83.42945312 15.16976562 82.42140625 15.2109375 81.3828125 C15.53726086 65.06664461 11.55999339 48.36035472 1.08984375 35.4375 C0.42984375 35.4375 -0.23015625 35.4375 -0.91015625 35.4375 C-1.1421875 34.88191406 -1.37421875 34.32632813 -1.61328125 33.75390625 C-3.25379375 30.82371373 -5.29207017 28.75385011 -7.66015625 26.375 C-8.500625 25.51777344 -9.34109375 24.66054688 -10.20703125 23.77734375 C-12.9702762 21.38545975 -15.65117014 20.04423477 -18.91015625 18.4375 C-19.90015625 16.9525 -19.90015625 16.9525 -20.91015625 15.4375 C-24.47785177 14.70143501 -24.47785177 14.70143501 -27.91015625 14.4375 C-27.91015625 13.7775 -27.91015625 13.1175 -27.91015625 12.4375 C-53.42371082 2.09145228 -80.29727403 5.03619151 -101.91015625 22.4375 Z " fill="#E1DEE6" transform="translate(152.91015625,17.5625)"/>
<path d="M0 0 C16.18518255 1.54144596 29.75079988 6.67944748 41 19 C41 19.66 41 20.32 41 21 C41.66 21 42.32 21 43 21 C43.28875 21.639375 43.5775 22.27875 43.875 22.9375 C44.82823451 25.15206079 44.82823451 25.15206079 47 26 C47.625 29.0625 47.625 29.0625 48 32 C48.99 32.33 49.98 32.66 51 33 C57.63182135 47.05946127 57.03134182 62.33454253 53 77 C51.5625 79.62109375 51.5625 79.62109375 50 82 C49.08686119 83.76197207 48.19050514 85.53275984 47.3125 87.3125 C46.87550781 88.19550781 46.43851563 89.07851562 45.98828125 89.98828125 C45.66214844 90.65214844 45.33601563 91.31601563 45 92 C44.34 92 43.68 92 43 92 C43 92.66 43 93.32 43 94 C42.34 94 41.68 94 41 94 C40.731875 94.598125 40.46375 95.19625 40.1875 95.8125 C39.00082594 97.99847854 37.90400887 99.41332594 36 101 C35.34 101 34.68 101 34 101 C33.505 102.485 33.505 102.485 33 104 C30.75960369 105.3166727 28.59180956 106.46033255 26.25 107.5625 C25.31800781 108.01786133 25.31800781 108.01786133 24.3671875 108.48242188 C18.36406956 111.3889948 13.32729536 113.25624173 6.6875 114.125 C5.43324219 114.29257813 4.17898437 114.46015625 2.88671875 114.6328125 C1.93410156 114.75398438 0.98148437 114.87515625 0 115 C0.9143907 110.7192016 3.03699204 107.34980765 5.25 103.625 C9.48128334 96.30301099 12.55945868 89.12484007 15 81 C15.23332031 80.26136719 15.46664062 79.52273437 15.70703125 78.76171875 C22.13891094 54.93137314 15.95411022 29.87946271 4 9 C3.2575 7.91589844 2.515 6.83179688 1.75 5.71484375 C0 3 0 3 0 0 Z " fill="#DEDBE3" transform="translate(98,39)"/>
<path d="M0 0 C2.97 0.33 5.94 0.66 9 1 C10 5 10 5 9 8 C9.99 8.33 10.98 8.66 12 9 C11.01 9 10.02 9 9 9 C9.33 11.31 9.66 13.62 10 16 C9.34 16 8.68 16 8 16 C6.52313012 13.92111288 5.18604262 11.86716626 3.875 9.6875 C3.50246094 9.09259766 3.12992187 8.49769531 2.74609375 7.88476562 C0 3.38338484 0 3.38338484 0 0 Z " fill="#D5D3DA" transform="translate(98,39)"/>
<path d="M0 0 C0.99 0.66 1.98 1.32 3 2 C2.01 2.495 2.01 2.495 1 3 C0.67 3.99 0.34 4.98 0 6 C0.66 6.66 1.32 7.32 2 8 C-0.36292656 10.52588702 -1.66462511 11.88820837 -5 13 C-4.39254603 8.14036821 -2.27241033 4.2594482 0 0 Z " fill="#2D2C2F" transform="translate(34,59)"/>
<path d="M0 0 C0.66 0.33 1.32 0.66 2 1 C1.0479279 2.00596297 0.08812654 3.00461563 -0.875 4 C-1.40867187 4.556875 -1.94234375 5.11375 -2.4921875 5.6875 C-4 7 -4 7 -6 7 C-6.268125 7.598125 -6.53625 8.19625 -6.8125 8.8125 C-7.98493467 10.97224808 -9.19369282 12.35790256 -11 14 C-11.66 13.67 -12.32 13.34 -13 13 C-4.738041 3.40546697 -4.738041 3.40546697 0 0 Z " fill="#39383C" transform="translate(53,38)"/>
</svg>
