<!-- by TradingView --><svg width="56" height="56" viewBox="0 0 56 56" xmlns="http://www.w3.org/2000/svg"><path fill="url(#a)" d="M0 0h56v56H0z"/><path d="M26.67 17.25v.02a.02.02 0 0 0 .03 0l1.42-3.14c.18-.39.5-.8.95-1.22a3.5 3.5 0 0 1 4.17-.41c.4.22.78.54 1.16.96.42.47.56 1.02.72 1.61 0 .02.02.04.04.06a.1.1 0 0 0 .06.01c1.05-.09 1.97.18 2.77.81a3.62 3.62 0 0 1 .89 4.84.04.04 0 0 0 .02.04h.03c.98-.11 1.85.14 2.62.77 1.93 1.6 1.91 4.13.08 5.76a825.32 825.32 0 0 0-3 2.67c-.6.54-.9 1.08-1.4 1.86-.59.9-1 1.88-1.29 2.94-.23.84-.4 1.42-.53 1.74-1.21 3.15-3.82 5.93-7.08 6.96-1.89.6-3.8.63-5.76.09-.67-.19-1.44-.47-2.33-.86a11.98 11.98 0 0 1-4-2.77 8.25 8.25 0 0 1-2.2-6.52c.1-1.13.4-2.28.89-3.42l1.4-3.33c.28-.67.63-1.21 1.05-1.63a4.07 4.07 0 0 1 1.69-1.2 3.48 3.48 0 0 1 3.8-11.08c1.17 0 2.13.4 2.89 1.23.74.81 1.02 2.08.9 3.21Z" fill="#fff"/><path d="M35.59 24.13a.02.02 0 0 0 .01.03h.01l1.81-1.54c.77-.63 1.72-1 2.7-.67.78.26 1.4.95 1.7 1.67.41 1.04 0 2.17-.81 2.93l-3.22 2.87c-.6.53-1 1.22-1.5 2.02a12.27 12.27 0 0 0-1.43 3.4c-.21.78-.4 1.35-.55 1.71-1.8 4.22-6.05 7.29-10.85 6.22-3.27-.73-6.86-2.7-8.02-6.03-.75-2.14-.37-4.43.52-6.5l1.25-2.94c.2-.5.4-.86.56-1.1.56-.75 1.27-1.38 2.25-1.48.02 0 .04-.01.05-.03a2341.4 2341.4 0 0 0 .21-8c.03-1.3.64-2.56 2-2.81 1.46-.27 2.8.4 3.25 1.82.1.32.14.85.12 1.6a2184.26 2184.26 0 0 1-.13 5.04h.01l.01-.01 3.23-7.15c.3-.64.54-1.07.76-1.3.87-.91 2-1.14 3.11-.54 1.28.68 1.73 1.72 1.36 3.12a4728.67 4728.67 0 0 0-.09.42h.02c.98-.88 2.04-.99 3.17-.31 1.38.82 1.64 2.5.83 3.8l-2.34 3.76Z"/><path d="M20.07 26.17c-.02.46-.12 1.3.1 1.56.3.37.9.36 1.12-.06.07-.13.1-.36.11-.68l.24-9.9c.01-.62 0-1.14.34-1.56.53-.66 1.77-.4 2.14.29.13.25.19.67.17 1.26l-.22 7.99c-.01.55.1.9.65 1 .62.1.76-.31 1-.85l4.45-9.85c.3-.66.8-1.23 1.63-.94 1.3.45 1.08 1.47.58 2.5l-4.09 8.97c-.2.45.09.88.57.95.53.07.69-.5.92-.88l4.5-7.31c.55-.9 1.19-1.65 2.23-.87.65.48.71 1.14.2 1.97a1024 1024 0 0 1-4.3 6.9c-.2.32-.57.68-.46 1.06.05.17.15.3.32.4.4.22.64.05.97-.23L37.9 24c.58-.5 1.4-1.24 2.17-.56.51.44.67.94.48 1.5-.11.3-.48.71-1.1 1.24l-1.94 1.7c-.94.82-1.7 1.71-2.27 2.67a15.82 15.82 0 0 0-1.76 4.24 9.75 9.75 0 0 1-2.17 4.03 7.82 7.82 0 0 1-8.87 2.3 11.26 11.26 0 0 1-4.23-2.5c-2.17-2.13-2.18-4.96-1.07-7.63.5-1.23 1-2.38 1.47-3.47a2.95 2.95 0 0 1 1.36-1.45.12.12 0 0 1 .1.06l.01.05Z" fill="url(#b)"/><defs><linearGradient id="a" x1="10.42" y1="9.71" x2="68.15" y2="76.02" gradientUnits="userSpaceOnUse"><stop stop-color="#1A1E21"/><stop offset="1" stop-color="#06060A"/></linearGradient><linearGradient id="b" x1="19.47" y1="17.92" x2="33.19" y2="36.73" gradientUnits="userSpaceOnUse"><stop stop-color="#70F856"/><stop offset="1" stop-color="#20D9DE"/></linearGradient></defs></svg>