<?xml version="1.0" encoding="UTF-8"?>
<svg version="1.1" xmlns="http://www.w3.org/2000/svg" width="192" height="192">
<path d="M0 0 C20.74214802 16.36295874 35.24768955 37.80942542 39.08984375 64.4375 C41.23429433 94.7507401 35.20654084 119.85377198 15.19946289 143.1015625 C-0.24141956 160.40289245 -22.66162943 173.00505778 -46.06445312 174.66064453 C-76.91659688 175.69954325 -101.60641605 169.19525544 -124.59375 147.79467773 C-141.14677537 131.75067991 -152.46398239 109.15993104 -153.24609375 85.93359375 C-153.63659358 55.62397823 -146.33434962 31.45758762 -124.84375 9.28515625 C-91.79128842 -23.47863754 -37.48370416 -27.42936077 0 0 Z " fill="#FEFEFE" transform="translate(152.91015625,17.5625)"/>
<path d="M0 0 C0.97582031 0.10183594 1.95164062 0.20367187 2.95703125 0.30859375 C3.69308594 0.39238281 4.42914063 0.47617187 5.1875 0.5625 C5.1875 1.2225 5.1875 1.8825 5.1875 2.5625 C8.4875 2.8925 11.7875 3.2225 15.1875 3.5625 C15.236877 8.08315428 15.27320823 12.60365217 15.29736328 17.12451172 C15.30743118 18.66295098 15.32108646 20.20137107 15.33837891 21.73974609 C15.36259317 23.94894133 15.37397491 26.15788395 15.3828125 28.3671875 C15.39313507 29.05682587 15.40345764 29.74646423 15.41409302 30.45700073 C15.41449478 32.16050906 15.30941026 33.86335943 15.1875 35.5625 C12.01243139 38.73756861 8.38773983 38.53873287 4.03125 38.625 C2.9278125 38.604375 1.824375 38.58375 0.6875 38.5625 C-4.27221428 38.5154141 -9.12129664 38.69884818 -14.0625 39.125 C-18.94974566 39.52140993 -23.34458604 39.38722552 -28.1875 38.75 C-31.44926534 38.51701676 -34.55551573 38.78172549 -37.8125 39.0625 C-42.8577372 39.49385686 -47.44974466 39.45265824 -52.4609375 38.82421875 C-60.57222171 37.92146785 -68.7245428 38.78427731 -76.8125 39.5625 C-77.1425 40.5525 -77.4725 41.5425 -77.8125 42.5625 C-78.3075 40.5825 -78.3075 40.5825 -78.8125 38.5625 C-80.1325 38.5625 -81.4525 38.5625 -82.8125 38.5625 C-82.1525 40.2125 -81.4925 41.8625 -80.8125 43.5625 C-72.84960264 43.58572988 -64.88671958 43.60346918 -56.92379665 43.61431217 C-53.22579687 43.61951778 -49.52782037 43.62657301 -45.82983398 43.63793945 C-42.25719539 43.64885117 -38.68457911 43.65479431 -35.11192513 43.65737724 C-33.75286572 43.65921661 -32.39380745 43.66280832 -31.03475761 43.66823006 C-29.12271199 43.6755505 -27.21064362 43.67590899 -25.29858398 43.67602539 C-24.21270493 43.678246 -23.12682587 43.68046661 -22.00804138 43.68275452 C-18.5537245 43.55276177 -15.22575921 43.09539438 -11.8125 42.5625 C-11.4825 42.5625 -11.1525 42.5625 -10.8125 42.5625 C-10.04564974 50.18992133 -9.68469411 57.77501544 -9.625 65.4375 C-9.60566406 66.63113159 -9.60566406 66.63113159 -9.5859375 67.84887695 C-9.57763104 72.80523804 -10.22689647 76.86209427 -11.8125 81.5625 C-17.19627665 82.68933697 -17.19627665 82.68933697 -20.12426758 82.08666992 C-25.49807872 81.03884751 -31.05442811 81.66784693 -36.5 81.875 C-37.74845703 81.91044922 -38.99691406 81.94589844 -40.28320312 81.98242188 C-42.06694336 82.04719727 -42.06694336 82.04719727 -43.88671875 82.11328125 C-44.97557373 82.15106689 -46.06442871 82.18885254 -47.1862793 82.2277832 C-49.96811507 82.31009255 -49.96811507 82.31009255 -51.8125 84.5625 C-53.2975 84.0675 -53.2975 84.0675 -54.8125 83.5625 C-54.8125 82.9025 -54.8125 82.2425 -54.8125 81.5625 C-55.93527344 81.64628906 -57.05804688 81.73007813 -58.21484375 81.81640625 C-71.83691549 82.76572195 -71.83691549 82.76572195 -76.9375 82.0625 C-80.86411188 81.5558404 -83.93610061 81.87842952 -87.8125 82.5625 C-89.1325 82.5625 -90.4525 82.5625 -91.8125 82.5625 C-91.8125 81.9025 -91.8125 81.2425 -91.8125 80.5625 C-92.66630249 80.57035522 -92.66630249 80.57035522 -93.53735352 80.57836914 C-96.14989083 80.59932887 -98.76241037 80.61222004 -101.375 80.625 C-102.27025391 80.63337891 -103.16550781 80.64175781 -104.08789062 80.65039062 C-109.09926315 80.6687473 -113.89655663 80.58961563 -118.8125 79.5625 C-122.44252289 75.93247711 -121.86807854 71.07405044 -121.875 66.1875 C-121.85908248 64.64577474 -121.83991912 63.1040636 -121.8125 61.5625 C-122.4725 61.5625 -123.1325 61.5625 -123.8125 61.5625 C-123.791875 60.263125 -123.77125 58.96375 -123.75 57.625 C-123.74245028 52.86867675 -124.21362883 48.27861047 -124.8125 43.5625 C-124.1525 43.8925 -123.4925 44.2225 -122.8125 44.5625 C-121.15713936 44.6585207 -119.49798564 44.69324554 -117.83984375 44.6953125 C-116.36741211 44.69724609 -116.36741211 44.69724609 -114.86523438 44.69921875 C-113.83720703 44.69535156 -112.80917969 44.69148438 -111.75 44.6875 C-110.2021582 44.69330078 -110.2021582 44.69330078 -108.62304688 44.69921875 C-107.64271484 44.69792969 -106.66238281 44.69664063 -105.65234375 44.6953125 C-104.74863037 44.69418457 -103.84491699 44.69305664 -102.91381836 44.69189453 C-100.82535515 44.79612522 -100.82535515 44.79612522 -99.8125 43.5625 C-97.62957226 43.32768307 -95.44046826 43.14886677 -93.25 43 C-92.05246094 42.91621094 -90.85492188 42.83242187 -89.62109375 42.74609375 C-88.69425781 42.68550781 -87.76742187 42.62492187 -86.8125 42.5625 C-86.8125 41.2425 -86.8125 39.9225 -86.8125 38.5625 C-86.46619243 36.81092782 -86.110721 35.06116074 -85.75 33.3125 C-84.0272756 22.81954228 -85.15917044 12.1229396 -85.8125 1.5625 C-84.2965625 1.5934375 -84.2965625 1.5934375 -82.75 1.625 C-78.97198236 1.66702024 -78.97198236 1.66702024 -75.93212891 1.0625 C-69.98871063 0.17622665 -63.9532726 0.46122654 -57.9609375 0.5 C-56.61528704 0.50441241 -55.26963449 0.50822719 -53.92398071 0.51147461 C-49.6784568 0.52283981 -45.43298881 0.54209188 -41.1875 0.5625 C-36.25747692 0.58615587 -31.32748559 0.60651897 -26.39741898 0.61843872 C-24.43154397 0.62489133 -22.46569212 0.63746649 -20.49984741 0.65014648 C-19.30155304 0.65344971 -18.10325867 0.65675293 -16.86865234 0.66015625 C-15.29148941 0.66801147 -15.29148941 0.66801147 -13.6824646 0.67602539 C-8.8977995 0.48676139 -4.84021129 -0.52484219 0 0 Z " fill="#E6FAFB" transform="translate(143.8125,33.4375)"/>
<path d="M0 0 C31.68 0 63.36 0 96 0 C96 10.23 96 20.46 96 31 C83.6308096 31.02254936 71.26163275 31.04091412 58.89242649 31.05181217 C53.14954938 31.05704141 47.40668699 31.0641398 41.66381836 31.07543945 C36.12660005 31.08626687 30.58939596 31.09227652 25.05216789 31.09487724 C22.93455723 31.09673176 20.81694738 31.10035286 18.69934273 31.10573006 C15.74428726 31.11293856 12.78929129 31.11399102 9.83422852 31.11352539 C8.50714119 31.1189183 8.50714119 31.1189183 7.15324402 31.12442017 C1.11405216 31.11405216 1.11405216 31.11405216 0 30 C0 20.1 0 10.2 0 0 Z " fill="#0CA6C3" transform="translate(62,38)"/>
<path d="M0 0 C1.80868813 0.00333092 1.80868813 0.00333092 3.65391541 0.00672913 C4.64899864 0.00651009 4.64899864 0.00651009 5.66418457 0.00628662 C7.86644207 0.00698571 10.06861596 0.01477787 12.27085876 0.02259827 C13.79400588 0.02446246 15.31715359 0.02588636 16.84030151 0.02688599 C20.85657903 0.03071105 24.87282059 0.04054124 28.88908386 0.05158997 C32.98443617 0.06180433 37.07979427 0.06638366 41.17515564 0.07142639 C49.21618779 0.08216352 57.25719069 0.0992398 65.29820251 0.12025452 C65.32285873 4.37440074 65.3410415 8.6285095 65.35313416 12.88270569 C65.35817352 14.33095524 65.36500505 15.77919968 65.37364197 17.22743225 C65.38572498 19.3050004 65.39143463 21.38250149 65.39585876 23.46009827 C65.40109558 24.71169739 65.4063324 25.96329651 65.41172791 27.25282288 C65.29820251 30.12025452 65.29820251 30.12025452 64.29820251 31.12025452 C62.21744842 31.21969424 60.13328403 31.24825048 58.05015564 31.24964905 C57.39812668 31.25140137 56.74609772 31.25315369 56.0743103 31.25495911 C53.90933099 31.25937656 51.74443273 31.25644003 49.57945251 31.25306702 C48.08112065 31.25374009 46.58278889 31.25471014 45.0844574 31.25596619 C41.94036319 31.25744301 38.79629734 31.2552891 35.65220642 31.25062561 C31.61333713 31.24492832 27.57453427 31.24820741 23.53566742 31.25419807 C20.44055171 31.2578041 17.34545187 31.25666491 14.25033569 31.25407028 C12.76072176 31.25340113 11.27110641 31.25422904 9.78149414 31.25654984 C7.70304016 31.25907705 5.6246952 31.25523484 3.54624939 31.24964905 C1.76873291 31.24845566 1.76873291 31.24845566 -0.04469299 31.24723816 C-2.70179749 31.12025452 -2.70179749 31.12025452 -3.70179749 30.12025452 C-3.80183038 27.98672278 -3.83260796 25.8498791 -3.83460999 23.71400452 C-3.83589905 22.41334045 -3.83718811 21.11267639 -3.83851624 19.77259827 C-3.83642151 19.09181213 -3.83432678 18.411026 -3.83216858 17.70960999 C-3.82681989 15.62896937 -3.83211429 13.54854463 -3.83851624 11.46791077 C-3.83722717 10.1672467 -3.83593811 8.86658264 -3.83460999 7.52650452 C-3.83348206 6.32316467 -3.83235413 5.11982483 -3.83119202 3.88002014 C-3.6569046 0.16276545 -3.6569046 0.16276545 0 0 Z " fill="#5FCADD" transform="translate(65.70179748535156,80.87974548339844)"/>
<path d="M0 0 C10.23 0 20.46 0 31 0 C31 10.56 31 21.12 31 32 C20.77 32 10.54 32 0 32 C0 21.44 0 10.88 0 0 Z " fill="#5FCADD" transform="translate(24,80)"/>
<path d="M0 0 C9.9 0 19.8 0 30 0 C30 9.9 30 19.8 30 30 C25.606875 30.185625 21.21375 30.37125 16.6875 30.5625 C15.30522217 30.62381104 13.92294434 30.68512207 12.4987793 30.74829102 C11.40992432 30.79139404 10.32106934 30.83449707 9.19921875 30.87890625 C7.52605591 30.94960327 7.52605591 30.94960327 5.8190918 31.02172852 C3 31 3 31 0 30 C0 20.1 0 10.2 0 0 Z " fill="#AFEAF2" transform="translate(63,124)"/>
<path d="M0 0 C0.97582031 0.10183594 1.95164062 0.20367187 2.95703125 0.30859375 C3.69308594 0.39238281 4.42914063 0.47617187 5.1875 0.5625 C5.1875 1.2225 5.1875 1.8825 5.1875 2.5625 C10.1375 3.0575 10.1375 3.0575 15.1875 3.5625 C15.236877 8.08315428 15.27320823 12.60365217 15.29736328 17.12451172 C15.30743118 18.66295098 15.32108646 20.20137107 15.33837891 21.73974609 C15.36259317 23.94894133 15.37397491 26.15788395 15.3828125 28.3671875 C15.39313507 29.05682587 15.40345764 29.74646423 15.41409302 30.45700073 C15.41449478 32.16050906 15.30941026 33.86335943 15.1875 35.5625 C12.01243139 38.73756861 8.38773983 38.53873287 4.03125 38.625 C2.9278125 38.604375 1.824375 38.58375 0.6875 38.5625 C-4.27221428 38.5154141 -9.12129664 38.69884818 -14.0625 39.125 C-18.94974566 39.52140993 -23.34458604 39.38722552 -28.1875 38.75 C-32.53078913 38.43976506 -36.80311959 38.95775298 -41.125 39.40625 C-44.07751495 39.53135657 -46.60100688 39.42318795 -49.51171875 39.09375 C-55.22971165 38.44867641 -60.87761754 38.48771298 -66.625 38.5625 C-68.63145515 38.58810887 -70.63797562 38.60910649 -72.64453125 38.625 C-73.51827393 38.63660156 -74.3920166 38.64820313 -75.29223633 38.66015625 C-77.89490373 38.55930699 -80.27653463 38.14039409 -82.8125 37.5625 C-85.16720901 25.65178744 -85.43095945 13.66478001 -85.8125 1.5625 C-84.2965625 1.5934375 -84.2965625 1.5934375 -82.75 1.625 C-78.97198236 1.66702024 -78.97198236 1.66702024 -75.93212891 1.0625 C-69.98871063 0.17622665 -63.9532726 0.46122654 -57.9609375 0.5 C-56.61528704 0.50441241 -55.26963449 0.50822719 -53.92398071 0.51147461 C-49.6784568 0.52283981 -45.43298881 0.54209188 -41.1875 0.5625 C-36.25747692 0.58615587 -31.32748559 0.60651897 -26.39741898 0.61843872 C-24.43154397 0.62489133 -22.46569212 0.63746649 -20.49984741 0.65014648 C-19.30155304 0.65344971 -18.10325867 0.65675293 -16.86865234 0.66015625 C-15.29148941 0.66801147 -15.29148941 0.66801147 -13.6824646 0.67602539 C-8.8977995 0.48676139 -4.84021129 -0.52484219 0 0 Z M-81.8125 4.5625 C-81.8125 14.4625 -81.8125 24.3625 -81.8125 34.5625 C-79.92364805 36.45135195 -77.17198241 35.68260635 -74.65925598 35.68692017 C-73.7745311 35.68332489 -72.88980621 35.67972961 -71.97827148 35.67602539 C-71.05153625 35.67617142 -70.12480103 35.67631744 -69.16998291 35.6764679 C-66.09116313 35.67576838 -63.01240303 35.66797421 -59.93359375 35.66015625 C-57.80509982 35.65829221 -55.67660547 35.65686824 -53.54811096 35.65586853 C-47.9338768 35.65204228 -42.31966832 35.64221108 -36.70544434 35.63116455 C-30.98136747 35.62095273 -25.25728647 35.6163714 -19.53320312 35.61132812 C-8.29295562 35.6005889 2.94726604 35.58299124 14.1875 35.5625 C14.1875 25.3325 14.1875 15.1025 14.1875 4.5625 C-17.4925 4.5625 -49.1725 4.5625 -81.8125 4.5625 Z " fill="#D8F7F9" transform="translate(143.8125,33.4375)"/>
<path d="M0 0 C1.80868813 0.00333092 1.80868813 0.00333092 3.65391541 0.00672913 C4.64899864 0.00651009 4.64899864 0.00651009 5.66418457 0.00628662 C7.86644207 0.00698571 10.06861596 0.01477787 12.27085876 0.02259827 C13.79400588 0.02446246 15.31715359 0.02588636 16.84030151 0.02688599 C20.85657903 0.03071105 24.87282059 0.04054124 28.88908386 0.05158997 C32.98443617 0.06180433 37.07979427 0.06638366 41.17515564 0.07142639 C49.21618779 0.08216352 57.25719069 0.0992398 65.29820251 0.12025452 C65.32285873 4.37440074 65.3410415 8.6285095 65.35313416 12.88270569 C65.35817352 14.33095524 65.36500505 15.77919968 65.37364197 17.22743225 C65.38572498 19.3050004 65.39143463 21.38250149 65.39585876 23.46009827 C65.40109558 24.71169739 65.4063324 25.96329651 65.41172791 27.25282288 C65.29820251 30.12025452 65.29820251 30.12025452 64.29820251 31.12025452 C62.21744842 31.21969424 60.13328403 31.24825048 58.05015564 31.24964905 C57.39812668 31.25140137 56.74609772 31.25315369 56.0743103 31.25495911 C53.90933099 31.25937656 51.74443273 31.25644003 49.57945251 31.25306702 C48.08112065 31.25374009 46.58278889 31.25471014 45.0844574 31.25596619 C41.94036319 31.25744301 38.79629734 31.2552891 35.65220642 31.25062561 C31.61333713 31.24492832 27.57453427 31.24820741 23.53566742 31.25419807 C20.44055171 31.2578041 17.34545187 31.25666491 14.25033569 31.25407028 C12.76072176 31.25340113 11.27110641 31.25422904 9.78149414 31.25654984 C7.70304016 31.25907705 5.6246952 31.25523484 3.54624939 31.24964905 C1.76873291 31.24845566 1.76873291 31.24845566 -0.04469299 31.24723816 C-2.70179749 31.12025452 -2.70179749 31.12025452 -3.70179749 30.12025452 C-3.80183038 27.98672278 -3.83260796 25.8498791 -3.83460999 23.71400452 C-3.83589905 22.41334045 -3.83718811 21.11267639 -3.83851624 19.77259827 C-3.83642151 19.09181213 -3.83432678 18.411026 -3.83216858 17.70960999 C-3.82681989 15.62896937 -3.83211429 13.54854463 -3.83851624 11.46791077 C-3.83722717 10.1672467 -3.83593811 8.86658264 -3.83460999 7.52650452 C-3.83348206 6.32316467 -3.83235413 5.11982483 -3.83119202 3.88002014 C-3.6569046 0.16276545 -3.6569046 0.16276545 0 0 Z M-0.70179749 4.12025452 C-0.70179749 12.04025452 -0.70179749 19.96025452 -0.70179749 28.12025452 C3.7326064 28.75374079 7.43553102 29.24577186 11.80284119 29.24964905 C13.34430061 29.25437729 13.34430061 29.25437729 14.91690063 29.25920105 C16.5500396 29.2561647 16.5500396 29.2561647 18.21617126 29.25306702 C19.35097427 29.25402374 20.48577728 29.25498047 21.65496826 29.25596619 C24.04442907 29.25664451 26.43389176 29.25481453 28.823349 29.25062561 C32.48362849 29.24525756 36.14378612 29.25059006 39.80406189 29.25697327 C42.12893195 29.25631272 44.45380194 29.25503203 46.77867126 29.25306702 C47.87350327 29.25509125 48.96833527 29.25711548 50.09634399 29.25920105 C51.11452713 29.25604889 52.13271027 29.25289673 53.18174744 29.24964905 C54.07552597 29.24885345 54.9693045 29.24805786 55.89016724 29.24723816 C58.5945361 29.18154161 58.5945361 29.18154161 62.29820251 28.12025452 C62.29820251 19.54025452 62.29820251 10.96025452 62.29820251 2.12025452 C54.68147554 2.07830192 47.06516756 2.03823283 39.44842529 2.01675415 C35.90139314 2.00619788 32.35445674 1.99209362 28.80747986 1.96937561 C24.7366697 1.943466 20.66596079 1.93377714 16.59507751 1.92494202 C14.69021576 1.90945816 14.69021576 1.90945816 12.74687195 1.8936615 C10.97548859 1.89343491 10.97548859 1.89343491 9.1683197 1.89320374 C7.60945038 1.8865419 7.60945038 1.8865419 6.01908875 1.87974548 C2.96292874 1.98228971 2.96292874 1.98228971 -0.70179749 4.12025452 Z " fill="#72C1D0" transform="translate(65.70179748535156,80.87974548339844)"/>
<path d="M0 0 C10.23 0 20.46 0 31 0 C31 10.56 31 21.12 31 32 C20.77 32 10.54 32 0 32 C0 21.44 0 10.88 0 0 Z M3 5 C3 7.97 3 10.94 3 14 C3.66 14 4.32 14 5 14 C5 14.66 5 15.32 5 16 C4.34 16 3.68 16 3 16 C3 20.29 3 24.58 3 29 C16.25536321 30.93611771 16.25536321 30.93611771 29 28 C29 26.02 29 24.04 29 22 C28.01 22 27.02 22 26 22 C26.144375 20.96875 26.28875 19.9375 26.4375 18.875 C25.96268636 14.66950778 25.78306985 14.34113606 22.75 11.8125 C22.14671875 11.36519531 21.5434375 10.91789062 20.921875 10.45703125 C19 9 19 9 17.15625 6.83984375 C14.2588359 4.36759367 12.49857108 4.58701865 8.75 4.75 C7.67234375 4.78609375 6.5946875 4.8221875 5.484375 4.859375 C4.66453125 4.90578125 3.8446875 4.9521875 3 5 Z " fill="#63C7DB" transform="translate(24,80)"/>
<path d="M0 0 C0.33 0 0.66 0 1 0 C1.33 9.9 1.66 19.8 2 30 C49.025 30.495 49.025 30.495 97 31 C96.67 31.66 96.34 32.32 96 33 C91.79632604 33.98909976 87.80140661 34.08040012 83.5 34 C78.54028572 33.9529141 73.69120336 34.13634818 68.75 34.5625 C63.86275434 34.95890993 59.46791396 34.82472552 54.625 34.1875 C50.28171087 33.87726506 46.00938041 34.39525298 41.6875 34.84375 C38.73498505 34.96885657 36.21149312 34.86068795 33.30078125 34.53125 C27.58278835 33.88617641 21.93488246 33.92521298 16.1875 34 C14.18104485 34.02560887 12.17452438 34.04660649 10.16796875 34.0625 C9.29422607 34.07410156 8.4204834 34.08570313 7.52026367 34.09765625 C5 34 5 34 0 33 C0 22.11 0 11.22 0 0 Z " fill="#CBF3F6" transform="translate(61,38)"/>
<path d="M0 0 C1.32 0.33 2.64 0.66 4 1 C3.34 1 2.68 1 2 1 C2 9.91 2 18.82 2 28 C5.96 27.505 5.96 27.505 10 27 C11.35694818 26.926283 12.71612579 26.87764834 14.07507324 26.87974548 C15.12651016 26.87768349 15.12651016 26.87768349 16.19918823 26.87557983 C17.30618576 26.88097275 17.30618576 26.88097275 18.43554688 26.88647461 C19.63698837 26.88625557 19.63698837 26.88625557 20.86270142 26.8860321 C23.48141289 26.8867227 26.10005112 26.89447471 28.71875 26.90234375 C30.54577597 26.90421097 32.37280245 26.90563344 34.1998291 26.90663147 C38.98703415 26.91043274 43.77420841 26.92024242 48.56140137 26.93133545 C53.45499251 26.94160116 58.34858867 26.94614011 63.2421875 26.95117188 C72.82814064 26.96186701 82.41406293 26.97944425 92 27 C92.33 18.42 92.66 9.84 93 1 C82.63831585 1.10806451 72.27669673 1.22015274 61.91513443 1.33933926 C57.10392787 1.3945202 52.29271517 1.44793252 47.48144531 1.49731445 C42.83893311 1.54502918 38.19649416 1.5973746 33.55406952 1.65294075 C31.78226291 1.67333208 30.01043623 1.69205046 28.23859406 1.70907402 C25.75827277 1.73318936 23.27808926 1.76323414 20.79785156 1.79467773 C20.06417358 1.8004332 19.33049561 1.80618866 18.57458496 1.81211853 C15.2142482 1.86058924 12.24262182 2.1594167 9 3 C6.75 2.0625 6.75 2.0625 5 1 C5 0.67 5 0.34 5 0 C34.37 0 63.74 0 94 0 C94 9.57 94 19.14 94 29 C81.89157724 29.02254957 69.78316831 29.04091424 57.67472935 29.05181217 C52.05292038 29.05704136 46.43112647 29.06413966 40.80932617 29.07543945 C35.38881723 29.08626706 29.9683228 29.09227656 24.54780388 29.09487724 C22.47485055 29.09673172 20.40189806 29.10035277 18.32895088 29.10573006 C15.43616107 29.1129388 12.54343204 29.11399101 9.65063477 29.11352539 C8.78461136 29.11712067 7.91858795 29.12071594 7.02632141 29.12442017 C1.11405216 29.11405216 1.11405216 29.11405216 0 28 C-0.08767112 25.92737924 -0.10695873 23.85179706 -0.09765625 21.77734375 C-0.09443359 20.51728516 -0.09121094 19.25722656 -0.08789062 17.95898438 C-0.07953403 16.61848891 -0.07106907 15.27799412 -0.0625 13.9375 C-0.0574866 12.59310058 -0.05292342 11.2486994 -0.04882812 9.90429688 C-0.03699488 6.60282059 -0.02050971 3.30143197 0 0 Z " fill="#1F9AAF" transform="translate(63,39)"/>
<path d="M0 0 C26.07 0 52.14 0 79 0 C79 8.58 79 17.16 79 26 C77.25707823 27.74292177 74.99376505 27.11980303 72.67175293 27.12442017 C71.90858765 27.12082489 71.14542236 27.11722961 70.35913086 27.11352539 C69.15922264 27.11374443 69.15922264 27.11374443 67.93507385 27.1139679 C65.27830335 27.11326855 62.62160207 27.10547518 59.96484375 27.09765625 C58.12781309 27.09579215 56.29078194 27.09436821 54.45375061 27.09336853 C49.60890338 27.08954275 44.76408592 27.07971196 39.91925049 27.06866455 C34.97937422 27.05845172 30.03949315 27.05387119 25.09960938 27.04882812 C15.39972647 27.03808974 5.69986571 27.0210126 -4 27 C-4 26.67 -4 26.34 -4 26 C36.095 25.505 36.095 25.505 77 25 C77 17.74 77 10.48 77 3 C77.33 2.34 77.66 1.68 78 1 C77.45472656 1.144375 76.90945312 1.28875 76.34765625 1.4375 C69.91738451 3.02033612 63.79357851 3.77595924 57.25 2.4375 C54.95749838 1.84397505 54.95749838 1.84397505 52.5 2.5 C49.66338084 3.06732383 47.80574881 2.57553822 45 2 C44.34 2.165 43.68 2.33 43 2.5 C41 3 41 3 38.5625 2.5 C36.00963409 1.83328627 36.00963409 1.83328627 33.5 2.5 C30.65621204 3.06875759 28.81797675 2.56359535 26 2 C24.33178677 2.32550502 22.66500443 2.65846063 21 3 C19.66666667 2.66666667 18.33333333 2.33333333 17 2 C16.195625 2.165 15.39125 2.33 14.5625 2.5 C11.6855323 3.06135955 9.84677022 2.56935404 7 2 C5.32900023 2.31088368 3.66128463 2.64080332 2 3 C1.34 2.67 0.68 2.34 0 2 C0 1.34 0 0.68 0 0 Z " fill="#0FA0BA" transform="translate(77,40)"/>
<path d="M0 0 C1.80868813 0.00333092 1.80868813 0.00333092 3.65391541 0.00672913 C4.64899864 0.00651009 4.64899864 0.00651009 5.66418457 0.00628662 C7.86644207 0.00698571 10.06861596 0.01477787 12.27085876 0.02259827 C13.79400588 0.02446246 15.31715359 0.02588636 16.84030151 0.02688599 C20.85657903 0.03071105 24.87282059 0.04054124 28.88908386 0.05158997 C32.98443617 0.06180433 37.07979427 0.06638366 41.17515564 0.07142639 C49.21618779 0.08216352 57.25719069 0.0992398 65.29820251 0.12025452 C65.32285873 4.37440074 65.3410415 8.6285095 65.35313416 12.88270569 C65.35817352 14.33095524 65.36500505 15.77919968 65.37364197 17.22743225 C65.38572498 19.3050004 65.39143463 21.38250149 65.39585876 23.46009827 C65.40109558 24.71169739 65.4063324 25.96329651 65.41172791 27.25282288 C65.29820251 30.12025452 65.29820251 30.12025452 64.29820251 31.12025452 C62.21744842 31.21969424 60.13328403 31.24825048 58.05015564 31.24964905 C57.39812668 31.25140137 56.74609772 31.25315369 56.0743103 31.25495911 C53.90933099 31.25937656 51.74443273 31.25644003 49.57945251 31.25306702 C48.08112065 31.25374009 46.58278889 31.25471014 45.0844574 31.25596619 C41.94036319 31.25744301 38.79629734 31.2552891 35.65220642 31.25062561 C31.61333713 31.24492832 27.57453427 31.24820741 23.53566742 31.25419807 C20.44055171 31.2578041 17.34545187 31.25666491 14.25033569 31.25407028 C12.76072176 31.25340113 11.27110641 31.25422904 9.78149414 31.25654984 C7.70304016 31.25907705 5.6246952 31.25523484 3.54624939 31.24964905 C1.76873291 31.24845566 1.76873291 31.24845566 -0.04469299 31.24723816 C-2.70179749 31.12025452 -2.70179749 31.12025452 -3.70179749 30.12025452 C-3.80183038 27.98672278 -3.83260796 25.8498791 -3.83460999 23.71400452 C-3.83589905 22.41334045 -3.83718811 21.11267639 -3.83851624 19.77259827 C-3.83642151 19.09181213 -3.83432678 18.411026 -3.83216858 17.70960999 C-3.82681989 15.62896937 -3.83211429 13.54854463 -3.83851624 11.46791077 C-3.83722717 10.1672467 -3.83593811 8.86658264 -3.83460999 7.52650452 C-3.83348206 6.32316467 -3.83235413 5.11982483 -3.83119202 3.88002014 C-3.6569046 0.16276545 -3.6569046 0.16276545 0 0 Z M-1.70179749 1.12025452 C-1.70179749 9.70025452 -1.70179749 18.28025452 -1.70179749 27.12025452 C0.27820251 28.11025452 0.27820251 28.11025452 2.29820251 29.12025452 C2.95820251 28.79025452 3.61820251 28.46025452 4.29820251 28.12025452 C4.29820251 28.78025452 4.29820251 29.44025452 4.29820251 30.12025452 C24.09820251 30.12025452 43.89820251 30.12025452 64.29820251 30.12025452 C64.29820251 20.55025452 64.29820251 10.98025452 64.29820251 1.12025452 C42.51820251 1.12025452 20.73820251 1.12025452 -1.70179749 1.12025452 Z " fill="#8FCFDA" transform="translate(65.70179748535156,80.87974548339844)"/>
<path d="M0 0 C0 0.33 0 0.66 0 1 C-9.57 1 -19.14 1 -29 1 C-29 10.9 -29 20.8 -29 31 C-19.1 31 -9.2 31 1 31 C1 21.1 1 11.2 1 1 C1.99 1 2.98 1 4 1 C4 11.56 4 22.12 4 33 C-5.1875 32.9375 -5.1875 32.9375 -8.05541992 32.90991211 C-12.19495572 32.89629088 -15.94936622 33.0607226 -20 34 C-21.43628457 34.06266512 -22.8750555 34.08686347 -24.3125 34.0625 C-26.1378125 34.0315625 -26.1378125 34.0315625 -28 34 C-28 33.34 -28 32.68 -28 32 C-28.99 31.67 -29.98 31.34 -31 31 C-31 20.77 -31 10.54 -31 0 C-23.28906595 -3.85546702 -8.53655919 -0.66953405 0 0 Z " fill="#E2FAFB" transform="translate(92,123)"/>
<path d="M0 0 C10.23 0 20.46 0 31 0 C31 10.56 31 21.12 31 32 C20.77 32 10.54 32 0 32 C0 21.44 0 10.88 0 0 Z M1 2 C1 11.57 1 21.14 1 31 C10.57 31 20.14 31 30 31 C30.020625 26.771875 30.04125 22.54375 30.0625 18.1875 C30.071604 16.8574292 30.08070801 15.5273584 30.09008789 14.15698242 C30.09258545 13.10873291 30.09508301 12.0604834 30.09765625 10.98046875 C30.10289307 9.90692139 30.10812988 8.83337402 30.11352539 7.72729492 C30.12194588 4.90500635 30.12194588 4.90500635 29 2 C19.76 2 10.52 2 1 2 Z " fill="#98D5DF" transform="translate(24,80)"/>
<path d="M0 0 C1.89065476 3.78130952 2.26816394 5.22055746 2.37890625 9.24609375 C2.41306641 10.24833984 2.44722656 11.25058594 2.48242188 12.28320312 C2.50884766 13.32412109 2.53527344 14.36503906 2.5625 15.4375 C2.62271217 17.49880591 2.68639497 19.56001399 2.75390625 21.62109375 C2.77783447 22.5330249 2.8017627 23.44495605 2.82641602 24.38452148 C2.99998832 26.999824 3.42775041 29.44491277 4 32 C-0.94622198 33.68171547 -3.93091176 33.88724556 -9 33 C-11.31210993 32.95752726 -13.62536132 32.95912241 -15.9375 33 C-20.76339411 33.04085413 -25.26358166 32.90217492 -30 32 C-30 31.67 -30 31.34 -30 31 C-20.1 31 -10.2 31 0 31 C0 20.77 0 10.54 0 0 Z " fill="#DDF9FB" transform="translate(55,81)"/>
<path d="M0 0 C9.24 0 18.48 0 28 0 C29.2062252 3.61867559 29.10816918 6.92506251 29.0625 10.6875 C29.05798828 11.38939453 29.05347656 12.09128906 29.04882812 12.81445312 C29.03706927 14.54300538 29.01913454 16.27151365 29 18 C26.42720621 14.14080931 26.98669512 11.85881763 27.3203125 7.375 C27.2373171 4.88495477 27.2373171 4.88495477 25.28710938 3.37646484 C22.64409534 1.78580375 21.14741169 1.61380606 18.0859375 1.6015625 C17.16039063 1.59769531 16.23484375 1.59382813 15.28125 1.58984375 C13.84265625 1.60724609 13.84265625 1.60724609 12.375 1.625 C10.92480469 1.60759766 10.92480469 1.60759766 9.4453125 1.58984375 C8.52234375 1.59371094 7.599375 1.59757812 6.6484375 1.6015625 C5.38265869 1.60663818 5.38265869 1.60663818 4.09130859 1.61181641 C3.05611084 1.80396729 3.05611084 1.80396729 2 2 C1.01 3.485 1.01 3.485 0 5 C0 3.35 0 1.7 0 0 Z " fill="#70C1D1" transform="translate(25,82)"/>
<path d="M0 0 C0.66 0 1.32 0 2 0 C2 3.3 2 6.6 2 10 C-7.57 10 -17.14 10 -27 10 C-27 8.02 -27 6.04 -27 4 C-26.01 5.485 -26.01 5.485 -25 7 C-16.56957581 8.49572042 -7.37878119 8.92650808 1 7 C0.67 4.69 0.34 2.38 0 0 Z " fill="#73C1D0" transform="translate(52,101)"/>
</svg>
