<!-- by TradingView --><svg width="56" height="56" viewBox="0 0 56 56" xmlns="http://www.w3.org/2000/svg"><path fill="url(#a)" d="M0 0h56v56H0z"/><path d="m22.14 31.57-1.84 1c-.05.02-.06.05-.03.1.5.77 1.12 1.46 1.86 2.04a8.7 8.7 0 0 0 13.3-2.97c.2-.44.26-.83.2-1.16-.07-.4-.32-.7-.75-.86-.28-.1-.64-.16-1.09-.15-.68.01-1.45.12-2.3.33-1.5.36-2.88.8-4.13 1.35-.01.01-.03 0-.04-.01 0-.02 0-.03.03-.04l16.4-9.41c.21-.12.38-.08.5.11l.02.14c0 .1-.04.17-.12.23-.44.3-.73.5-.88.62a4.21 4.21 0 0 0-1.42 2.16c-.1.36-.15.97-.16 1.83v.5c0 .9-.03 1.56-.08 1.97a13.9 13.9 0 0 1-4.84 9.27 13.87 13.87 0 0 1-7.78 3.3c-3.09.3-5.96-.33-8.62-1.9-2-1.2-3.61-2.78-4.8-4.74-.05-.07-.11-.1-.19-.05L9.03 38.7l-.02-.01v-.04l6.24-3.77c.03-.02.03-.04.02-.07a14.08 14.08 0 0 1-1.25-10.64 13.9 13.9 0 0 1 8.42-9.22c2.02-.82 4.24-1.1 6.67-.87a14.17 14.17 0 0 1 8.45 4.02c.02.03.06.03.1 0l3.46-2.34c.31-.22.6-.13.86.27l.02.04c.15.34.04.6-.32.82l-13.52 7.76h-.04v-.04l4.86-3.32c.05-.03.05-.07 0-.1l-.1-.08a8.6 8.6 0 0 0-9.17-.84 8.36 8.36 0 0 0-3.03 2.47 8.53 8.53 0 0 0-.82 9.22c.03.07.08.08.14.05l25.22-15.24c.32-.2.55-.3.7-.31.28-.03.53.04.74.22.21.18.32.4.34.69.01.31-.06.55-.2.7-.12.13-.4.3-.82.54-7.94 4.3-15.9 8.62-23.84 12.96Z" fill="#fff"/><defs><linearGradient id="a" x1="56" y1="0" x2="0" y2="56" gradientUnits="userSpaceOnUse"><stop offset=".28" stop-color="#010101"/><stop offset="1" stop-color="#E57536"/></linearGradient></defs></svg>