<!-- by TradingView --><svg width="56" height="56" viewBox="0 0 56 56" xmlns="http://www.w3.org/2000/svg"><path fill="#071B14" d="M0 0h56v56H0z"/><path d="M16.73 29c.05 0 .08.03.08.09a10.2 10.2 0 0 0 10.1 10.1c.06 0 .09.03.09.08v4.66c0 .04-.02.06-.07.07-.79.02-1.62-.05-2.5-.21a15.28 15.28 0 0 1-8.04-4.18 14.85 14.85 0 0 1-4.18-8.04 12.3 12.3 0 0 1-.2-2.5c0-.05.02-.07.06-.07h4.66Zm27.2 0c.04 0 .07.02.07.07a15.25 15.25 0 0 1-4.38 10.54 14.9 14.9 0 0 1-8.05 4.18c-.88.16-1.71.23-2.5.2-.05 0-.07-.02-.07-.06v-4.66c0-.05.03-.08.09-.08a10.18 10.18 0 0 0 10.1-10.1c0-.06.02-.09.08-.09h4.66Zm-17-17c.05 0 .07.03.07.07v4.66c0 .06-.03.08-.09.08a10.18 10.18 0 0 0-10.1 10.1c0 .06-.03.1-.08.1h-4.66c-.04 0-.07-.03-.07-.07-.02-.8.05-1.63.2-2.5a15.3 15.3 0 0 1 4.19-8.05 14.88 14.88 0 0 1 8.04-4.18c.88-.16 1.71-.22 2.5-.2Zm2.14 0c.78-.02 1.62.05 2.5.2a15.28 15.28 0 0 1 8.04 4.18 14.86 14.86 0 0 1 4.18 8.05c.16.88.23 1.71.2 2.5 0 .04-.02.07-.06.07h-4.65c-.06 0-.1-.03-.1-.1a10.18 10.18 0 0 0-10.1-10.1c-.05.01-.08-.02-.08-.08v-4.65c0-.05.02-.07.07-.07Z" fill="#F7F7F7"/></svg>