<?xml version="1.0" encoding="UTF-8"?>
<svg version="1.1" xmlns="http://www.w3.org/2000/svg" width="192" height="192">
<path d="M0 0 C20.74214802 16.36295874 35.24768955 37.80942542 39.08984375 64.4375 C41.23429433 94.7507401 35.20654084 119.85377198 15.19946289 143.1015625 C-0.22436472 160.3837827 -22.58628349 172.94784325 -45.95458984 174.66064453 C-76.74145736 175.74392959 -101.68496058 169.12213264 -124.59375 147.79467773 C-141.14677537 131.75067991 -152.46398239 109.15993104 -153.24609375 85.93359375 C-153.63659358 55.62397823 -146.33434962 31.45758762 -124.84375 9.28515625 C-91.79128842 -23.47863754 -37.48370416 -27.42936077 0 0 Z " fill="#C94427" transform="translate(152.91015625,17.5625)"/>
<path d="M0 0 C4.29 0 8.58 0 13 0 C13 20.79 13 41.58 13 63 C8.71 63 4.42 63 0 63 C0 42.21 0 21.42 0 0 Z " fill="#F8F0EC" transform="translate(139,63)"/>
<path d="M0 0 C4.29 0 8.58 0 13 0 C13 20.79 13 41.58 13 63 C8.71 63 4.42 63 0 63 C0 42.21 0 21.42 0 0 Z " fill="#F7EDE9" transform="translate(40,63)"/>
<path d="M0 0 C20.46 0 40.92 0 62 0 C62 4.29 62 8.58 62 13 C41.54 13 21.08 13 0 13 C0 8.71 0 4.42 0 0 Z " fill="#F9F2EE" transform="translate(65,138)"/>
<path d="M0 0 C20.46 0 40.92 0 62 0 C62 3.96 62 7.92 62 12 C41.54 12 21.08 12 0 12 C0 8.04 0 4.08 0 0 Z " fill="#FBF7F5" transform="translate(65,39)"/>
<path d="M0 0 C4.29 0 8.58 0 13 0 C13 3.96 13 7.92 13 12 C16.96 12 20.92 12 25 12 C25 8.04 25 4.08 25 0 C29.29 0 33.58 0 38 0 C38 4.29 38 8.58 38 13 C34.04 13 30.08 13 26 13 C26 16.96 26 20.92 26 25 C21.38 25 16.76 25 12 25 C12 21.04 12 17.08 12 13 C9.3084375 13.0309375 9.3084375 13.0309375 6.5625 13.0625 C4.70833878 13.0838122 2.85287502 13.07226502 1 13 C0 12 0 12 -0.09765625 9.27734375 C-0.06510417 6.18489583 -0.03255208 3.09244792 0 0 Z " fill="#DDA798" transform="translate(77,101)"/>
<path d="M0 0 C4.29 0 8.58 0 13 0 C13 3.96 13 7.92 13 12 C9.04 12 5.08 12 1 12 C1 16.29 1 20.58 1 25 C-8.27734375 25.09765625 -8.27734375 25.09765625 -11 25 C-12 24 -12 24 -12.09765625 21.27734375 C-12.06510417 18.18489583 -12.03255208 15.09244792 -12 12 C-8.04 12 -4.08 12 0 12 C0 8.04 0 4.08 0 0 Z " fill="#F2DED7" transform="translate(89,64)"/>
<path d="M0 0 C4.29 0 8.58 0 13 0 C13.09765625 9.27734375 13.09765625 9.27734375 13 12 C12 13 12 13 9.27734375 13.09765625 C6.18489583 13.06510417 3.09244792 13.03255208 0 13 C0 8.71 0 4.42 0 0 Z " fill="#F5E7E1" transform="translate(102,76)"/>
<path d="M0 0 C3.96 0 7.92 0 12 0 C12 3.96 12 7.92 12 12 C8.04 12 4.08 12 0 12 C0 8.04 0 4.08 0 0 Z " fill="#FBF4F1" transform="translate(90,114)"/>
<path d="M0 0 C0.33 0 0.66 0 1 0 C1 19.8 1 39.6 1 60 C-0.65 60 -2.3 60 -4 60 C-3.67 59.34 -3.34 58.68 -3 58 C-2.85504874 55.16952777 -2.7657712 52.35976058 -2.71875 49.52734375 C-2.70034058 48.68909561 -2.68193115 47.85084747 -2.66296387 46.98719788 C-2.58412536 43.39190678 -2.51639844 39.79642564 -2.44775391 36.20092773 C-2.39615422 33.58046838 -2.33886294 30.96017664 -2.28125 28.33984375 C-2.26767456 27.52007553 -2.25409912 26.70030731 -2.2401123 25.85569763 C-2.11282606 20.11282606 -2.11282606 20.11282606 -1 19 C-0.84379445 17.58672053 -0.74943827 16.1664541 -0.68359375 14.74609375 C-0.64169922 13.89208984 -0.59980469 13.03808594 -0.55664062 12.15820312 C-0.51732422 11.26037109 -0.47800781 10.36253906 -0.4375 9.4375 C-0.39431641 8.53580078 -0.35113281 7.63410156 -0.30664062 6.70507812 C-0.20021858 4.47021515 -0.09820012 2.23523692 0 0 Z " fill="#FBF7F3" transform="translate(51,65)"/>
<path d="M0 0 C3.63 0 7.26 0 11 0 C11 3.63 11 7.26 11 11 C7.37 11 3.74 11 0 11 C0 7.37 0 3.74 0 0 Z " fill="#FCFCF9" transform="translate(103,102)"/>
<path d="M0 0 C3.63 0 7.26 0 11 0 C11 3.63 11 7.26 11 11 C7.37 11 3.74 11 0 11 C0 7.37 0 3.74 0 0 Z " fill="#FCFBF9" transform="translate(78,102)"/>
<path d="M0 0 C3.63 0 7.26 0 11 0 C11 3.63 11 7.26 11 11 C7.37 11 3.74 11 0 11 C0 7.37 0 3.74 0 0 Z " fill="#FDFCF9" transform="translate(78,77)"/>
</svg>
