<!-- by TradingView --><svg width="56" height="56" viewBox="0 0 56 56" xmlns="http://www.w3.org/2000/svg"><path fill="url(#a)" d="M0 0h56v56H0z"/><path d="M33.23 13.01a.09.09 0 0 1 .06 0 .1.1 0 0 1 .06.03l9.63 14.34a.1.1 0 0 1 .02.08.1.1 0 0 1-.05.07l-3.27 1.89a.27.27 0 0 0-.13.23v4.54a.17.17 0 0 1-.13.16c-.34.09-.63-.06-.87-.43l-.07-.1-8.84-13.16a1.46 1.46 0 0 1-.24-.85 712.86 712.86 0 0 0 .03-4.57.18.18 0 0 1 .06-.07l3.74-2.16ZM25 17.32a.09.09 0 0 1 .06-.01c.03 0 .04.02.06.03l9.65 14.36a.1.1 0 0 1 .01.08.1.1 0 0 1-.05.07l-3.27 1.89a.27.27 0 0 0-.13.23v4.54a.17.17 0 0 1-.13.16c-.34.09-.63-.06-.87-.43l-.07-.1-8.85-13.17a1.46 1.46 0 0 1-.24-.85 857.54 857.54 0 0 0 .03-4.58.18.18 0 0 1 .06-.06L25 17.32ZM16.83 21.63a.09.09 0 0 1 .06 0c.02 0 .04.01.05.03L26.58 36a.1.1 0 0 1 0 .13.1.1 0 0 1-.03.02l-3.27 1.9a.27.27 0 0 0-.13.23v4.53a.17.17 0 0 1-.13.17c-.34.08-.63-.06-.87-.43l-.07-.1-8.84-13.17a1.46 1.46 0 0 1-.24-.85 712.86 712.86 0 0 0 .02-4.57.18.18 0 0 1 .07-.07l3.74-2.16Z" fill="#fff"/><defs><linearGradient id="a" x1="10.42" y1="9.71" x2="68.15" y2="76.02" gradientUnits="userSpaceOnUse"><stop stop-color="#1A1E21"/><stop offset="1" stop-color="#06060A"/></linearGradient></defs></svg>