<!-- by TradingView --><svg width="56" height="56" viewBox="0 0 56 56" xmlns="http://www.w3.org/2000/svg"><path fill="url(#a)" d="M0 0h56v56H0z"/><path d="M19.87 15.58a14.54 14.54 0 0 0-3.86 8.87V35.3c0 .64.16 1.1.5 1.37.37.29.8.4 1.27.31.46-.08.82-.34 1.07-.8.12-.22.18-.6.17-1.1v-9.05c0-1.2.06-2.1.18-2.72a11.48 11.48 0 0 1 8.09-8.83c.83-.23 1.72-.37 2.66-.4a11.17 11.17 0 0 1 8.6 3.4c.48.34.97.41 1.48.22.52-.2.84-.6.94-1.18.08-.41 0-.78-.24-1.09-.2-.26-.38-.47-.54-.61a14.32 14.32 0 0 0-10.81-3.78 14.18 14.18 0 0 0-9.5 4.55Zm3.14 17.66A2487.63 2487.63 0 0 0 23 26.7c0-.86.04-1.51.12-1.95a6.43 6.43 0 0 1 2.26-3.81 6.6 6.6 0 0 1 8.97.43.92.92 0 0 0 1.4-.09c.25-.3.32-.65.18-1.05-.06-.2-.26-.44-.6-.73a8.46 8.46 0 0 0-6.1-2.15 8.45 8.45 0 0 0-6.8 3.88A8.57 8.57 0 0 0 21 26.55v6.84c0 .4.03.66.1.79.16.36.46.54.88.53.41 0 .71-.19.9-.54.08-.17.13-.48.13-.93ZM40 29.26v.44c0 1.39-.04 2.4-.14 3.02a14.44 14.44 0 0 1-23.96 8.53 3.25 3.25 0 0 1-.76-.9 1.39 1.39 0 0 1-.04-1.13c.14-.38.35-.65.63-.8a1.57 1.57 0 0 1 1.52-.02c.18.09.46.31.83.67.23.22.4.38.52.47a11.25 11.25 0 0 0 7.66 2.4 11.17 11.17 0 0 0 7.83-3.78 11.17 11.17 0 0 0 2.75-5.76c.1-.57.14-1.47.15-2.72v-9.2c0-.36.13-.68.4-.97.51-.57 1.14-.66 1.88-.28.5.25.73.67.72 1.28a817 817 0 0 0 0 8.75Zm-7-5.71a577 577 0 0 0 0 6.98c0 .76-.04 1.36-.14 1.82a5.99 5.99 0 0 1-.65 1.72 6.47 6.47 0 0 1-5.82 3.49 6.37 6.37 0 0 1-4.68-1.9 1.1 1.1 0 0 0-.44-.28 1.53 1.53 0 0 0-.54-.01c-.29.04-.5.22-.63.53-.12.3-.13.59-.03.87.06.15.25.37.57.66a8.5 8.5 0 0 0 7.18 2.08 8.53 8.53 0 0 0 5.8-3.83c.5-.76.9-1.68 1.17-2.76.13-.51.2-1.18.2-2v-7.77a.79.79 0 0 0-.24-.58c-.33-.33-.66-.42-1.02-.3-.27.1-.47.27-.58.5-.1.18-.15.45-.16.78Z" fill="#fff"/><defs><linearGradient id="a" x1="28" y1="0" x2="28" y2="56" gradientUnits="userSpaceOnUse"><stop stop-color="#916EFF"/><stop offset="1" stop-color="#4460FF"/></linearGradient></defs></svg>