<!-- by TradingView --><svg width="56" height="56" viewBox="0 0 56 56" xmlns="http://www.w3.org/2000/svg"><path fill="#F0F3FA" d="M0 0h56v56H0z"/><path d="M25.6 14c.12.37.13.78.04 1.22l-3.26.01c-.09 0-.13.05-.13.14l.04.67c.01.13-.05.2-.18.2h-4.37c-.07 0-.1.03-.1.1v.97c0 .09-.05.13-.13.13h-.88l.07-1.2.83-.02c.06 0 .1-.04.1-.1v-.75c0-.1.04-.15.14-.15h4.36c.08 0 .12-.04.12-.13v-.98c0-.06.04-.1.1-.1L25.6 14Z" fill="#B7EB05"/><path d="m37.01 15.24-.09 1-3.11-.07c-.18 0-.26-.1-.26-.26v-.54c0-.1-.05-.14-.14-.14h-5.5l-2.27-.01c.1-.44.09-.85-.03-1.22l7.74.01c.14 0 .21.08.21.22v.85c0 .08.04.12.12.12l3.33.04Z" fill="#6ABE00"/><path d="m25.64 15.22 2.26.01-.06.88c0 .07-.04.11-.12.11h-4.14c-.08 0-.12.05-.12.13v.98c0 .08-.04.12-.12.12h-.92c-.11 0-.16.06-.16.17v2.14c0 .1.05.16.16.16h.92c.08 0 .12.05.12.13v.78c0 .07.04.1.11.1h.77c.08 0 .12.05.12.13v1.04l-4.26.09c-.07 0-.11.03-.13.1-.06.3-.05.59.03.88-.07.38-.07.75-.02 1.13.01.07.06.1.13.1h.9c.1 0 .15.06.15.17v.7c0 .1.05.16.15.16h.73c.08 0 .12.04.12.12v.92c0 .12.06.18.18.18h.89c.08 0 .12.04.12.13l.02.86-3.27-.02c-.1 0-.15-.05-.15-.15v-.65c0-.12-.06-.18-.18-.18h-3.03c-.15 0-.23-.08-.23-.23v-.87c0-.08-.04-.12-.13-.12h-1.87a.2.2 0 0 1-.17-.08.2.2 0 0 1-.04-.17c.05-.27.05-.52.02-.75l.89-.04c.07 0 .1-.04.1-.12v-.92c0-.1.06-.15.16-.15h1.91c.1 0 .16-.06.16-.17v-.7c0-.1.05-.16.15-.16h2.16c.07 0 .1-.03.1-.1v-.97c0-.1-.05-.16-.16-.16h-2.12c-.09 0-.13-.04-.13-.13v-.73c0-.1-.05-.16-.16-.16h-1.9c-.1 0-.17-.06-.17-.17l-.02-1.22.05-.93c0-.07.04-.1.11-.1l1.08-.05h.88c.08 0 .12-.04.12-.13v-.97c0-.07.04-.1.1-.1h4.38c.13 0 .2-.07.18-.2l-.04-.67c0-.1.04-.14.13-.14l3.26-.01Z" fill="#EDFF84"/><path d="m36.92 16.24 1.25-.04.05 1.1c0 .08.04.12.1.13.3.05.59.05.88 0l1.06.04c.07 0 .1.04.11.1l.08.91-.05 1.26c0 .12-.06.18-.18.18h-.77c-.18 0-.27.09-.27.27v.62c0 .09-.04.13-.13.13h-1.87c-.14 0-.2.07-.2.2v.92c0 .08-.04.12-.12.12h-4.28c-.16 0-.24.08-.24.24v.66c0 .07-.03.1-.1.1h-4.2c-.1 0-.14-.04-.14-.13v-.75c0-.08-.04-.11-.12-.12h-3.25a.27.27 0 0 1-.07-.08v-1.04c0-.08-.04-.12-.12-.12h-.77c-.07 0-.1-.04-.1-.11v-.78c0-.08-.05-.13-.13-.13h-.92c-.1 0-.16-.05-.16-.16v-2.14c0-.11.05-.16.16-.16h.92c.08 0 .12-.05.12-.13v-.98c0-.08.04-.13.12-.13h4.14c.08 0 .12-.04.13-.11l.05-.88h5.51c.1 0 .14.05.14.14v.54c0 .17.08.26.25.26l3.12.07Z" fill="#B7EB05"/><path d="m38.17 16.2-1.25.04.09-1h1c.1 0 .15.06.15.15l.01.81Z" fill="#559B00"/><path d="m39.15 16.22.05 1.21c-.3.05-.58.05-.88 0-.07 0-.1-.05-.1-.12l-.05-1.1.98.01ZM16.7 16.25l-.07 1.2-1.08.03c-.07 0-.1.04-.11.11l-.05.93-.81-.02c-.11 0-.17.05-.17.16v1.13c0 .07-.03.1-.1.1-.23.03-.52.03-.85.02-.15 0-.24.03-.28.1a.3.3 0 0 1 0-.12l.02-1.2c0-.11.05-.17.17-.18l.88-.05c.11 0 .16-.07.16-.18v-.7c0-.08.04-.12.13-.12h.73c.1 0 .14-.04.14-.14v-.93c0-.09.05-.13.13-.13l1.16-.01Z" fill="#6ABE00"/><path d="m41.38 18.46-.93.02-.08-.9c0-.07-.04-.1-.1-.1l-1.07-.05-.05-1.21 1.14.04c.06 0 .1.04.1.1v.98c0 .08.04.13.13.13h.74c.08 0 .12.04.12.12v.87Z" fill="#559B00"/><path d="M41.38 18.46c.09-.02.1-.01.04.03l-.01 1.44-.02.81c0 .13-.07.2-.2.2h-1.86c-.1 0-.15.05-.15.15v.87c0 .1-.05.16-.16.17l-.82.04-1.1.02c-.08 0-.12.04-.12.12v.66c0 .12-.06.18-.18.19l-2.06.01-2.28.05c-.09 0-.13.04-.13.12v.88c0 .1-.05.16-.15.16l-2.04.04H27.9c-.02 0-.05-.01-.09-.04a.3.3 0 0 0 .08-.08.2.2 0 0 0 .03-.1c0-.3-.02-.55-.04-.78-.02-.15-.1-.22-.25-.22h-2.94c-.09 0-.14-.04-.16-.13-.06-.3-.07-.6 0-.9l3.25.01c.08 0 .12.05.12.12v.75c0 .09.04.13.13.13h4.21c.07 0 .1-.03.1-.1v-.66c0-.16.08-.24.24-.24h4.28c.08 0 .12-.04.12-.12v-.91c0-.14.06-.2.2-.2h1.87c.09 0 .13-.05.13-.14v-.62c0-.18.09-.27.26-.27h.78c.12 0 .18-.06.18-.18l.05-1.26.93-.02Z" fill="#EDFF84"/><path d="m15.4 18.52.01 1.22c0 .11.06.17.18.17h1.9c.1 0 .15.05.15.16v.73c0 .09.04.13.13.13h2.13c.1 0 .16.05.16.16v.98c0 .06-.04.1-.1.1H17.8c-.1 0-.16.05-.16.15v.7c0 .11-.05.17-.16.17h-1.9c-.11 0-.16.05-.16.15v.92c0 .08-.04.12-.11.12l-.9.04-1.03-.03c-.13 0-.2-.06-.2-.19v-.87c.01-.08-.03-.12-.1-.12l-.86-.03v-1.02l.84-.04c.07 0 .11-.04.11-.12v-1.03l.01-.97c.04-.06.13-.1.28-.09.33.02.62.01.86-.01.06 0 .1-.04.1-.1v-1.13c0-.12.05-.17.16-.17l.81.02Z" fill="#B7EB05"/><path d="M43.8 21.04a1.36 1.36 0 0 0-1.15.03l-.06-1.03c0-.07-.04-.1-.11-.1H41.4l.01-1.45h1.04c.09.01.14.06.14.15v1.17c0 .07.03.1.1.1h.96c.07 0 .1.04.1.11l.04 1.02Z" fill="#437900"/><path d="M13.18 19.89a.3.3 0 0 0 0 .11l-.01.97-.96-.07.01-.84c0-.08.04-.11.11-.12l.85-.05ZM42.65 21.07l-.01 1.09-.05 2.14c0 .07-.03.1-.1.1h-.83c-.18 0-.26.1-.26.27v.63c0 .07-.04.11-.11.11l-.9-.02-.04-.87c0-.08-.04-.12-.12-.12h-.86c-.12 0-.18-.06-.18-.18v-.9c0-.1-.04-.14-.13-.14h-.68c-.08 0-.13-.04-.15-.12a1.93 1.93 0 0 1-.03-.9l.82-.03c.11 0 .16-.06.16-.17v-.87c0-.1.05-.15.15-.15h1.86c.13 0 .2-.07.2-.2l.02-.8h1.07c.07 0 .1.03.1.1l.07 1.03Z" fill="#559B00"/><path d="M13.17 20.97V22c0 .08-.04.12-.11.12l-.85.04c-.02 0-.03-.02-.03-.04l.03-1.22.96.07Z" fill="#6ABE00"/><path d="m43.8 21.04.04 1c0 .08.04.12.12.12h.85c.13 0 .19.06.19.2v2.94c0 .08-.04.12-.11.12h-.92c-.1 0-.16.05-.16.16v1.94c0 .08-.04.12-.12.12l-.98.06c-.07 0-.1.05-.1.12v2.15c0 .07-.05.12-.12.12l-.99.06c-.07 0-.11.05-.11.12V31c0 .1-.05.14-.14.14h-.7c-.1 0-.16.06-.16.17v.9c0 .09-.04.13-.13.13l-1 .05h-.01a3.5 3.5 0 0 1-.02-1.24l.96.01c.14 0 .2-.06.2-.2v-.73c0-.05.04-.08.1-.08h.68c.15 0 .22-.08.22-.23V28.9l.02-1.08c0-.09.04-.13.13-.13h.83c.17 0 .26-.1.26-.27v-.48c0-.2-.1-.3-.3-.3h-.8c-.1 0-.14.04-.14.14v.73c0 .1-.05.14-.14.14h-.7c-.08 0-.12.04-.13.1-.08.41-.08.81 0 1.2L40.36 30c0 .08-.05.11-.12.11h-.85c-.12 0-.19.06-.2.19l-.04.75c-.2.08-.42.11-.65.1-.17-.02-.27.06-.3.23-.06.36-.06.7 0 1.03l-.07.85c0 .08-.04.11-.12.11h-.76c-.2 0-.3.1-.3.31v.79c0 .08-.04.13-.12.13h-.85c-.12 0-.18.05-.19.17l-.08 1a1.8 1.8 0 0 1-.68.07.26.26 0 0 0-.21.07.27.27 0 0 0-.1.2v.56c0 .12-.05.18-.17.18h-.73c-.2 0-.3.1-.3.3v.79c0 .1-.05.14-.14.14h-.92c-.1 0-.14.05-.14.15v.9c0 .12-.06.19-.2.19h-.55c-.16 0-.24-.08-.24-.24v-.83c0-.1.05-.14.15-.14h.76c.08 0 .13-.04.13-.13V36.1c0-.17.08-.25.24-.25h.73c.15 0 .22-.08.22-.23v-1.94c0-.16.08-.24.23-.25l.72-.05c.1 0 .15-.05.17-.14l.18-.7c.02-.09.07-.13.16-.14l.57-.03c.07 0 .11-.05.12-.12l.11-.94c.01-.07.05-.1.13-.11l.77-.05c.1 0 .15-.05.17-.14l.17-.67a.17.17 0 0 1 .14-.13l.77-.14c.15-.02.22-.11.22-.26v-.61c0-.1.05-.16.14-.19l.7-.16c.06-.02.1-.06.12-.12.07-.28.09-.57.06-.9-.01-.08.03-.12.11-.12h.96c.09 0 .13-.05.12-.14-.03-.33 0-.63.11-.88l.75-.03c.1 0 .15-.05.15-.15v-.95c0-.07.04-.11.1-.11h.9c.13 0 .2-.07.2-.21v-.7c0-.07.04-.1.12-.1h.84c.17 0 .25-.1.25-.26V22.3c0-.08-.04-.11-.11-.12l-1.07-.03.01-1.08c.34-.18.73-.2 1.15-.03Z" fill="#49676A"/><path d="M12.18 22.12c0 .02.01.04.03.04l.01 1.02-.01 2.26-1.09-.03c-.08 0-.12-.05-.12-.13v-2.96c0-.1.05-.16.16-.16l1.02-.04Z" fill="#559B00"/><path d="m24.46 22.1.06.07c-.06.3-.06.6.01.9.02.09.07.13.16.13h2.94c.15 0 .23.07.24.22.03.23.05.49.05.77a.2.2 0 0 1-.03.1.3.3 0 0 1-.08.1l-3.18-.01c-.08 0-.12-.04-.13-.13l-.05-.9c0-.1-.06-.15-.16-.15l-4.2-.03a1.8 1.8 0 0 1-.02-.88c.02-.07.06-.1.13-.1l4.26-.09Z" fill="#F7F4E6"/><path d="M38.2 22.17c-.06.3-.05.6.03.89.02.08.07.12.15.12h.68c.09 0 .13.04.13.14v.9c0 .12.06.18.18.18h.86c.08 0 .12.04.12.12l.05.87-1.04.1c-.08.01-.13.06-.14.14l-.1.87c0 .04-.03.06-.06.06l-3.14.2c-.09 0-.14.04-.15.13l-.09.62c0 .05-.05.08-.12.08l-3.24.06-.02-.99.05-1.11c0-.09.05-.13.13-.13h.86c.13 0 .2-.06.2-.19v-.67c0-.08.03-.13.11-.13l.95-.06c.09 0 .14-.05.14-.15v-1.05l2.06-.01c.12 0 .18-.07.18-.19v-.66c0-.08.04-.12.11-.12l1.1-.02Z" fill="#437900"/><path d="m42.64 22.15 1.07.03c.07 0 .1.04.1.12v1.87c0 .17-.07.25-.24.25h-.84c-.08 0-.11.04-.11.11v.7c0 .14-.08.21-.22.21h-.88c-.07 0-.11.04-.11.11v.95c0 .1-.05.15-.15.15l-.75.02-1.2.04c-.08 0-.12.04-.12.13v.61c0 .08-.04.12-.12.13l-3.17.19c-.1 0-.14.05-.14.14v.7c0 .13-.07.2-.2.22l-1.84.1c-.12.02-.18.08-.18.2v1.73c0 .17-.08.26-.25.27l-.74.05c-.15 0-.23.08-.23.22v3.02c0 .12-.06.18-.17.19l-.66.04c-.1 0-.15.06-.15.17v3.1c0 .09-.05.14-.14.14l-.9.06c-.12 0-.17.07-.17.18v1.92c0 .08.04.12.12.1.4-.04.77 0 1.1.11l-.06 1.12-.98.02c-.13 0-.19.06-.19.18v.67c0 .08-.04.13-.12.13l-.87.06a1.94 1.94 0 0 1-.04-.05c.06-.36.05-.7-.02-1l.04-3.26c0-.14.07-.2.2-.22l.67-.04c.09 0 .13-.05.13-.14v-3.04c0-.15.08-.24.23-.25l.78-.04c.13-.01.19-.08.19-.21v-2.92c0-.2.1-.3.3-.31l.54-.04c.1 0 .15-.06.15-.16v-1.78c0-.15-.08-.23-.23-.23l-1.95-.03v-1.2l2.2-.04 3.24-.06c.07 0 .11-.03.12-.09l.09-.61c.01-.09.06-.13.15-.14l3.13-.19c.04 0 .07-.02.07-.06l.1-.87c.01-.08.06-.13.14-.14l1.04-.1.89.02c.07 0 .1-.04.1-.11v-.63c0-.18.1-.27.27-.27h.83c.06 0 .1-.03.1-.1l.05-2.15Z" fill="#6ABE00"/><path d="M14.42 24.42c.04.23.03.48-.02.75a.2.2 0 0 0 .05.17c.04.05.1.08.16.08h1.88c.08 0 .12.04.12.12v.87c0 .15.08.23.23.23h3.04c.11 0 .17.06.17.18v.65c0 .1.05.15.15.15l3.27.02 1.11.04c-.12.42-.12.82 0 1.2l-3.21.06c-.07 0-.1.03-.1.1v3.2c0 .1.04.14.13.14h.64c.13 0 .2.06.2.2l.02 2c-.28.07-.57.08-.87 0-.08-.01-.12-.06-.12-.14v-1.9c0-.1-.06-.16-.16-.16h-.82c-.16 0-.24-.08-.24-.24v-1.85c0-.11-.05-.17-.17-.17h-.62c-.12 0-.18-.06-.18-.17l-.05-.91c-.01-.1-.06-.16-.17-.16h-1.05c-.09 0-.13-.04-.14-.13l-.05-.85c0-.1-.06-.16-.16-.17l-1.91-.11c-.1 0-.14-.06-.14-.15v-.64c0-.09-.04-.13-.12-.13l-2.08-.08-.03-1c0-.07-.04-.12-.1-.14a1.9 1.9 0 0 0-.87-.04l.01-2.26.85.03c.08 0 .12.04.12.12v.87c0 .13.06.2.19.2l1.04.02Z" fill="#F7F4E6"/><path d="M27.81 24.38c.04.03.07.04.09.03l-.02.9c0 .07-.04.11-.12.11h-.9c-.1 0-.16.05-.16.16v.93c0 .1-.04.14-.13.14h-.74c-.06 0-.1.04-.1.1l-.01.9-1.14.03-1.11-.04-.02-.86c0-.09-.04-.13-.12-.13h-.89c-.12 0-.18-.06-.18-.18v-.92c0-.08-.04-.12-.12-.12h-.73c-.1 0-.15-.06-.15-.16v-.7c0-.1-.05-.16-.15-.16h-.9c-.07 0-.11-.04-.13-.1-.05-.39-.05-.76.02-1.14l4.2.02c.1 0 .14.05.15.15l.05.91c0 .09.05.13.14.13h3.17Z" fill="#6ABE00"/><path d="M34.74 23.17v1.05c0 .1-.05.15-.14.15l-.95.06c-.08 0-.12.05-.12.13v.67c0 .13-.06.2-.19.2h-.86c-.08 0-.12.03-.13.11l-.05 1.12-.82-.02c-.1 0-.15-.05-.15-.15v-.93c0-.09-.04-.14-.13-.14h-.92c-.08 0-.11-.03-.12-.11l-.02-.89 2.03-.04c.1 0 .16-.06.16-.16v-.88c0-.08.04-.12.12-.13l2.3-.04Z" fill="#559B00"/><path d="m30.14 24.42.02.89c0 .08.04.11.12.11h.92c.09 0 .13.05.13.14v.93c0 .1.05.15.15.16l.82.01.02 1-2.2.03-4.4-.03v-.9c.01-.07.04-.1.11-.1h.73c.1 0 .14-.05.14-.14v-.94c0-.1.05-.16.16-.16h.9c.08 0 .11-.04.12-.11l.02-.9 2.24.01ZM13.2 26.62c.01.01 0 .02-.01.04l-.96-.06-.02-1.16c.31-.06.6-.04.86.04.07.02.1.06.11.14l.03 1Z" fill="#B7EB05"/><path d="m13.19 26.66-.01 1-.82.03c-.09 0-.14-.04-.14-.14v-.95l.97.06Z" fill="#559B00"/><path d="m22.26 34.57 1.02.04c.13 0 .19.07.19.2v1.9c0 .1.05.16.16.16h.71c.09 0 .13.04.13.13v2.16c0 .1.05.16.16.16h.92c.09 0 .13.05.13.14v.71c0 .1.05.16.16.16h.73c.08 0 .12-.04.12-.13v-6.7c0-.07-.03-.1-.09-.1h-.68c-.15 0-.22-.08-.22-.23v-4.12c0-.1-.06-.16-.17-.16l-.95-.01a2.02 2.02 0 0 1 0-1.2l1.14-.02 4.4.03v1.2l-3.3.02c-.07 0-.11.04-.11.12v4.26c0 .07.03.1.1.1h.94c.1 0 .15.05.15.16v8.02l.04 1-1.2.05a.13.13 0 0 1-.07-.05 2.5 2.5 0 0 0 0-.9c-.02-.07-.06-.11-.13-.11h-.75c-.07 0-.1-.03-.1-.1v-.98c0-.1-.05-.16-.16-.16h-.9c-.1 0-.14-.04-.14-.13v-.75c0-.09-.04-.14-.14-.14h-.7c-.1 0-.16-.05-.16-.16v-.92c0-.1-.05-.15-.14-.15h-.93c-.1 0-.15-.04-.15-.14v-.94c0-.09-.04-.14-.13-.14h-.73c-.1 0-.14-.04-.14-.14V36c0-.1-.05-.16-.16-.16h-.91c-.1 0-.14-.05-.14-.14v-.87c0-.15-.07-.22-.21-.22h-.68c-.08 0-.12-.04-.12-.12v-.95c0-.08-.04-.13-.12-.13h-1.3a.4.4 0 0 0-.02-.03c.05-.29.05-.58-.01-.86-.01-.06-.05-.1-.12-.11a2.29 2.29 0 0 0-.83 0c-.04.03-.06.02-.05-.04.06-.36.05-.72-.01-1.08-.01-.07-.06-.1-.13-.1h-1.04v-.04l-.02-.88c0-.08-.05-.12-.12-.12h-.87a.1.1 0 0 1-.02-.05v-1.22c.05-.36.05-.71-.01-1.05-.01-.07-.05-.11-.12-.12-.34-.06-.7-.06-1.05 0 0-.02-.02-.03-.03-.05v-1c.02 0 .03-.02.03-.03l2.08.08c.08 0 .12.04.12.13v.64c0 .1.05.14.14.15l1.9.11c.1.01.16.06.17.17l.05.85c0 .09.05.13.14.13h1.05c.1 0 .16.06.17.16l.05.9c0 .12.06.18.18.18h.62c.12 0 .17.05.17.17v1.85c0 .16.08.24.24.24h.82c.1 0 .16.06.16.17v1.89c0 .08.04.13.12.15.3.07.6.06.87-.02Z" fill="#EDFF84"/><path d="M41.39 28.9a2.55 2.55 0 0 0-.97.06c-.08-.4-.08-.8 0-1.2.01-.07.05-.1.12-.1h.71c.1 0 .14-.05.14-.14v-.74c0-.1.05-.15.14-.15h.8c.2 0 .3.1.3.31v.48c0 .18-.09.27-.26.27h-.83c-.09 0-.13.04-.13.13l-.02 1.08ZM40.52 26.67c-.11.26-.15.56-.12.89 0 .09-.03.13-.12.13h-.96c-.08 0-.12.05-.11.14.03.32 0 .61-.06.89a.16.16 0 0 1-.13.12l-.68.16c-.1.03-.15.09-.15.19v.61c0 .15-.07.24-.22.26l-.77.14a.17.17 0 0 0-.14.13l-.17.67c-.02.09-.08.13-.16.14l-.78.05c-.07 0-.11.04-.12.11l-.11.94c-.01.07-.06.11-.13.12l-.57.03c-.09 0-.14.05-.16.14l-.17.7c-.03.09-.08.14-.18.14l-.72.05c-.15 0-.23.09-.23.24v1.95c0 .15-.07.23-.22.23h-.73c-.16 0-.24.08-.24.25v1.9c0 .08-.04.12-.13.12h-.76c-.1 0-.14.05-.14.14v.83c0 .16.07.24.23.24h.56c.13 0 .19-.07.19-.2v-.9c0-.09.05-.14.14-.14h.92c.1 0 .14-.04.14-.14v-.8c0-.2.1-.3.3-.3h.74c.11 0 .17-.05.17-.17v-.56c0-.08.03-.15.09-.2a.26.26 0 0 1 .21-.07c.23.02.46 0 .68-.07l.13.09c-.12.32-.12.65.02.99-.07-.03-.1.01-.12.11-.3-.11-.57-.13-.84-.04a.16.16 0 0 0-.12.14c-.06.35-.05.69.06 1.01-.03 0-.06 0-.09.02l-.9-.01c-.17 0-.26.07-.3.23-.06.31-.04.64.08.98-.04 0-.07.04-.1.11a2.76 2.76 0 0 0-1-.08c-.13.01-.2.1-.19.24v.5c-.06.2-.2.3-.4.28-.26-.01-.46.02-.6.1a2.37 2.37 0 0 0-1.09-.11c-.08 0-.12-.03-.12-.11V38.3c0-.11.06-.18.17-.18l.9-.06c.1 0 .14-.05.14-.14v-3.1c0-.11.05-.17.15-.17l.66-.04c.12-.01.17-.07.17-.19v-3.03c0-.13.08-.2.23-.22l.74-.04c.17-.01.25-.1.25-.27v-1.73c0-.12.06-.18.18-.2l1.84-.1c.14-.01.2-.09.2-.23v-.7c0-.08.05-.13.14-.13l3.17-.2c.08 0 .12-.04.12-.12v-.61c0-.09.04-.13.12-.13l1.2-.04Z" fill="#437900"/><path d="M14.38 28.87h-1.15l-.02-1.17c.36-.06.7-.06 1.05 0 .07 0 .1.05.12.12.06.34.06.7 0 1.05Z" fill="#B7EB05"/><path d="M13.23 28.87h1.15v1.21c-.34.07-.7.07-1.05.01-.07 0-.1-.05-.1-.12v-1.1Z" fill="#559B00"/><path d="M24.57 28.88h.96c.11.01.16.06.16.17v4.12c0 .15.08.23.23.23h.68c.06 0 .1.03.1.1v6.7c0 .09-.05.13-.13.13h-.73c-.1 0-.16-.05-.16-.16v-.71c0-.1-.04-.14-.13-.14h-.92c-.1 0-.16-.05-.16-.16V37c0-.09-.04-.13-.13-.13h-.71c-.1 0-.16-.06-.16-.17v-1.9c0-.12-.07-.19-.2-.2l-1.01-.03-.02-2c0-.13-.07-.2-.2-.2h-.65c-.08 0-.12-.04-.12-.12v-3.21c0-.07.03-.1.1-.1l3.2-.06Z" fill="#B7EB05"/><path d="m30.12 28.9 1.95.02c.15 0 .23.08.23.23v1.78c0 .1-.05.16-.15.16l-.55.04c-.2 0-.29.11-.29.31v2.92c0 .13-.06.2-.2.2l-.77.05c-.15.01-.23.1-.23.25v3.04c0 .09-.04.14-.13.14l-.66.04c-.14.01-.2.08-.2.22l-.05 3.25-1.16.02v-8.02c-.01-.1-.06-.16-.17-.16h-.94c-.06 0-.1-.03-.1-.1v-4.26c0-.08.05-.12.12-.12l3.3-.02Z" fill="#66A35B"/><path d="M41.39 28.9v1.01c0 .15-.07.23-.22.23h-.68c-.06 0-.1.03-.1.08v.73c0 .14-.06.2-.2.2l-.96-.01a.12.12 0 0 1-.08-.1l.05-.74c0-.12.07-.19.19-.19h.85c.07 0 .11-.03.12-.1l.06-1.05c.32-.09.64-.1.97-.06Z" fill="#6ABE00"/><path d="M15.42 31.14c-.3.04-.6.03-.86-.02-.07-.01-.11-.06-.12-.13l-.03-.85h.86c.08 0 .12.04.12.12l.03.88Z" fill="#B7EB05"/><path d="M39.15 31.05c.01.04.04.07.08.09-.07.38-.07.8.02 1.25l-1.05.02a2.86 2.86 0 0 1 0-1.03c.04-.17.13-.25.3-.24.23.02.45-.01.65-.1Z" fill="#437900"/><path d="M16.6 32.36h-1.05c-.08 0-.12-.03-.12-.11v-1.08h1.03c.07 0 .12.04.13.11.06.36.07.72.01 1.08ZM17.6 33.37l-.78.01c-.08 0-.12-.03-.14-.1a1.8 1.8 0 0 1-.04-.88c.29-.05.56-.05.84 0 .07 0 .1.05.12.11.06.28.06.57 0 .86Z" fill="#B7EB05"/><path d="M39.25 32.39v-.01l-.08.97-.91.06c-.05 0-.08.03-.08.08v.92c0 .14-.07.2-.2.2h-.92c-.06 0-.09.04-.09.1v1.13l-1.13.02-.13-.09.08-1c.01-.12.07-.18.19-.18h.85c.08 0 .12-.04.12-.12v-.79c0-.2.1-.3.3-.3H38c.08 0 .12-.04.13-.12l.06-.85 1.05-.02Z" fill="#6ABE00"/><path d="M39.17 33.35v1.1c0 .09-.05.13-.13.14l-.78.05c-.06 0-.1.03-.1.09v.95c0 .1-.04.14-.13.14l-1.07.02.01-1.13c0-.06.03-.1.1-.1h.9c.14 0 .21-.06.21-.2v-.92c0-.05.03-.08.08-.08l.9-.06Z" fill="#49676A"/><path d="M26.66 42.57h-.82c-.09 0-.13-.05-.14-.13l-.04-.75c0-.07-.04-.1-.1-.1l-1-.05a3.2 3.2 0 0 1-.1-1.1c0-.07-.02-.1-.09-.1h-.76c-.09 0-.13-.05-.13-.14v-.65c0-.16-.08-.24-.24-.24h-.85c-.06 0-.09-.03-.1-.08l-.05-1.02c0-.08-.05-.12-.13-.12h-.7c-.08 0-.12-.04-.13-.12l-.05-.95c-.01-.11-.07-.17-.18-.17h-.86c-.08 0-.12-.04-.12-.11l-.05-.77c0-.09-.05-.13-.14-.13h-.7c-.07 0-.1-.04-.11-.11l-.06-.98c0-.07-.04-.1-.1-.11l-1.25-.05-.03-1.2 1.3.01c.08 0 .12.05.12.13v.95c0 .08.04.12.12.12h.67c.15 0 .22.07.22.22v.87c0 .1.05.14.14.14h.91c.1 0 .16.05.16.16v.72c0 .1.04.14.13.14h.73c.1 0 .14.05.14.14v.94c0 .1.05.14.15.14h.93c.09 0 .13.05.13.15v.92c0 .1.06.16.17.16h.7c.1 0 .14.05.14.14v.75c0 .09.05.13.14.13h.9c.1 0 .16.06.16.16v.98c0 .07.03.1.1.1h.74c.08 0 .12.04.13.11.06.35.06.65 0 .9Z" fill="#B7EB05"/><path d="m17.66 34.59 1.24.05c.07 0 .1.04.11.1l.06.99c0 .07.04.1.11.1h.7c.09 0 .13.05.14.14l.04.77c0 .07.05.11.13.11h.86c.11 0 .17.06.17.17l.06.95c0 .08.05.12.13.12h.7c.08 0 .12.04.13.12l.06 1.01c0 .06.03.1.08.1h.86c.16 0 .24.07.24.23v.65c0 .09.04.13.13.13h.76c.07 0 .1.03.1.1-.04.39 0 .76.1 1.11l-.93.01c-.1 0-.14-.04-.14-.13l-.06-.98c0-.07-.04-.1-.1-.1h-.9c-.12 0-.18-.07-.18-.2v-.73c0-.07-.03-.1-.1-.1h-.8c-.07 0-.1-.04-.1-.11v-1.01c0-.07-.04-.1-.1-.1h-.98c-.09 0-.13-.05-.13-.14v-.98c0-.1-.05-.14-.14-.13l-.67.04c-.14 0-.2-.06-.2-.2v-.7c0-.1-.05-.14-.15-.14h-1.06c-.12 0-.18-.06-.17-.17v-1.08Z" fill="#559B00"/><path d="M36.96 35.84v.88c0 .08-.04.13-.12.13h-.98a1.35 1.35 0 0 1-.02-1h1.12ZM35.74 36.96v.98c0 .08-.04.12-.12.12l-.78.01c-.1-.32-.13-.66-.06-1.01a.16.16 0 0 1 .12-.14c.27-.09.55-.07.84.04ZM34.75 38.09l-.02 1.08c0 .07-.04.1-.12.1l-.98.02a1.85 1.85 0 0 1-.08-.98c.04-.16.13-.24.3-.23h.9ZM33.53 39.4v.8c0 .09-.05.13-.13.13h-.96c-.07 0-.1.04-.1.1v.97c0 .1-.05.15-.15.15h-.9l.06-1.11c.13-.08.33-.11.58-.1.22.02.35-.08.41-.29v-.5c0-.14.06-.21.2-.23.32-.03.65 0 .99.08Z" fill="#49676A"/><path d="M29.07 41.55c.07.32.08.65.02 1.01l-1.15.01-.03-1 1.16-.02Z" fill="#B7EB05"/><path d="m27.94 42.57 1.15-.01.04.05-.04 1.28c0 .07-.04.11-.11.11h-2.12c-.06 0-.1-.03-.11-.1a3.55 3.55 0 0 1-.01-1.28l1.2-.05Z" fill="#437900"/></svg>