<!-- by TradingView --><svg width="56" height="56" viewBox="0 0 56 56" xmlns="http://www.w3.org/2000/svg"><path fill="#F0F3FA" d="M0 0h56v56H0z"/><path d="M27.22 15.81a9.32 9.32 0 0 1 12.86-.45 8.67 8.67 0 0 1 .47 12.53l-11.77 12.3a9.32 9.32 0 0 1-12.86.45 8.67 8.67 0 0 1-.46-12.53l11.76-12.3Z"/><path d="M27.94 16.5a8.31 8.31 0 0 1 11.47-.4 7.67 7.67 0 0 1 .42 11.1l-5.4 5.6-11.88-10.7 5.39-5.6Z" fill="#fff"/><path d="M38.97 15.74c.15.12.3.23.44.36a7.67 7.67 0 0 1 .42 11.1l-5.4 5.6-1.63-1.47 3.04-3.29c2.5-2.72 4.42-4.44 4.42-7.7 0-1.9-.67-3.55-1.29-4.6Z" fill="#C0D4D4"/><path d="M16.18 28.8a7.67 7.67 0 0 0 .4 11.1 8.31 8.31 0 0 0 11.48-.4l5.4-5.6-11.9-10.7-5.38 5.6Z" fill="#5ECB89"/><path d="m16.18 39.5.4.4a8.32 8.32 0 0 0 11.48-.4l5.4-5.6-1.64-1.47-3.17 3.16c-2.64 2.6-4.26 4.59-7.64 4.82-1.95.14-3.7-.39-4.83-.9Z" fill="#63B48D"/><path d="M18.8 31.07c.15.1.18.3.06.45l-.26.3a.36.36 0 0 1-.47.04.3.3 0 0 1-.06-.44l.26-.3a.36.36 0 0 1 .48-.05ZM17.53 32.67c.2.04.33.22.3.41-.05.37-.1.85-.1 1.34 0 .53.06 1.05.19 1.47a.4.4 0 0 1-.21.48c-.18.08-.4 0-.47-.18a5.68 5.68 0 0 1-.24-1.77c0-.54.05-1.06.1-1.46.03-.2.23-.32.43-.29ZM19.42 37.68c.16.13.16.33 0 .46a.48.48 0 0 1-.57 0l-.73-.6c-.16-.12-.16-.32 0-.45a.48.48 0 0 1 .57 0l.73.6Z" fill="#fff"/></svg>