<!-- by TradingView --><svg width="56" height="56" viewBox="0 0 56 56" xmlns="http://www.w3.org/2000/svg"><path fill="#F0F3FA" d="M0 0h56v56H0z"/><path d="M25.93 25.87c.72 2.1 1.44 4.16 2.17 6.2.75 2.1 1.4 3.7 1.94 4.8.36.73.78 1.47 1.28 2.06.37.44.67.7.9.81.16.08.26.14.3.2a5.52 5.52 0 0 1-1.88-1.05c-.83-.7-1.47-1.28-1.93-1.77a74.6 74.6 0 0 0-3.05-3.05c-2.52-2.39-5.6-4.28-9.22-3.63-2.53.46-4.9 2.03-6.78 3.79a.56.56 0 0 1-.16.08c-.34.14-.54-.13-.5-.47a57.27 57.27 0 0 1 2.43-11.22c.79-2.3 1.93-4.85 3.75-6.46 1.25-1.1 3.02-1.56 4.54-.74.66.36 1.27.87 1.81 1.56 1.53 1.9 2.62 4.29 3.49 6.52l.91 2.37Z" fill="url(#a)"/><path d="M36.87 30.03a74.77 74.77 0 0 1 .7-4.92c.13-.8.33-1.59.58-2.36.24-.74.6-1.47 1.08-2.18.47-.28.8-.43 1.02-.45 1.65-.13 2.8 1.22 3.55 2.55a19.5 19.5 0 0 1 1.47 3.41c.7 2.15 1.28 4.63 1.72 7.43.07.43-.4.63-.67.3-.45-.55-.86-1-1.22-1.34a8.16 8.16 0 0 0-4.04-2.07c-1.38-.28-2.78-.4-4.2-.37Z" fill="url(#b)"/><path d="M39.23 20.57a8.54 8.54 0 0 0-1.08 2.18 18.2 18.2 0 0 0-.6 2.36 74.78 74.78 0 0 0-.72 5c-.1.8-.2 1.58-.32 2.37-.31 2.14-.57 3.8-1.27 5.6a3.9 3.9 0 0 1-1.12 1.56c-.47.34-1 .44-1.6.3a.93.93 0 0 0-.3-.2 3.2 3.2 0 0 1-.9-.81c-.5-.59-.92-1.33-1.28-2.06-.54-1.1-1.19-2.7-1.94-4.8a500.3 500.3 0 0 1-2.17-6.2c.31.33.67.8 1.07 1.39.34.5.78 1 1.33 1.5 1.35 1.2 2.83 1.54 4.28.26.78-.67 1.47-1.48 2.07-2.42a214.6 214.6 0 0 0 2.19-3.43 8.66 8.66 0 0 1 2.36-2.6Z" fill="#DDB1FF"/><defs><linearGradient id="a" x1="11.32" y1="23.73" x2="25.78" y2="23.73" gradientUnits="userSpaceOnUse"><stop stop-color="#0528AE"/><stop offset="1" stop-color="#343BCA"/></linearGradient><linearGradient id="b" x1="37.76" y1="22.31" x2="47" y2="24.31" gradientUnits="userSpaceOnUse"><stop stop-color="#584FDE"/><stop offset="1" stop-color="#7056EC"/></linearGradient></defs></svg>