<!-- by TradingView --><svg width="56" height="56" viewBox="0 0 56 56" xmlns="http://www.w3.org/2000/svg"><path fill="url(#a)" d="M0 0h56v56H0z"/><path d="M42.33 20.9a.03.03 0 0 1 0 .03.03.03 0 0 1-.02.02c-.5.18-.97.33-1.42.45a12.25 12.25 0 0 1-5.15.08 11.58 11.58 0 0 1-7.17-4.83.33.33 0 0 0-.33-.14c-.15.01-.22.1-.23.24a16.55 16.55 0 0 1-7.82 13.7 16.62 16.62 0 0 1-7.36 2.45.1.1 0 0 1-.09-.07 15.87 15.87 0 0 1 1.13-12.31 15.73 15.73 0 0 1 4.24-5.07c1.8-1.42 3.79-2.4 5.97-2.94 3.4-.86 6.73-.63 9.96.7a15.73 15.73 0 0 1 8.29 7.7Z" fill="url(#b)"/><path d="M13.68 35.1a.03.03 0 0 1 0-.03.03.03 0 0 1 .02-.02 12.22 12.22 0 0 1 6.57-.53c2.96.66 5.35 2.27 7.16 4.83.08.11.19.16.33.14.15-.01.23-.1.23-.24a16.55 16.55 0 0 1 7.82-13.7 16.64 16.64 0 0 1 7.35-2.45.1.1 0 0 1 .1.06 15.87 15.87 0 0 1-1.12 12.31 15.73 15.73 0 0 1-4.25 5.08 15.78 15.78 0 0 1-5.96 2.94c-3.41.86-6.73.63-9.97-.69a15.74 15.74 0 0 1-8.28-7.7Z" fill="url(#c)"/><defs><linearGradient id="a" x1="10.42" y1="9.71" x2="68.15" y2="76.02" gradientUnits="userSpaceOnUse"><stop stop-color="#1A1E21"/><stop offset="1" stop-color="#06060A"/></linearGradient><linearGradient id="b" x1="37.98" y1="10.89" x2="21.14" y2="31.77" gradientUnits="userSpaceOnUse"><stop stop-color="#2F28F1"/><stop offset=".65" stop-color="#3FC4ED"/><stop offset="1" stop-color="#44C0EE"/></linearGradient><linearGradient id="c" x1="44" y1="29.83" x2="21.62" y2="46.22" gradientUnits="userSpaceOnUse"><stop stop-color="#F50947"/><stop offset="1" stop-color="#4D6CF3"/></linearGradient></defs></svg>