<!-- by TradingView --><svg width="56" height="56" viewBox="0 0 56 56" xmlns="http://www.w3.org/2000/svg"><path fill="#F0F3FA" d="M0 0h56v56H0z"/><path d="M40 18.04V36.4L33.67 41 32 40v3.88L28 47l-4-3.12V40l-1.67 1-6.31-4.6V18.06l-.02-.02L28 9l12 9.04Z" fill="#2C2D2A"/><path d="m32 35-4 3-4-3 4-3 4 3Zm6-5.25L33.58 33 28 28.69 22.42 33 18 29.75 27.98 22l.02.02.02-.02L38 29.75Zm.03-10.04-4.43 3.25-5.57-4.3-5.58 4.3-4.42-3.25L28 11.96l.02.02.02-.02 9.98 7.75Z" fill="url(#a)"/><defs><linearGradient id="a" x1="28.03" y1="11.87" x2="28.03" y2="37.52" gradientUnits="userSpaceOnUse"><stop stop-color="#5CC1AD"/><stop offset="1" stop-color="#4D9BCC"/></linearGradient></defs></svg>