<!-- by TradingView --><svg width="56" height="56" viewBox="0 0 56 56" xmlns="http://www.w3.org/2000/svg"><path fill="#181B1E" d="M0 0h56v56H0z"/><path d="m24.95 24.55-1.4 1.04c-.41.33-.99.41-1.45.26-1.36-.43-2.59-.83-3.69-1.2a1.36 1.36 0 0 1-.81-.7c-.26-.51-.16-.9.14-1.42a11.67 11.67 0 0 1 3.12-3.49c1.27-.94 2.8-1.6 4.35-1.96.57-.14.97-.12 1.38.29.26.26.4.6.41 1v3.93c0 .5-.22.9-.65 1.22l-1.4 1.03ZM23.32 30.04l.58 1.7c.18.52.12.99-.18 1.4-.87 1.2-1.67 2.28-2.39 3.25-.25.33-.56.53-.95.59-.59.1-.95-.14-1.35-.6a11.93 11.93 0 0 1-2.98-8.96c.05-.6.2-1 .73-1.26.35-.18.72-.2 1.12-.08l3.88 1.23c.49.15.82.5.98 1.02.1.34.3.9.56 1.7ZM31.18 24.55l1.39 1.04c.42.33.87.41 1.33.26 1.36-.43 2.59-.83 3.69-1.2.37-.13.65-.36.81-.7.26-.51.16-.9-.14-1.42a11.67 11.67 0 0 0-3.12-3.49c-1.27-.94-2.8-1.6-4.35-1.96-.57-.14-.97-.12-1.38.29-.26.26-.4.6-.41 1v3.93c0 .5.22.9.65 1.22.28.2.87.54 1.53 1.03ZM32.68 30.04l-.58 1.7c-.18.52-.12.99.18 1.4.87 1.2 1.67 2.28 2.39 3.25.25.33.56.53.95.59.59.1.95-.14 1.35-.6a11.93 11.93 0 0 0 2.98-8.96c-.05-.6-.2-1-.73-1.26-.35-.18-.72-.2-1.12-.08l-3.88 1.23c-.49.15-.82.5-.98 1.02-.1.34-.3.9-.56 1.7ZM33.78 39.37a2 2 0 0 1-.71.54c-3.38 1.58-6.86 1.36-10.26-.13a1.35 1.35 0 0 1-.52-2.07l1.9-2.45c.61-.8.92-1.26 1.9-1.26h3.52c.71 0 1.2.1 1.62.63l2.47 3.17c.37.48.4 1 .08 1.57ZM24 41.8c-5.85-1.8-8.35-5.95-8.86-7.8-1.06 6.06 4.22 10 6.4 10 1.74 0 2.37-1.46 2.46-2.2ZM14.65 30.96c-.76-6.76 2.58-11.18 4.35-12.54-.1-.14-.52-.42-1.32-.42-2.72 0-5.68 5.48-5.68 9.5 0 3.21 1.77 3.65 2.65 3.46ZM32 41.8c5.85-1.8 8.35-5.95 8.86-7.8 1.06 6.06-4.22 10-6.4 10-1.74 0-2.37-1.46-2.46-2.2ZM41.35 30.96c.76-6.76-2.58-11.18-4.35-12.54.1-.14.52-.42 1.32-.42 2.72 0 5.68 5.48 5.68 9.5 0 3.21-1.77 3.65-2.65 3.46Z" fill="#73F36C"/><path d="M28 11c3.2 0 5.82 2.65 6 6a11.85 11.85 0 0 0-12 0c.18-3.35 2.8-6 6-6ZM27.14 25.54c.51-.37 1.2-.37 1.71 0l2.06 1.49c.52.37.73 1.03.54 1.63l-.79 2.41c-.2.6-.75 1-1.39 1h-2.55c-.63 0-1.19-.4-1.38-1l-.79-2.4c-.2-.6.02-1.27.53-1.64l2.06-1.5Z" fill="#73F36C"/></svg>