<!-- by TradingView --><svg width="56" height="56" viewBox="0 0 56 56" xmlns="http://www.w3.org/2000/svg"><path fill="url(#axhtdmijw)" d="M0 0h56v56H0z"/><path d="M22 13.01A16.18 16.18 0 0 0 12 28a16.2 16.2 0 0 0 10 15v-2.04c-4.85-2.28-8-7.22-8-12.96 0-5.74 3.15-10.68 8-12.96v-2.03ZM34 40.96c4.85-2.28 8-7.22 8-12.96 0-5.74-3.15-10.68-8-12.96V13a16.2 16.2 0 0 1 10 15 16.2 16.2 0 0 1-10 15v-2.04Z" fill="#fff"/><path d="M22.17 24.5 28 14.4l5.94 10.1H37V26H19v-1.5h3.17Zm2.2 0h7.12L28 18.24l-3.63 6.26ZM22.13 31.5 28 41.67l5.98-10.17H37V30H19v1.5h3.13Zm2.2 0h7.2L28 37.82l-3.67-6.32Z" fill="#fff"/><defs><linearGradient id="axhtdmijw" x1="10.42" y1="9.71" x2="68.15" y2="76.02" gradientUnits="userSpaceOnUse"><stop stop-color="#1A1E21"/><stop offset="1" stop-color="#06060A"/></linearGradient></defs></svg>