<!-- by TradingView --><svg width="56" height="56" viewBox="0 0 56 56" xmlns="http://www.w3.org/2000/svg"><path fill="#F0F3FA" d="M0 0h56v56H0z"/><path d="m42.12 35.75-.06.04-.07.05-.13.08-.01.01-.11.06-.17.1c-.37.2-.77.36-1.17.5-.38.14-.77.25-1.16.36a23.62 23.62 0 0 1-3.36.66 42.22 42.22 0 0 1-3.34.34l-.55.03-1.24.05-.23.01h-.2l.49-.6.06-.09c.35-.45.69-.92 1-1.39h.1l.62-.04.46-.03a43.06 43.06 0 0 0 4.15-.51c.72-.13 1.44-.29 2.14-.48l.47-.14.23-.07c.11.02.22.07.33.1a17.15 17.15 0 0 1 1.08.46 4.5 4.5 0 0 1 .7.47l-.03.03Z" fill="#F1ECE2"/><path d="M40.04 34.7a10.32 10.32 0 0 1-.7.2 24.39 24.39 0 0 1-3.07.63c-1.07.16-2.14.28-3.22.36l-.46.03-.61.04h-.1a31.15 31.15 0 0 0 1.5-2.46c.52.04 1.04.1 1.56.16l.12.01.69.09a35.52 35.52 0 0 1 2.07.35l.64.13a20.79 20.79 0 0 1 1.46.4c.04.02.09.02.12.06Z" fill="#FDBF41"/><path d="m22.1 40.24-.11.02c-.16.02-.31.03-.47.03h-.37l-.07-.02a.12.12 0 0 1-.07-.03l-.18-.16 1.28.16Z" fill="#F1ECE2"/><path d="m28.8 33.31-.92.01a23.18 23.18 0 0 1-2.04 2.63 17.04 17.04 0 0 1-2.02 1.88 8.24 8.24 0 0 1-2.49 1.42 5.4 5.4 0 0 1-.96.27l.07.1a4.43 4.43 0 0 0 .39.46l1.27.16a4.27 4.27 0 0 0 1.1-.3 8.8 8.8 0 0 0 2.84-1.74l.13-.1.1-.1.56-.52.22-.22a20.14 20.14 0 0 0 2.56-3.15l.21-.32.29-.46-1.31-.01Z" fill="#F1ECE2"/><path d="m26.2 33.37-.65.04a22.51 22.51 0 0 1-2.35 2.7 14.22 14.22 0 0 1-1.76 1.43 9.57 9.57 0 0 1-1.63.87v.03a4 4 0 0 0 .23.53c.09.17.19.34.3.5l.02.03.05-.02c.32-.05.63-.13.92-.24.6-.2 1.15-.5 1.67-.83a11.42 11.42 0 0 0 1.8-1.42 17.07 17.07 0 0 0 1.42-1.47c.6-.7 1.15-1.44 1.66-2.2-.56 0-1.12.03-1.67.05Z" fill="#FDBF41"/><path d="M21.25 35.48h.07c-.43.4-.88.78-1.36 1.12-.18.13-.35.25-.54.36l-.07-.44c-.06-.48-.08-.95-.08-1.43a19.72 19.72 0 0 0 1.98.39Z" fill="#F1ECE2"/><path d="m23.21 33.6-.15.02c-.5.62-1.04 1.2-1.63 1.76l-.11.1.05.02-.05-.01c-.43.4-.88.77-1.36 1.12-.18.12-.35.25-.54.35v.08l.02.07v.05l.04.14c.05.26.11.52.2.77.03.12.06.23.12.34a8.02 8.02 0 0 0 1.9-1.06 14.02 14.02 0 0 0 2.31-2.08 19.48 19.48 0 0 0 1.53-1.86c-.78.04-1.55.1-2.33.19Z" fill="#F10"/><path d="m22.73 33.66.33-.04a19.1 19.1 0 0 1-1.63 1.76l-.11.1h-.07a29.74 29.74 0 0 1-1.62-.3l-.36-.09a16.86 16.86 0 0 1 .02-.86 26.64 26.64 0 0 1 3.34-.57h.1Z" fill="#FDBF41"/><path d="m35.23 25 1.23.15h-.01l-.76-.08-.23-.02-.22-.03-.01-.02Z" fill="#007FFF"/><path d="M44.98 34.15v-1.63c-.03-.15-.08-.3-.17-.43-.14-.21-.3-.4-.52-.56a5.45 5.45 0 0 0-.68-.45c-.33-.17-.68-.33-1.02-.48l-.2-.06c-.78-.3-1.58-.52-2.4-.7a31.97 31.97 0 0 0-3.36-.61c-.41-.06-.83-.1-1.24-.15l-.55-.06a62.25 62.25 0 0 0-4.5-.26h-.1c-.65-.02-1.3-.02-1.95-.02h-.03c-.67 0-1.34.02-2.01.05h-.12a58.52 58.52 0 0 0-5.92.56l-.14.45-.12.45-.29 1.2.18-.02.23-.04.34-.05a45.12 45.12 0 0 1 4.58-.47l1.19-.05.3-.02.46-.01.29-.01 1.07-.02h.4a83.13 83.13 0 0 1 .94 0h.27a46.82 46.82 0 0 1 1.46.05h.12a53.9 53.9 0 0 1 3.15.22l.6.05a32.77 32.77 0 0 1 1.9.24l.39.06a35.65 35.65 0 0 1 3.58.76c.46.13.9.27 1.35.44l.33.13.49.23.12.06a40.05 40.05 0 0 0 .36.19c.19.12.38.24.55.38a2.89 2.89 0 0 1 .55.63l.05.1.04.11c0 .03.02.05.03.08.02-.1 0-.22 0-.33Z" fill="#F1ECE2"/><path d="M44.99 32.31V30.51c-.04-.1-.06-.22-.12-.32a2.01 2.01 0 0 0-.54-.65c-.24-.2-.51-.37-.8-.52-.4-.21-.82-.4-1.26-.55a18.35 18.35 0 0 0-2.74-.77 28.78 28.78 0 0 0-2.82-.48 40.97 40.97 0 0 0-2.22-.25c-.1-.01-.19-.03-.29-.03l-1.16-.08-.17-.02a35.57 35.57 0 0 0-1.78-.08h-.01c-.35-.02-.7-.03-1.06-.03l-.93-.01h-.41c-.55 0-1.09 0-1.63.02h-.03c-.64.02-1.27.04-1.91.08l-1.47.1-.6.06c-.68.06-1.37.14-2.06.23h-.02c-.27.7-.52 1.39-.74 2.1l-.01.04h.08a49.65 49.65 0 0 1 5.84-.55h.12c.67-.03 1.34-.05 2-.05h.04a67.56 67.56 0 0 1 3.27.05l.79.04a77.28 77.28 0 0 1 3.04.24 54.2 54.2 0 0 1 3.02.43c.53.1 1.06.2 1.58.32.82.2 1.62.42 2.4.71l.2.07c.34.15.68.3 1.02.48.24.13.46.28.68.45.21.15.38.34.52.56.09.13.13.28.17.43v-.22Z" fill="#FDBF41"/><path d="M32.9 16.78a5.54 5.54 0 0 1 .78 1.82c.07.25.12.5.16.77l.03.22.05.46.02.22a17 17 0 0 1-.38 4.6 48.39 48.39 0 0 0-1.9-.11 21.92 21.92 0 0 0 .55-3.7c.02-.55.02-1.1-.03-1.66-.03-.46-.1-.92-.2-1.37a6.56 6.56 0 0 0-.83-2.02c.1-.03.19-.03.28-.04l.14-.01H32.16l.03.01a.21.21 0 0 1 .07.05 3.83 3.83 0 0 1 .65.75Z" fill="#F1ECE2"/><path d="M31.97 18.03c.1.45.17.91.21 1.38a16.73 16.73 0 0 1-.17 3.61c-.1.59-.21 1.16-.35 1.74a36.4 36.4 0 0 0-1.53-.05h-.4a22.18 22.18 0 0 0 .7-4 12.04 12.04 0 0 0-.26-3.6 6.14 6.14 0 0 0-.23-.77c.07-.04.15-.06.22-.09a5.9 5.9 0 0 1 .94-.24l.03-.01h.02a6.56 6.56 0 0 1 .82 2.02v.01Z" fill="#FDBF41"/><path d="M44.98 36.44V34.49l-.03-.08a1.04 1.04 0 0 0-.04-.11l-.05-.1a1.67 1.67 0 0 0-.44-.54 1.43 1.43 0 0 0-.12-.1c-.17-.14-.35-.25-.54-.37l-.15-.1-.12-.05-.1-.05-.11-.06a11.57 11.57 0 0 0-2.17-.8 24.25 24.25 0 0 0-2.4-.55 31.47 31.47 0 0 0-1.58-.26 26.76 26.76 0 0 0-1.9-.24l-.6-.06h-.02l-.83-.07-.9-.07a64 64 0 0 0-.6-.03l-.8-.04h-.11l-.73-.03-.73-.02h-1.62a50.9 50.9 0 0 0-1.36.02l-.45.02-.3.01a84.11 84.11 0 0 0-3.29.22 45.97 45.97 0 0 0-2.48.3l-.34.06a9.6 9.6 0 0 0-.23.04l-.18.02c.09-.4.18-.8.29-1.2l.12-.45.14-.45.01-.06a27.27 27.27 0 0 1 5.02-9.28l.03-.05c.2-.2.38-.42.58-.63.64-.68 1.33-1.31 2.09-1.87l.57-.4.06-.01c.01-.03.04-.04.06-.05.4-.25.8-.46 1.23-.64l.05-.02h.03c.07-.04.15-.06.22-.09a5.88 5.88 0 0 1 .94-.24h.05a1.85 1.85 0 0 1 .42-.05l.12-.01H32.13l.03.01.03.01a.2.2 0 0 1 .07.04 4.03 4.03 0 0 1 .65.76 5.54 5.54 0 0 1 .77 1.82c.07.26.12.51.16.77l.03.23.05.45.02.23a17.04 17.04 0 0 1-.38 4.6h.2l1.48.14-.01-.02 1.23.15-.01.01.07.01a23.84 23.84 0 0 0 .48-3.72c0-.02-.01-.04.02-.05v-.9c-.02 0-.02-.02-.02-.04l-.02-.18a11.53 11.53 0 0 0-.41-2.7c-.04-.12-.07-.24-.12-.35l-.01-.04-.02-.05a5.88 5.88 0 0 0-.8-1.55 4.05 4.05 0 0 0-1.28-1.13c-.19-.1-.4-.18-.6-.27l-.05-.02c-.02-.02-.05-.02-.07-.03l-1.4-.6c-.05-.02-.1-.06-.17-.07H32c-.07-.03-.16-.05-.23-.09h-.03l-.02-.01a4.58 4.58 0 0 0-.78-.12h-.1a6.4 6.4 0 0 0-.77.04c-.25.03-.5.08-.74.15-.04 0-.07.02-.11.03a7.85 7.85 0 0 0-2.13.96l-.12.08-.12.07-.24.17-.12.08v.01h-.02v.02h-.01a9.66 9.66 0 0 0-.73.54l-.04.03-.22.18v.02h-.02v.01l-.02.01-.02.01v.02h-.03l-.08.09-.01.01h-.01l-.08.06v.01l-.28.25-.01.02-.1.07-.2.2-.12.1a19.77 19.77 0 0 0-1.39 1.5l-.1.12-.02.02-.02.03-.03.04-.02.03a.3.3 0 0 1-.05.04v.01h-.01c0 .03-.03.05-.05.07l-.02.02v.02l-.01.01h-.01l-.14.17v.03l-.01.01-.02.01-.01.01-.03.02v.01l-.02.02-.35.45v.01l-.02.01-.24.33-.05.06-.34.51-.18.25c-.05.09-.11.17-.18.25-.1.13-.18.28-.27.42l-.11.18a23.34 23.34 0 0 0-1.25 2.19l-.07.12-.35.7-.12.26-.16.34-.2.44a104.88 104.88 0 0 1-.19.42l-.34.83-.1.25-.21.6-.05.13-.04.12-.1.28-.11.35-.08.25c-.07.18-.14.37-.16.56l-.02.03-.07.25-.04.12-.03.12a25.01 25.01 0 0 0-.47 1.97l-.07.36-.05.33-.07.41-.05.37a22.13 22.13 0 0 0-.16 2.2v.17l.02.75v.17l.05.54.05.37v.05l.13.74a8.28 8.28 0 0 0 .86 2.3 4.43 4.43 0 0 0 1.3 1.4l.17.1.03.02.03.01a.1.1 0 0 1 .04.03v.02l.04.01c.02 0 .03 0 .04.02l.03.01h.02l.01.01.07.04 1.54.66c.26.1.51.22.78.29.27.07.54.12.82.13h.55c.14 0 .27-.02.4-.04a6.47 6.47 0 0 0 1.56-.44 11.07 11.07 0 0 0 3.02-1.9 66.36 66.36 0 0 0 3.46-.03h.03a.14.14 0 0 1 .1 0h.03a.09.09 0 0 1 .06-.02h.26a.1.1 0 0 1 .09 0h.02c.03-.02.06-.02.09 0h.02c.03-.02.06-.02.09-.01h.03l.03-.01h.03l.37-.01c.96-.06 1.92-.13 2.87-.23a39.7 39.7 0 0 0 4.32-.68c.97-.21 1.93-.47 2.85-.83.5-.2.98-.41 1.43-.7.27-.18.51-.38.71-.63.13-.16.23-.33.27-.53a.09.09 0 0 0 .02-.05c.01-.14.02-.29 0-.43Zm-18.8 1.65-.14.1a12.39 12.39 0 0 1-1.95 1.36l-.16.08a6.08 6.08 0 0 1-1.82.6l-.12.02c-.15.02-.3.04-.46.04h-.31l-.07-.01h-.07a4.78 4.78 0 0 1-.7-.75v-.02l-.01-.01-.03-.03a6.2 6.2 0 0 1-.52-1.03v-.03c-.07-.11-.1-.23-.13-.34a7.66 7.66 0 0 1-.2-.77l-.03-.14-.01-.06-.01-.06v-.08c-.04-.15-.06-.3-.08-.44a11.6 11.6 0 0 1-.06-2.29 26.66 26.66 0 0 1 3.34-.56h.03l.04-.01h.02l.34-.04.15-.02a48.55 48.55 0 0 1 5.58-.29l1.31.02-.28.45-.22.33a30.64 30.64 0 0 1-1.44 1.93l-.05.05a14.44 14.44 0 0 1-1.28 1.39l-.57.52-.1.09Zm15.98-2.37-.04.03-.06.04-.07.05-.13.08-.01.01a2.06 2.06 0 0 1-.28.15c-.37.2-.77.37-1.17.51-.38.14-.77.25-1.16.36a23.64 23.64 0 0 1-3.36.66 42.21 42.21 0 0 1-3.34.34l-.55.03-1.24.05-.23.01h-.2l.49-.6.06-.09c.34-.43.65-.87.96-1.32l.13-.18a29.53 29.53 0 0 0 1.42-2.35l1.56.15.12.02.69.08a35.53 35.53 0 0 1 2.7.5h.06a20.75 20.75 0 0 1 1.4.4c.05 0 .1 0 .13.04.11.02.22.07.33.1l.28.11a8.69 8.69 0 0 1 1.1.52c.13.07.25.15.37.24.04.03.05.04.03.06Z" fill="#007FFF"/><path d="M44.99 28.57c-.01-.23-.1-.44-.25-.63-.2-.27-.46-.48-.74-.67-.48-.32-1-.55-1.54-.76a14.32 14.32 0 0 0-2.33-.7 30.68 30.68 0 0 0-2.9-.54h-.05a.83.83 0 0 1-.13-.02l-.33-.05-.2-.03-.07-.01-.76-.09-.22-.02-.22-.03c-.5-.05-1-.1-1.48-.13l-.21-.02a47.97 47.97 0 0 0-1.9-.11l-.46-.02-1.07-.03h-.4s.25-.95.35-1.43a22.26 22.26 0 0 0 .36-2.57l.04-.82a12.11 12.11 0 0 0-.3-2.79 6.14 6.14 0 0 0-.23-.76h-.03l-.05.02c-.43.18-.84.4-1.23.64-.03 0-.05.02-.06.05.1.57.14 1.15.14 1.74.01.83-.05 1.66-.17 2.48a21.14 21.14 0 0 1-.78 3.43 48.05 48.05 0 0 0-2.71.1l-1.36.1c-.6.04-1.18.1-1.77.17a26.37 26.37 0 0 0-.96 2.14h.02c.69-.1 1.37-.18 2.07-.24l.59-.06 1.47-.1c.64-.04 1.27-.06 1.91-.08h.03c.54-.02 1.08-.02 1.63-.02H30.03l1.06.04a61.03 61.03 0 0 1 1.8.09h.16l1.16.09c.1 0 .2.02.29.03.51.04 1.03.1 1.54.16l.68.09a41.53 41.53 0 0 1 4.02.77c.52.14 1.04.3 1.54.48.44.15.86.34 1.27.56.28.14.55.31.8.51.21.19.4.4.53.65.06.1.08.21.11.32v-1.93Z" fill="#F10"/><path d="m31.78 13.35-1.53-.66-.06-.01c-.01 0-.03 0-.04-.02h-.06c-.45-.13-.9-.17-1.36-.15a5.89 5.89 0 0 0-2.3.61l-.13.06-.15.07-.2.1c-.35.19-.69.4-1.01.6l-.2.15-.04.03a16.58 16.58 0 0 0-1.6 1.28c-.99.92-1.87 1.93-2.68 3l-.06.09-.02.01-.21.3-.36.5-.33.49a43.02 43.02 0 0 0-.96 1.55v.02l-.14.24a34.67 34.67 0 0 0-1.7 3.43l-.45 1.16-.23.62-.38 1.16-.14.48v.01a25.96 25.96 0 0 0-.38 1.45l-.13.59-.02.14-.02.06v.02l-.02.11a21.54 21.54 0 0 0-.27 1.83l-.02.2v.02l-.02.12a21.73 21.73 0 0 0-.06 1v.07a16 16 0 0 0 .18 2.8l.09.43c.1.5.25.97.45 1.44l.05.1.04.1a7.87 7.87 0 0 0 .32.58 4.64 4.64 0 0 0 1.39 1.42l.09.06v.01c.02 0 .03 0 .04.02.06.01.11.06.17.08l.94.4.53.23.02-.02a5.14 5.14 0 0 1-.34-.23 4.43 4.43 0 0 1-1.13-1.27c-.18-.3-.33-.62-.46-.94v-.02a8.3 8.3 0 0 1-.52-2.09v-.05a11.48 11.48 0 0 1-.1-.9v-.17l-.02-.75V35.13l.02-.59.01-.29.02-.3.1-1.02.06-.37.06-.4.06-.33.07-.37.09-.46.12-.53.11-.47.14-.51.04-.12.03-.12.07-.25.02-.02c.03-.2.1-.38.16-.57l.08-.25.11-.35.1-.28.04-.11.05-.14.22-.6.1-.24a31.45 31.45 0 0 1 .44-1.07l.08-.18.2-.44.16-.35.13-.26a28.96 28.96 0 0 1 .41-.82l.07-.11c.35-.72.76-1.4 1.18-2.08l.11-.18.28-.41.18-.25.17-.26.35-.5.05-.07.24-.33v-.01h.01l.35-.45.02-.02v-.01l.03-.02v-.03l.02-.01.01-.01.01-.01.14-.17.01-.01v-.02h.01l.02-.02c.02-.02.05-.04.05-.07v-.01h.01a.3.3 0 0 0 .04-.04l.03-.03c0-.02.02-.03.03-.04l.02-.03.01-.02.1-.13a21.2 21.2 0 0 1 1.4-1.49l.11-.1.22-.2.08-.08.02-.01.27-.25.08-.07.02-.01.1-.09v-.01h.02l.03-.02.02-.02.01-.02.22-.18.04-.03.21-.17c.17-.13.34-.26.51-.37l.02-.01.02-.02.12-.09.24-.16.12-.07.12-.08a10.75 10.75 0 0 1 .8-.44c.43-.21.87-.4 1.33-.52l.1-.03a5.94 5.94 0 0 1 1.51-.2h.11a3.92 3.92 0 0 1 .78.13h.03l.02.01v-.03Z" fill="#F1ECE2"/><path d="M30.15 12.67c0-.03-.04-.04-.06-.05l-1.32-.56-.35-.15h-.04a4.58 4.58 0 0 0-2.5.01c-.44.12-.87.28-1.29.48l-.47.24-.15.08c-.45.26-.89.54-1.3.85-.1.08-.22.15-.31.24l-.2.15a.77.77 0 0 1-.03.03l-.04.03-.01.03h-.04v.01l-.1.1h-.01c-.09.05-.14.13-.22.18l-.2.18c-.34.3-.65.61-.97.93l-.27.3-.17.18-.42.47-.3.37-.24.29-.7.9c-.22.3-.42.61-.63.92-.2.28-.37.56-.55.85l-.2.32-.32.55c-.07.07-.1.16-.15.24l-.29.53c-.02.06-.07.1-.1.16l-.24.48c-.22.4-.4.8-.6 1.21-.2.45-.4.9-.58 1.35-.12.3-.25.6-.35.92l-.07.15-.28.82a20.12 20.12 0 0 0-.46 1.49c-.13.47-.25.95-.35 1.43l-.08.38a24.87 24.87 0 0 0-.38 2.57l-.01.12a16.23 16.23 0 0 0-.06 1.49l.01.37c0 .2.02.4.03.58l.01.22v.03l.07.56c.03.18.05.36.09.53.05.25.1.5.18.74.02.08.03.16.06.23a5.56 5.56 0 0 0 .47 1.2 4.93 4.93 0 0 0 1.45 1.7l.04.03.06.04.04.03.13.08.04.02v.01l.04.02 1.6.68.07.02-.01-.02c-.02-.03-.06-.04-.1-.06a3.85 3.85 0 0 1-.68-.53 4.64 4.64 0 0 1-.9-1.25c-.05-.07-.08-.15-.12-.22l-.04-.1-.05-.1a7.97 7.97 0 0 1-.54-1.87 11 11 0 0 1-.18-1.82v-1.04a21.28 21.28 0 0 1 .08-1.13v-.02l.02-.2a28.63 28.63 0 0 1 .27-1.83l.02-.11v-.02l.02-.06.02-.14a32.13 32.13 0 0 1 .5-2.03v-.02a22.6 22.6 0 0 1 .53-1.64 26.74 26.74 0 0 1 .69-1.78 32.61 32.61 0 0 1 1.68-3.43l.14-.24.01-.02.01-.03.02-.02.15-.26.3-.5.22-.35a43.02 43.02 0 0 1 .95-1.38l.21-.3h.01l.07-.1a22.38 22.38 0 0 1 3.8-3.93l.47-.35.04-.03.2-.14c.33-.22.67-.42 1.01-.6l.2-.1.15-.08.13-.06a5.9 5.9 0 0 1 2.3-.6c.47-.03.92.01 1.37.14.02 0 .04.02.06 0h-.01Zm-17.36 21.9v.02-.03Z" fill="#FDBF41"/><path d="m28.33 11.88-1.2-.52c-.45-.2-.92-.32-1.42-.34h-.52a7.63 7.63 0 0 0-2.79.86c-.65.35-1.25.76-1.83 1.21-.07.06-.15.11-.21.18l-.02.01-.05.04c-.64.53-1.23 1.1-1.79 1.7a29.81 29.81 0 0 0-5.37 8.55c-.39.94-.74 1.88-1.03 2.85l-.1.32a26.52 26.52 0 0 0-.91 4.5 14.77 14.77 0 0 0-.09 2.23V33.7a11.06 11.06 0 0 0 .28 2.2c.13.57.31 1.11.57 1.64.28.55.62 1.06 1.1 1.49.27.25.57.46.91.6.3.15.61.27.91.4l.63.27-.03-.03-.13-.08-.04-.03a1.24 1.24 0 0 1-.07-.04l-.04-.02a4.93 4.93 0 0 1-1.76-2.4c-.01-.03-.04-.05-.06-.07l.07.06a5.55 5.55 0 0 1-.17-.5l-.06-.23c-.08-.24-.12-.49-.17-.73l-.09-.54-.07-.56v-.03.7-.7l-.01-.22-.03-.57c0-.13-.02-.26-.01-.38a21.48 21.48 0 0 1 .05-1.49l.01-.12a24.9 24.9 0 0 1 1.28-5.87l.28-.82.07-.14c.1-.32.22-.63.35-.93.18-.45.37-.9.58-1.34.2-.41.38-.82.6-1.22l.24-.48.1-.16.28-.52c.05-.09.09-.18.15-.25.1-.19.21-.37.33-.55l.2-.32c.18-.28.35-.57.54-.85.22-.3.42-.62.65-.92a29 29 0 0 1 .69-.9l.24-.29c.1-.12.19-.25.3-.36l.42-.48.16-.17.28-.3c.31-.32.63-.64.97-.94l.2-.18c.08-.05.13-.13.21-.17l.02-.01.09-.1.02-.03.02-.01h.02l.04-.03.04-.02.19-.16.3-.24c.42-.3.86-.59 1.3-.84l.16-.08.47-.25a7.07 7.07 0 0 1 2-.6c.28-.04.57-.06.86-.04a3.82 3.82 0 0 1 .97.16c-.03-.03-.06-.03-.1-.04h.02Z" fill="#F10"/><path opacity=".48" d="M42.14 35.73c.05-.04.05-.04 0-.08a8.04 8.04 0 0 0-1.76-.87c-.1-.03-.2-.08-.32-.1-.03-.04-.08-.04-.12-.05a20.85 20.85 0 0 0-3.29-.76l-.88-.13c-.23-.03-.46-.07-.7-.08l-.11-.02a46.01 46.01 0 0 0-4.05-.3 55.66 55.66 0 0 0-7.68.25c-.16.01-.32.02-.49.06h-.1a34.66 34.66 0 0 0-3.34.57l-.01.01s-.1 1.47.13 2.9a27.16 27.16 0 0 0 2.3.43l1.56.2 1.5.14.9.06a63.04 63.04 0 0 0 6.32.01 48.43 48.43 0 0 0 5.57-.65c.96-.18 1.92-.4 2.85-.74a8.28 8.28 0 0 0 1.72-.85Z" fill="url(#aitukblsn)"/><defs><linearGradient id="aitukblsn" x1="30.77" y1="33.85" x2="30.63" y2="37.4" gradientUnits="userSpaceOnUse"><stop offset=".16" stop-color="#191919"/><stop offset=".97" stop-color="#191919" stop-opacity="0"/></linearGradient></defs></svg>