<!-- by TradingView --><svg width="56" height="56" viewBox="0 0 56 56" xmlns="http://www.w3.org/2000/svg"><path fill="url(#a)" d="M0 0h56v56H0z"/><path d="M19.77 23.38c.53.1.98.18 1.5.32.85.24 1.68.58 2.48 1l5.32 3.05 3.78 2.16.14.08c.16.12.25.33.24.55.52.18.75.9.63 1.52a1.42 1.42 0 0 0-.95-.73c-.6.02-1.2-.09-1.75-.32a3.11 3.11 0 0 0-2.09.39c-.96.54-2.05 1.73-2.93 2.54-.76.65-1.97.95-2.9.83l2.65-2.37c.09-.08.1-.22.04-.32-.07-.1-.19-.12-.27-.04l-2.6 2.33a2.6 2.6 0 0 1-2.83.37l3.41-2.46c.1-.07.12-.21.06-.32-.05-.1-.17-.13-.26-.07l-3.3 2.38-.18.13a3.3 3.3 0 0 1-3.32.26l8.91-5.25L18.5 28a4.95 4.95 0 0 1-2.66-1.94l6.08 1.09c.12.02.22-.08.24-.21.02-.13-.06-.26-.18-.28l-8.15-1.46-.14-.02a3.43 3.43 0 0 1-2.16-1.55l7.15 1.32c.12.02.22-.07.24-.2.02-.13-.06-.26-.17-.28l-9.02-1.66A4.07 4.07 0 0 1 7 21l12.77 2.38ZM49 21a3.6 3.6 0 0 1-2.25 1.76l-9.27 1.75c-.11.02-.19.14-.17.28.02.13.12.22.23.2l7.25-1.36a4.43 4.43 0 0 1-2.45 1.55l-8.04 1.51c-.11.02-.19.15-.17.28.02.13.12.22.23.2l6.19-1.16c-.54 1-1.39 1.69-2.35 1.92-2.03.43-3.89.72-5.91 1.15l-3.59-2.03 4.32-2.44a8.2 8.2 0 0 1 2.74-1.03L49 21Z" fill="#EAAC08"/><defs><linearGradient id="a" x1="10.42" y1="9.71" x2="68.15" y2="76.02" gradientUnits="userSpaceOnUse"><stop stop-color="#1A1E21"/><stop offset="1" stop-color="#06060A"/></linearGradient></defs></svg>