<!-- by TradingView --><svg width="56" height="56" viewBox="0 0 56 56" xmlns="http://www.w3.org/2000/svg"><path fill="#FAF8F3" d="M0 0h56v56H0z"/><path d="M21.84 16.18c2.49-.35 4.86-.2 7.11.47 1.54.45 2.95 1.18 4.22 2.18a11.32 11.32 0 0 1 3.05 3.63c.88 1.67 1.3 3.51 1.28 5.53-.91.01-1.83.01-2.74 0a7.66 7.66 0 0 1-2.02-.2 4.8 4.8 0 0 1-2.95-2.55 7.01 7.01 0 0 1-.42-1.17 10.87 10.87 0 0 0-1.86-3.86 4.76 4.76 0 0 0-3.56-1.97 4.18 4.18 0 0 0-3.6 1.6 7.99 7.99 0 0 0-1.6 3.78 18.7 18.7 0 0 0-.25 4.35c.02 0 .03.03.05.03h2.65c.81-.01 1.45.03 1.92.16l.32.1a4.82 4.82 0 0 1 1.85 1.16c.58.6 1 1.36 1.28 2.3a11.16 11.16 0 0 0 2.3 4.48 4.5 4.5 0 0 0 3.62 1.55c1.5-.06 2.7-.8 3.59-2.2a9.74 9.74 0 0 0 1.33-4.23 63.77 63.77 0 0 0 .13-3.32H44.13c.64.18.93.61.86 1.3-.2 1.97-.86 3.75-2.01 5.36a12.69 12.69 0 0 1-7.28 4.84c-2.96.72-5.85.66-8.66-.16a12.26 12.26 0 0 1-6.74-4.9 11.14 11.14 0 0 1-1.77-5.68 57.47 57.47 0 0 0-.08-.74L18.4 28h-6.5c-.04 0-.08-.03-.11-.04-.58-.2-.84-.63-.78-1.28a10.8 10.8 0 0 1 3.07-6.6 12.93 12.93 0 0 1 7.76-3.9Z" fill="#4E4E4E"/></svg>