<?xml version="1.0" standalone="no"?>
<!DOCTYPE svg PUBLIC "-//W3C//DTD SVG 20010904//EN"
 "http://www.w3.org/TR/2001/REC-SVG-20010904/DTD/svg10.dtd">
<svg version="1.0" xmlns="http://www.w3.org/2000/svg"
 width="1024.000000pt" height="1536.000000pt" viewBox="0 0 1024.000000 1536.000000"
 preserveAspectRatio="xMidYMid meet">

<g transform="translate(0.000000,1536.000000) scale(0.100000,-0.100000)"
fill="#000000" stroke="none">
<path d="M4768 12923 c23 -2 61 -2 85 0 23 2 4 4 -43 4 -47 0 -66 -2 -42 -4z"/>
<path d="M4668 12913 c12 -2 30 -2 40 0 9 3 -1 5 -23 4 -22 0 -30 -2 -17 -4z"/>
<path d="M4981 12905 c217 -35 331 -95 575 -304 100 -85 206 -145 274 -156 25
-4 19 0 -20 13 -91 31 -151 66 -233 139 -151 132 -223 184 -312 228 -105 51
-212 83 -305 90 -61 4 -60 4 21 -10z"/>
<path d="M4485 12885 c-388 -92 -721 -296 -1115 -686 -308 -303 -441 -401
-777 -568 -237 -119 -469 -210 -727 -287 -136 -40 -174 -54 -152 -54 23 0 333
100 471 152 182 69 432 183 568 259 231 129 356 228 642 508 94 91 220 206
280 254 263 211 572 363 854 422 64 13 103 24 86 24 -16 0 -75 -11 -130 -24z"/>
<path d="M5871 12436 c7 -7 142 -37 146 -32 3 2 -27 11 -66 20 -73 17 -87 19
-80 12z"/>
<path d="M6038 12393 c7 -3 16 -2 19 1 4 3 -2 6 -13 5 -11 0 -14 -3 -6 -6z"/>
<path d="M6140 12362 c85 -31 123 -55 169 -107 66 -75 58 -121 -59 -331 -112
-203 -299 -499 -375 -594 -38 -48 -71 -78 -99 -91 -22 -10 -35 -19 -28 -19 60
-1 145 98 307 355 106 167 265 445 288 504 36 89 11 164 -74 226 -47 35 -163
86 -192 84 -7 0 22 -12 63 -27z"/>
<path d="M4608 11299 c-335 -29 -682 -108 -958 -216 -276 -109 -514 -250 -734
-438 -70 -60 -242 -253 -310 -347 -35 -51 -54 -68 -71 -68 -42 0 -537 256
-709 368 -192 124 -380 291 -411 366 -43 103 21 193 200 283 50 24 79 41 65
38 -50 -14 -164 -76 -209 -116 -81 -71 -99 -134 -62 -215 46 -101 247 -269
506 -424 176 -104 590 -310 624 -310 23 0 35 10 63 53 78 118 252 307 378 412
260 217 626 398 1003 495 354 91 550 115 947 115 306 0 463 -12 685 -51 44 -8
89 -13 100 -13 57 3 -291 54 -468 69 -144 11 -507 11 -639 -1z"/>
<path d="M4723 10983 c76 -2 198 -2 270 0 73 1 11 3 -138 3 -148 0 -208 -2
-132 -3z"/>
<path d="M4377 10965 c-108 -14 -269 -46 -263 -52 2 -2 50 5 107 15 57 11 154
25 214 32 149 16 159 17 95 17 -30 0 -99 -5 -153 -12z"/>
<path d="M5263 10964 c76 -7 170 -18 209 -24 71 -11 109 -8 46 4 -72 13 -296
36 -343 35 -27 -1 12 -7 88 -15z"/>
<path d="M5659 10904 c58 -13 106 -22 109 -20 5 5 -171 46 -194 45 -11 0 28
-11 85 -25z"/>
<path d="M4040 10900 c-20 -6 -21 -8 -5 -8 11 0 31 4 45 8 20 6 21 8 5 8 -11
0 -31 -4 -45 -8z"/>
<path d="M3869 10851 c-325 -107 -586 -259 -889 -521 -222 -190 -395 -393
-554 -650 -100 -162 -168 -304 -249 -520 -155 -416 -223 -726 -272 -1260 -23
-249 -8 -216 -159 -331 -537 -410 -759 -645 -869 -920 -82 -205 -74 -430 23
-663 94 -225 320 -471 565 -614 75 -44 234 -116 241 -110 2 3 -32 19 -76 37
-283 117 -563 373 -692 633 -97 197 -132 429 -89 593 66 254 229 478 554 759
74 64 121 101 327 258 74 57 140 108 147 113 13 10 29 124 53 375 41 425 103
698 250 1110 196 547 531 994 1011 1347 217 160 433 273 677 353 81 27 140 49
132 49 -8 0 -67 -17 -131 -38z"/>
<path d="M5895 10836 c66 -23 149 -55 185 -71 67 -30 279 -149 378 -213 390
-248 689 -610 813 -982 21 -63 38 -109 39 -101 0 7 -16 61 -36 120 -103 308
-354 638 -664 870 -122 91 -421 269 -530 316 -97 42 -276 105 -293 104 -7 0
42 -19 108 -43z"/>
<path d="M4278 9852 c-10 -4 24 -7 75 -7 80 0 98 -4 143 -27 105 -55 166 -147
172 -261 4 -60 1 -75 -27 -132 -38 -76 -101 -136 -175 -164 -28 -11 -44 -20
-35 -20 33 -2 121 53 168 104 81 89 102 198 60 310 -25 67 -94 141 -163 175
-51 24 -182 38 -218 22z"/>
<path d="M4184 9811 c-28 -16 -63 -45 -78 -65 -31 -41 -66 -113 -65 -136 0 -8
9 8 20 36 25 66 88 138 148 169 25 13 42 24 36 24 -5 1 -33 -12 -61 -28z"/>
<path d="M4032 9533 c-3 -101 35 -177 118 -238 56 -41 136 -65 209 -64 54 2
53 2 -19 9 -180 17 -286 117 -300 280 l-7 75 -1 -62z"/>
<path d="M7315 9415 c3 -22 8 -86 12 -142 7 -123 -13 -216 -56 -259 -25 -26
-28 -26 -121 -21 l-95 5 70 -12 c78 -13 127 -7 156 20 11 10 29 49 41 87 18
61 20 85 15 181 -4 61 -11 127 -17 146 l-10 35 5 -40z"/>
<path d="M6668 9023 c39 -2 105 -2 145 0 39 1 7 3 -73 3 -80 0 -112 -2 -72 -3z"/>
<path d="M6528 9013 c12 -2 32 -2 45 0 12 2 2 4 -23 4 -25 0 -35 -2 -22 -4z"/>
<path d="M6935 9010 c28 -5 66 -8 85 -8 28 1 25 2 -15 8 -27 5 -66 8 -85 8
-28 -1 -25 -2 15 -8z"/>
<path d="M6400 8998 c-257 -55 -479 -148 -890 -374 -142 -77 -323 -154 -454
-190 -54 -16 -94 -30 -89 -31 18 -6 189 49 307 98 116 49 204 92 335 164 268
147 379 198 566 259 98 32 233 67 305 79 22 4 21 4 -5 5 -16 0 -50 -4 -75 -10z"/>
<path d="M6788 8783 c18 -2 45 -2 60 0 15 2 0 4 -33 4 -33 0 -45 -2 -27 -4z"/>
<path d="M6693 8773 c9 -2 25 -2 35 0 9 3 1 5 -18 5 -19 0 -27 -2 -17 -5z"/>
<path d="M6950 8765 c97 -17 134 -17 50 1 -36 7 -78 13 -95 12 -16 0 4 -6 45
-13z"/>
<path d="M6560 8760 c-50 -11 1 -11 60 -1 41 8 42 8 10 8 -19 0 -51 -3 -70 -7z"/>
<path d="M6488 8743 c6 -2 18 -2 25 0 6 3 1 5 -13 5 -14 0 -19 -2 -12 -5z"/>
<path d="M7107 8733 c52 -18 93 -64 94 -106 2 -28 2 -29 6 -7 7 38 -25 87 -72
110 -23 11 -48 20 -56 19 -8 0 5 -7 28 -16z"/>
<path d="M6360 8716 c-182 -56 -355 -130 -545 -234 -186 -101 -440 -229 -513
-257 -39 -16 -70 -30 -68 -32 8 -8 168 62 316 139 567 294 618 317 830 379 52
15 86 28 75 28 -11 0 -54 -10 -95 -23z"/>
<path d="M7170 8532 c-51 -116 -212 -353 -368 -539 -198 -237 -405 -401 -709
-559 l-73 -38 0 -126 c0 -142 14 -207 61 -282 62 -96 161 -169 289 -213 109
-37 110 -29 1 10 -52 19 -110 45 -131 59 -71 47 -140 124 -173 193 -31 65 -32
74 -35 216 -3 115 -1 147 9 147 20 0 244 126 334 188 258 178 461 393 666 705
82 125 163 272 157 287 -2 5 -14 -17 -28 -48z"/>
<path d="M3843 8560 c-32 -13 -68 -90 -59 -126 11 -42 71 -93 173 -146 50 -27
94 -48 99 -48 5 0 -33 22 -83 49 -119 64 -150 86 -169 123 -29 56 7 128 72
148 20 6 23 8 9 9 -11 0 -30 -4 -42 -9z"/>
<path d="M4040 8505 c208 -83 424 -137 534 -134 28 1 16 4 -34 10 -168 19
-332 64 -520 143 -47 20 -92 36 -100 36 -8 0 46 -25 120 -55z"/>
<path d="M4913 8393 c9 -2 23 -2 30 0 6 3 -1 5 -18 5 -16 0 -22 -2 -12 -5z"/>
<path d="M4760 8380 l-75 -6 65 -2 c36 0 83 3 105 7 49 11 19 11 -95 1z"/>
<path d="M8315 8302 c-85 -41 -102 -83 -131 -342 -13 -113 -24 -213 -24 -222
0 -16 -11 -18 -82 -19 -46 0 -101 -4 -123 -8 -24 -5 7 -6 80 -3 66 2 123 7
127 11 3 3 18 106 31 228 28 245 40 281 103 329 27 21 50 29 92 31 69 5 112
-15 155 -69 41 -51 44 -107 19 -283 -12 -77 -24 -167 -27 -200 -4 -33 -9 -68
-11 -77 -3 -10 -1 -18 3 -18 5 0 15 53 22 118 7 64 19 158 27 207 28 179 12
249 -67 302 -54 35 -137 42 -194 15z"/>
<path d="M4095 8224 c41 -24 147 -65 153 -59 3 2 -4 7 -14 11 -10 4 -46 18
-79 31 -84 34 -94 37 -60 17z"/>
<path d="M5185 8180 c-13 -6 -15 -9 -5 -9 8 0 22 4 30 9 18 12 2 12 -25 0z"/>
<path d="M5050 8144 c-55 -15 -69 -21 -40 -17 47 6 166 41 140 41 -8 0 -53
-11 -100 -24z"/>
<path d="M4300 8144 c25 -7 50 -13 55 -13 18 1 -59 27 -80 28 -11 0 0 -7 25
-15z"/>
<path d="M4372 8125 c13 -13 225 -34 328 -33 l115 1 -155 8 c-85 4 -182 12
-215 18 -67 12 -81 13 -73 6z"/>
<path d="M4928 8113 c6 -2 18 -2 25 0 6 3 1 5 -13 5 -14 0 -19 -2 -12 -5z"/>
<path d="M4858 8103 c12 -2 30 -2 40 0 9 3 -1 5 -23 4 -22 0 -30 -2 -17 -4z"/>
<path d="M7108 7833 c7 -3 16 -2 19 1 4 3 -2 6 -13 5 -11 0 -14 -3 -6 -6z"/>
<path d="M7206 7826 c46 -20 96 -68 168 -160 35 -45 72 -88 82 -96 27 -22 -91
126 -150 188 -51 53 -93 82 -118 82 -7 -1 1 -7 18 -14z"/>
<path d="M7052 7814 c-30 -21 -82 -93 -82 -113 0 -9 10 4 23 28 12 24 40 57
61 73 40 29 38 40 -2 12z"/>
<path d="M7825 7681 c-74 -27 -185 -84 -253 -129 l-59 -41 -23 22 -22 22 17
-27 c9 -16 21 -28 26 -28 4 0 36 20 71 44 81 56 175 103 263 132 39 13 61 23
50 23 -11 0 -42 -8 -70 -18z"/>
<path d="M6965 7645 c4 -22 17 -58 30 -81 22 -38 40 -61 125 -164 66 -80 100
-125 100 -133 0 -4 -29 -42 -64 -85 -35 -42 -90 -120 -122 -172 -58 -95 -144
-288 -144 -324 0 -17 -6 -18 -51 -13 -63 8 -60 0 4 -12 l46 -8 21 69 c45 147
172 364 293 498 l37 42 -20 26 c-10 15 -37 50 -60 77 -125 155 -164 212 -182
264 -16 49 -18 51 -13 16z"/>
<path d="M8568 7653 c7 -3 16 -2 19 1 4 3 -2 6 -13 5 -11 0 -14 -3 -6 -6z"/>
<path d="M8675 7621 c150 -52 337 -163 442 -264 l42 -40 43 33 c24 19 81 66
128 105 47 39 105 83 130 98 25 15 41 27 37 27 -20 0 -87 -43 -141 -89 -32
-29 -89 -77 -128 -107 l-69 -56 -18 24 c-26 33 -165 131 -268 189 -93 52 -230
109 -260 109 -10 -1 18 -13 62 -29z"/>
<path d="M9554 7580 c78 -14 151 -83 162 -152 16 -95 -26 -154 -218 -305 -60
-46 -108 -88 -108 -91 0 -4 17 -39 37 -77 20 -39 49 -101 65 -140 15 -38 27
-64 28 -56 0 19 -78 201 -101 233 -10 14 -19 30 -19 35 1 4 42 40 93 80 195
152 237 203 237 285 0 97 -82 187 -176 194 l-49 3 49 -9z"/>
<path d="M8063 7353 c15 -2 37 -2 50 0 12 2 0 4 -28 4 -27 0 -38 -2 -22 -4z"/>
<path d="M3984 7340 c-17 -4 -36 -10 -43 -14 -19 -12 -51 -83 -51 -113 1 -98
150 -253 402 -417 95 -62 344 -193 420 -221 27 -10 60 -29 74 -44 47 -46 38
-72 -179 -536 -116 -248 -119 -259 -107 -305 10 -37 50 -80 74 -80 6 0 -3 9
-21 20 -37 22 -56 75 -43 118 7 24 135 307 227 502 51 109 83 196 83 229 0 40
-43 80 -116 110 -89 36 -318 157 -414 219 -167 108 -336 262 -371 337 -23 49
-24 87 -4 125 38 74 95 77 264 14 68 -25 125 -43 127 -41 4 4 -237 92 -271 99
-11 2 -34 1 -51 -2z"/>
<path d="M7900 7326 c-41 -12 -103 -37 -138 -55 l-63 -32 18 -28 c110 -167
308 -451 314 -451 5 0 -28 53 -74 118 -46 64 -119 170 -162 235 -75 112 -79
120 -61 133 34 24 160 72 231 87 39 9 57 15 40 16 -16 0 -64 -10 -105 -23z"/>
<path d="M8115 7250 c-4 -50 -5 -93 -2 -96 2 -3 8 36 12 87 3 50 5 93 2 95 -3
3 -8 -36 -12 -86z"/>
<path d="M8475 7297 c-4 -14 -5 -38 -2 -53 3 -21 4 -17 6 15 1 43 1 43 31 37
79 -15 216 -96 349 -204 18 -15 30 -3 -144 -148 -71 -59 -154 -129 -183 -155
-38 -33 -60 -46 -75 -43 -21 4 -21 4 1 -7 21 -11 27 -8 70 33 26 25 116 102
200 172 84 70 151 133 149 139 -8 25 -184 147 -266 185 -121 57 -129 58 -136
29z"/>
<path d="M5646 7259 c-49 -22 -139 -56 -200 -75 -61 -19 -95 -32 -75 -29 51 8
182 51 272 91 43 19 80 34 82 34 2 0 6 -17 8 -37 3 -35 4 -34 5 10 1 26 1 47
0 46 -2 0 -43 -18 -92 -40z"/>
<path d="M4330 7232 c20 -13 213 -67 330 -93 172 -37 535 -36 648 2 22 7 20 8
-13 4 -238 -31 -448 -31 -605 0 -68 13 -274 66 -358 91 -14 5 -15 4 -2 -4z"/>
<path d="M8450 7085 c-6 -70 -10 -128 -7 -131 2 -2 10 52 17 121 7 69 11 128
8 131 -3 2 -11 -52 -18 -121z"/>
<path d="M5721 7187 c-2 -34 -49 -112 -95 -158 -46 -45 -88 -71 -196 -117 -30
-13 -43 -21 -27 -17 63 13 183 80 232 129 53 53 99 136 92 165 -4 14 -5 14 -6
-2z"/>
<path d="M8103 7095 c0 -27 2 -38 4 -22 2 15 2 37 0 50 -2 12 -4 0 -4 -28z"/>
<path d="M8086 6943 c-4 -54 -9 -109 -12 -123 -4 -24 -4 -24 5 -3 11 24 27
223 19 223 -3 0 -8 -44 -12 -97z"/>
<path d="M7418 6938 c-58 -90 -116 -211 -153 -321 -19 -57 -35 -111 -34 -118
0 -8 15 31 33 86 19 55 41 118 51 140 27 63 117 223 137 245 10 11 15 20 10
20 -5 0 -25 -24 -44 -52z"/>
<path d="M7503 6926 c18 -24 81 -114 140 -200 60 -86 114 -159 119 -163 15 -8
13 -7 -108 164 -58 81 -117 167 -132 190 -15 24 -32 45 -39 47 -7 3 2 -14 20
-38z"/>
<path d="M8425 6850 c-4 -50 -5 -93 -2 -96 2 -3 8 36 12 87 3 50 5 93 2 95 -3
3 -8 -36 -12 -86z"/>
<path d="M5305 6880 c-27 -7 -27 -8 -5 -8 14 0 36 4 50 8 20 6 21 8 5 8 -11 0
-33 -4 -50 -8z"/>
<path d="M4880 6859 c57 -7 317 -12 309 -5 -2 2 -85 5 -184 8 -99 2 -155 1
-125 -3z"/>
<path d="M5218 6863 c12 -2 30 -2 40 0 9 3 -1 5 -23 4 -22 0 -30 -2 -17 -4z"/>
<path d="M4882 6800 c82 -42 215 -90 245 -89 10 0 -12 9 -50 20 -37 10 -111
39 -164 64 -118 55 -135 58 -31 5z"/>
<path d="M8972 6695 c-131 -110 -254 -221 -231 -208 16 8 93 72 183 153 28 25
77 67 109 94 l57 48 22 -51 c11 -28 23 -50 25 -48 5 5 -38 107 -46 107 -3 0
-57 -43 -119 -95z"/>
<path d="M6505 6735 c22 -8 49 -13 60 -13 11 0 -2 6 -30 14 -63 17 -84 16 -30
-1z"/>
<path d="M6598 6713 c6 -2 18 -2 25 0 6 3 1 5 -13 5 -14 0 -19 -2 -12 -5z"/>
<path d="M5187 6699 c41 -10 41 -10 31 -40 -19 -56 -6 -106 93 -339 17 -41 46
-115 65 -165 18 -49 33 -85 34 -78 0 19 -47 146 -116 309 -69 162 -83 223 -65
275 6 18 10 34 8 35 -1 2 -23 5 -47 8 l-45 6 42 -11z"/>
<path d="M6685 6695 c28 -7 61 -13 75 -13 14 0 -2 6 -35 14 -76 17 -107 16
-40 -1z"/>
<path d="M9531 6694 c0 -11 3 -14 6 -6 3 7 2 16 -1 19 -3 4 -6 -2 -5 -13z"/>
<path d="M9540 6668 c0 -2 7 -49 15 -104 8 -54 15 -138 15 -186 l0 -88 103 2
102 2 -97 3 -98 4 0 87 c0 79 -24 269 -35 281 -3 2 -5 2 -5 -1z"/>
<path d="M9166 6585 c3 -16 12 -61 20 -100 l14 -70 -6 62 c-3 35 -12 80 -20
100 -12 31 -13 32 -8 8z"/>
<path d="M7766 6533 c-6 -14 -5 -15 5 -6 7 7 10 15 7 18 -3 3 -9 -2 -12 -12z"/>
<path d="M7736 6485 c-9 -14 -26 -26 -39 -26 -17 -1 -18 -2 -4 -6 20 -5 43 10
58 39 14 27 4 22 -15 -7z"/>
<path d="M7220 6468 c0 -5 87 -7 193 -6 193 2 170 6 -66 10 -70 2 -127 0 -127
-4z"/>
<path d="M8140 6450 c-107 -36 -175 -155 -150 -260 14 -60 65 -121 123 -148
50 -23 111 -36 102 -22 -3 6 -17 10 -31 10 -75 0 -166 79 -183 160 -14 64 -4
108 39 172 109 165 374 97 388 -100 7 -103 -50 -189 -150 -223 -31 -11 -44
-18 -30 -19 31 0 99 36 130 68 57 62 78 164 48 236 -25 59 -83 114 -139 131
-64 19 -80 19 -147 -5z"/>
<path d="M8726 6440 c20 -73 15 -70 111 -68 l88 2 -87 3 c-75 3 -88 6 -88 21
-1 9 -7 28 -16 42 l-15 25 7 -25z"/>
<path d="M2346 6392 c-111 -61 -116 -113 -26 -262 115 -191 190 -366 223 -525
9 -38 16 -59 16 -45 1 42 -48 210 -89 305 -36 80 -100 201 -185 348 -27 47
-27 49 -11 90 11 30 29 51 58 70 69 45 87 46 120 6 33 -39 38 -31 7 12 -25 36
-50 36 -113 1z"/>
<path d="M9200 6390 c0 -17 -8 -20 -67 -23 l-68 -3 73 -2 c71 -2 72 -2 72 23
0 14 -2 25 -5 25 -3 0 -5 -9 -5 -20z"/>
<path d="M8938 6373 c7 -3 16 -2 19 1 4 3 -2 6 -13 5 -11 0 -14 -3 -6 -6z"/>
<path d="M9023 6363 c9 -2 23 -2 30 0 6 3 -1 5 -18 5 -16 0 -22 -2 -12 -5z"/>
<path d="M2491 6320 c7 -14 32 -58 57 -98 62 -103 166 -322 207 -433 19 -52
34 -88 35 -81 1 46 -108 297 -204 465 -72 127 -124 208 -95 147z"/>
<path d="M9803 6283 c15 -2 37 -2 50 0 12 2 0 4 -28 4 -27 0 -38 -2 -22 -4z"/>
<path d="M9907 6260 c50 -30 66 -70 61 -158 -3 -71 -5 -76 -37 -103 -45 -37
-86 -42 -254 -34 l-142 7 -22 -73 c-12 -41 -20 -75 -18 -77 2 -2 14 28 26 68
l21 72 153 -7 c171 -8 205 -2 251 46 25 26 29 39 32 103 5 86 -14 138 -59 161
-41 22 -49 18 -12 -5z"/>
<path d="M5000 6215 c-7 -8 -70 -131 -140 -273 -140 -281 -176 -330 -243 -333
-30 -2 -30 -2 -4 -6 37 -6 88 27 122 78 14 23 83 153 151 290 68 137 128 249
134 249 15 0 29 -32 91 -210 32 -91 58 -160 58 -153 1 13 -99 302 -119 346
-15 30 -31 34 -50 12z"/>
<path d="M7211 6113 c2 -24 2 -25 6 -5 l4 22 234 0 c200 0 234 -2 238 -15 4
-11 4 -10 3 2 -1 17 -20 18 -244 21 l-242 2 1 -27z"/>
<path d="M7701 6078 c-1 -9 -22 -34 -48 -55 -27 -21 -106 -88 -178 -149 -71
-61 -137 -113 -145 -116 -7 -2 -10 -7 -5 -10 6 -3 87 59 180 139 205 174 209
177 202 194 -4 10 -6 9 -6 -3z"/>
<path d="M7221 6054 c1 -16 5 -40 9 -54 6 -17 7 -9 3 25 -6 56 -14 74 -12 29z"/>
<path d="M5410 6055 c0 -5 9 -39 20 -75 29 -92 57 -226 65 -301 5 -53 2 -71
-14 -103 -19 -37 -19 -38 -1 -21 28 25 34 74 20 167 -18 124 -88 385 -90 333z"/>
<path d="M8706 6034 c-9 -24 -7 -31 5 -11 9 16 24 18 130 16 66 -1 123 1 126
5 4 3 -52 6 -124 6 -110 0 -132 -3 -137 -16z"/>
<path d="M9088 6033 l73 -4 -6 -30 c-8 -34 -47 -134 -77 -194 -39 -79 -123
-204 -138 -207 -11 -3 -12 -6 -3 -11 31 -20 206 299 228 416 l7 37 -78 -2 -79
-2 73 -3z"/>
<path d="M8676 5965 l-16 -37 94 -116 c51 -64 112 -137 136 -162 53 -57 22
-16 -113 149 l-107 132 16 30 c8 17 13 33 10 36 -3 3 -12 -11 -20 -32z"/>
<path d="M7246 5940 c4 -19 13 -46 21 -60 l14 -25 -7 25 c-4 14 -13 41 -20 60
l-14 35 6 -35z"/>
<path d="M5170 5833 c0 -19 50 -153 82 -216 18 -36 41 -65 61 -77 33 -20 101
-26 125 -11 7 4 -11 6 -41 3 -47 -4 -57 -1 -85 23 -39 33 -64 79 -108 200 -18
50 -33 85 -34 78z"/>
<path d="M9462 5758 c-12 -28 -20 -53 -18 -55 2 -2 13 19 25 48 12 28 21 53
19 55 -3 2 -14 -20 -26 -48z"/>
<path d="M7815 5708 c-107 -96 -292 -270 -235 -223 25 21 67 59 94 84 27 25
65 58 83 72 52 42 155 139 146 138 -4 0 -44 -32 -88 -71z"/>
<path d="M7950 5746 c14 -8 27 -12 29 -10 6 6 -1 11 -29 18 l-25 7 25 -15z"/>
<path d="M8354 5730 c-19 -7 -22 -20 -28 -100 -4 -50 -6 -94 -3 -96 3 -3 8 36
12 86 7 85 9 92 33 103 21 10 27 9 39 -10 8 -11 50 -67 95 -124 44 -57 97
-129 118 -159 21 -31 46 -62 56 -70 20 -17 -17 36 -121 173 -176 233 -158 215
-201 197z"/>
<path d="M6930 5710 c-8 -5 -72 -33 -142 -60 -242 -96 -454 -137 -663 -128
-81 4 -100 2 -70 -4 22 -6 105 -7 185 -4 163 6 287 31 458 90 102 36 276 114
257 115 -5 0 -17 -4 -25 -9z"/>
<path d="M7963 5670 c0 -25 2 -35 4 -22 2 12 2 32 0 45 -2 12 -4 2 -4 -23z"/>
<path d="M6960 5697 c0 -11 36 -81 78 -151 30 -50 33 -60 19 -67 -16 -9 -241
-203 -281 -242 -77 -75 -91 -157 -40 -231 30 -42 102 -87 139 -85 13 0 8 4
-14 10 -86 25 -141 91 -141 170 0 71 32 110 240 284 58 49 109 92 114 96 4 4
-10 38 -32 76 -22 37 -49 86 -61 108 -11 22 -20 36 -21 32z"/>
<path d="M2796 5660 c3 -19 12 -71 20 -115 l14 -80 -6 72 c-3 40 -12 92 -19
115 -13 39 -14 40 -9 8z"/>
<path d="M9400 5628 c-18 -35 -62 -105 -98 -157 -36 -52 -60 -91 -54 -87 30
18 200 291 189 302 -3 3 -19 -23 -37 -58z"/>
<path d="M7941 5483 c-23 -256 -20 -245 -50 -238 -57 14 -192 87 -260 141 -40
31 -74 54 -77 52 -2 -3 31 -31 73 -63 78 -58 216 -130 271 -141 29 -6 30 -5
35 48 14 116 29 329 25 334 -3 2 -10 -58 -17 -133z"/>
<path d="M5996 5529 c-2 -8 -14 -68 -26 -134 -12 -66 -35 -176 -51 -244 -16
-68 -27 -126 -25 -128 2 -2 16 47 31 109 34 141 85 402 79 407 -2 2 -6 -2 -8
-10z"/>
<path d="M2560 5431 c0 -118 -13 -182 -54 -266 -93 -187 -304 -342 -561 -411
-86 -23 -120 -27 -240 -27 -124 0 -149 4 -221 27 -138 44 -187 92 -164 161 18
55 44 79 153 146 113 70 263 174 272 189 3 6 -1 10 -10 10 -9 0 -14 -4 -10
-10 5 -8 -164 -124 -326 -225 -61 -38 -94 -87 -94 -141 0 -70 45 -102 210
-151 92 -27 303 -23 415 7 158 43 249 85 376 176 107 76 206 203 240 311 15
48 32 293 20 293 -3 0 -6 -40 -6 -89z"/>
<path d="M8300 5365 c-7 -80 -10 -148 -8 -151 3 -2 11 61 18 141 7 80 11 148
8 150 -3 3 -11 -60 -18 -140z"/>
<path d="M2820 5387 c0 -138 -61 -312 -153 -433 -52 -68 -166 -171 -274 -246
-91 -63 -122 -116 -100 -170 8 -19 54 -88 103 -154 131 -175 146 -198 230
-328 206 -321 279 -564 228 -760 -32 -123 -101 -226 -298 -443 -244 -268 -352
-451 -417 -703 -69 -268 27 -641 177 -690 77 -26 135 7 223 126 116 159 191
206 487 303 212 69 313 115 456 209 191 126 362 325 439 510 17 43 32 78 33
79 1 2 39 -42 85 -96 118 -141 215 -219 363 -291 49 -23 93 -40 100 -38 6 2
-11 12 -38 22 -69 26 -168 82 -236 133 -50 38 -134 125 -246 253 l-30 35 -22
-50 c-73 -173 -150 -284 -281 -409 -156 -150 -369 -268 -634 -351 -308 -97
-363 -133 -503 -325 -87 -120 -177 -141 -254 -58 -44 48 -70 102 -101 205 -19
67 -22 101 -21 238 0 143 3 169 27 246 69 227 199 433 421 668 239 253 303
382 293 587 -6 123 -51 267 -132 419 -63 118 -222 359 -353 533 -77 104 -92
130 -92 161 0 20 7 46 15 58 8 12 66 60 129 107 207 156 315 298 360 477 24
93 38 249 24 249 -5 0 -8 -33 -8 -73z"/>
<path d="M9202 5337 l-33 -34 23 -29 c12 -16 57 -69 99 -119 118 -139 129
-158 129 -224 0 -104 -72 -181 -170 -181 -71 0 -98 22 -248 201 -34 42 -75 88
-91 103 l-29 28 -69 -40 c-198 -115 -384 -181 -510 -182 l-43 0 2 -42 1 -43 4
38 c4 36 5 37 47 37 109 0 311 72 485 172 46 26 85 48 87 48 1 0 57 -64 123
-142 132 -155 173 -188 238 -188 108 0 183 79 183 193 0 64 -4 71 -148 246
l-102 125 32 33 c17 18 30 33 27 33 -3 0 -20 -15 -37 -33z"/>
<path d="M8605 5291 c-49 -25 -128 -55 -175 -67 -47 -13 -77 -23 -66 -24 41
-1 147 34 244 80 56 27 102 51 102 54 0 9 -10 5 -105 -43z"/>
<path d="M7210 5129 c-169 -145 -224 -187 -260 -197 -32 -9 -32 -10 -8 -11 34
-1 131 72 301 226 l59 54 56 -49 c168 -143 335 -229 501 -257 43 -7 43 -7 38
-44 -4 -20 -12 -111 -18 -202 -14 -181 -9 -221 32 -273 50 -63 162 -85 245
-47 31 14 45 28 57 60 18 44 48 266 46 341 -1 25 -7 -13 -15 -85 -17 -173 -30
-243 -50 -272 -35 -55 -146 -70 -224 -30 -34 17 -51 34 -69 71 l-25 49 13 167
c6 92 14 190 17 216 l6 49 -81 17 c-152 31 -299 107 -438 226 -47 39 -86 72
-87 72 -1 0 -44 -37 -96 -81z"/>
<path d="M8303 5193 c9 -2 23 -2 30 0 6 3 -1 5 -18 5 -16 0 -22 -2 -12 -5z"/>
<path d="M5862 4934 c-13 -42 -21 -78 -19 -80 2 -3 14 30 27 72 12 41 20 77
18 79 -2 3 -14 -30 -26 -71z"/>
<path d="M5822 4803 c-15 -48 -8 -55 8 -8 7 20 10 38 8 41 -3 2 -10 -13 -16
-33z"/>
<path d="M5775 4673 c-104 -295 -250 -569 -450 -848 -118 -164 -218 -281 -401
-467 -131 -133 -143 -148 -125 -158 11 -5 26 -10 33 -9 7 0 2 5 -13 10 -24 9
-22 13 111 147 294 298 489 559 672 902 72 134 216 485 205 497 -2 2 -17 -31
-32 -74z"/>
<path d="M4858 3183 c7 -3 16 -2 19 1 4 3 -2 6 -13 5 -11 0 -14 -3 -6 -6z"/>
<path d="M4900 3172 c8 -5 26 -13 40 -16 17 -5 20 -4 10 2 -8 5 -26 13 -40 16
-17 5 -20 4 -10 -2z"/>
<path d="M5045 3112 c380 -184 673 -497 751 -802 20 -81 15 -185 -12 -231 -24
-40 -67 -67 -126 -78 -40 -8 -40 -9 -10 -10 68 -2 142 55 161 124 34 125 -15
300 -137 485 -72 109 -248 285 -372 372 -94 67 -262 160 -310 172 -14 4 11
-10 55 -32z"/>
<path d="M4540 2250 c31 -14 214 -44 389 -65 259 -30 387 -62 556 -139 55 -25
107 -46 115 -46 8 0 -10 11 -40 24 -30 12 -82 35 -114 50 -122 57 -276 94
-511 121 -115 13 -325 45 -395 60 l-25 6 25 -11z"/>
</g>
</svg>
