<svg xmlns="http://www.w3.org/2000/svg" width="1440" height="900" viewBox="0 0 1440 900"><rect width="100%" height="100%" fill="#0B0F14"/><text x="60" y="90" font-family="Inter" font-size="40" fill="#E6EDF3" font-weight="700">Whaleer DataFrame Yapısı</text><text x="60" y="126" font-family="Inter" font-size="20" fill="#9FB2C7">Stratejiniz pandas DataFrame (df) üzerinde çalışır — sütunlar ve çıktılar</text>
<defs>
  <marker id="arrow" markerWidth="10" markerHeight="10" refX="6" refY="3" orient="auto">
    <path d="M0,0 L0,6 L6,3 z" fill="#8BD1FF"/>
  </marker>
</defs>
<rect x="50" y="270" width="1280" height="212" rx="16" fill="#0F1720" stroke="#2A3A4A"/><rect x="60" y="280" width="1260" height="48" fill="#0D2230"/><line x1="60" y1="280" x2="60" y2="472" stroke="#2A3A4A"/><text x="72" y="310" font-family="Inter" font-size="16" fill="#8BD1FF" font-weight="600">timestamp</text><line x1="240" y1="280" x2="240" y2="472" stroke="#2A3A4A"/><text x="252" y="310" font-family="Inter" font-size="16" fill="#8BD1FF" font-weight="600">open</text><line x1="360" y1="280" x2="360" y2="472" stroke="#2A3A4A"/><text x="372" y="310" font-family="Inter" font-size="16" fill="#8BD1FF" font-weight="600">high</text><line x1="480" y1="280" x2="480" y2="472" stroke="#2A3A4A"/><text x="492" y="310" font-family="Inter" font-size="16" fill="#8BD1FF" font-weight="600">low</text><line x1="600" y1="280" x2="600" y2="472" stroke="#2A3A4A"/><text x="612" y="310" font-family="Inter" font-size="16" fill="#8BD1FF" font-weight="600">close</text><line x1="720" y1="280" x2="720" y2="472" stroke="#2A3A4A"/><text x="732" y="310" font-family="Inter" font-size="16" fill="#8BD1FF" font-weight="600">volume</text><line x1="840" y1="280" x2="840" y2="472" stroke="#2A3A4A"/><text x="852" y="310" font-family="Inter" font-size="16" fill="#8BD1FF" font-weight="600">position</text><line x1="960" y1="280" x2="960" y2="472" stroke="#2A3A4A"/><text x="972" y="310" font-family="Inter" font-size="16" fill="#8BD1FF" font-weight="600">percentage</text><line x1="1080" y1="280" x2="1080" y2="472" stroke="#2A3A4A"/><text x="1092" y="310" font-family="Inter" font-size="16" fill="#8BD1FF" font-weight="600">take_profit</text><line x1="1200" y1="280" x2="1200" y2="472" stroke="#2A3A4A"/><text x="1212" y="310" font-family="Inter" font-size="16" fill="#8BD1FF" font-weight="600">stop_loss</text><line x1="1320" y1="280" x2="1320" y2="472" stroke="#2A3A4A"/><rect x="60" y="328" width="1260" height="48" fill="#0C1A24"/><line x1="60" y1="328" x2="1320" y2="328" stroke="#2A3A4A"/><text x="72" y="358" font-family="Inter" font-size="16" fill="#E6EDF3">2023-10-11 16:00:00</text><text x="252" y="358" font-family="Inter" font-size="16" fill="#E6EDF3">27150.2</text><text x="372" y="358" font-family="Inter" font-size="16" fill="#E6EDF3">27312.0</text><text x="492" y="358" font-family="Inter" font-size="16" fill="#E6EDF3">27088.1</text><text x="612" y="358" font-family="Inter" font-size="16" fill="#E6EDF3">27205.7</text><text x="732" y="358" font-family="Inter" font-size="16" fill="#E6EDF3">152.3</text><text x="852" y="358" font-family="Inter" font-size="16" fill="#7EE787">1</text><text x="972" y="358" font-family="Inter" font-size="16" fill="#E6EDF3">100</text><text x="1092" y="358" font-family="Inter" font-size="16" fill="#FFD580">27500</text><text x="1212" y="358" font-family="Inter" font-size="16" fill="#FFD580">26900</text><rect x="60" y="376" width="1260" height="48" fill="#0B1620"/><line x1="60" y1="376" x2="1320" y2="376" stroke="#2A3A4A"/><text x="72" y="406" font-family="Inter" font-size="16" fill="#E6EDF3">2023-10-11 16:01:00</text><text x="252" y="406" font-family="Inter" font-size="16" fill="#E6EDF3">27205.7</text><text x="372" y="406" font-family="Inter" font-size="16" fill="#E6EDF3">27280.0</text><text x="492" y="406" font-family="Inter" font-size="16" fill="#E6EDF3">27100.4</text><text x="612" y="406" font-family="Inter" font-size="16" fill="#E6EDF3">27120.1</text><text x="732" y="406" font-family="Inter" font-size="16" fill="#E6EDF3">131.8</text><text x="852" y="406" font-family="Inter" font-size="16" fill="#9FB2C7">0</text><text x="972" y="406" font-family="Inter" font-size="16" fill="#9FB2C7">0</text><text x="1092" y="406" font-family="Inter" font-size="16" fill="#9FB2C7"></text><text x="1212" y="406" font-family="Inter" font-size="16" fill="#9FB2C7"></text><rect x="60" y="424" width="1260" height="48" fill="#0C1A24"/><line x1="60" y1="424" x2="1320" y2="424" stroke="#2A3A4A"/><text x="72" y="454" font-family="Inter" font-size="16" fill="#E6EDF3">2023-10-11 16:02:00</text><text x="252" y="454" font-family="Inter" font-size="16" fill="#E6EDF3">27120.1</text><text x="372" y="454" font-family="Inter" font-size="16" fill="#E6EDF3">27290.6</text><text x="492" y="454" font-family="Inter" font-size="16" fill="#E6EDF3">27105.2</text><text x="612" y="454" font-family="Inter" font-size="16" fill="#E6EDF3">27240.0</text><text x="732" y="454" font-family="Inter" font-size="16" fill="#E6EDF3">118.6</text><text x="852" y="454" font-family="Inter" font-size="16" fill="#7EE787">2</text><text x="972" y="454" font-family="Inter" font-size="16" fill="#E6EDF3">100</text><text x="1092" y="454" font-family="Inter" font-size="16" fill="#FFD580">27550</text><text x="1212" y="454" font-family="Inter" font-size="16" fill="#FFD580">26980</text><line x1="60" y1="472" x2="1320" y2="472" stroke="#2A3A4A"/><path d="M 860 337.6 C 840 328.0, 840 240, 830 220" stroke="#7EE787" stroke-width="2" fill="none" marker-end="url(#arrow)"/><rect x="870" y="180" width="400" height="70" rx="12" fill="#0F1720" stroke="#7EE787"/><text x="890" y="210" font-family="Inter" font-size="18" fill="#E6EDF3" font-weight="600">position</text><text x="890" y="230" font-family="Inter" font-size="14" fill="#9FB2C7">Yön ve kaldıraç büyüklüğü: 1=long, -1=short, 2=2x long</text><path d="M 980 400.0 C 980 424, 980 448.0, 1020 462.4" stroke="#8BD1FF" stroke-width="2" fill="none" marker-end="url(#arrow)"/><rect x="1040" y="438.4" width="420" height="70" rx="12" fill="#0F1720" stroke="#8BD1FF"/><text x="1060" y="452.8" font-family="Inter" font-size="18" fill="#E6EDF3" font-weight="600">percentage</text><text x="1060" y="472.8" font-family="Inter" font-size="14" fill="#9FB2C7">% cinsinden işlem büyüklüğü — genelde 100</text><rect x="60" y="710" width="1320" height="110" rx="16" fill="#0F1720" stroke="#2A3A4A"/><text x="80" y="750" font-family="Inter" font-size="18" fill="#E6EDF3" font-weight="600">commission (0–1 arası)</text><text x="80" y="780" font-family="Inter" font-size="14" fill="#9FB2C7">Komisyon ayrı değişken olarak verilir, simülasyonda işlem maliyetine uygulanır.</text></svg>