<svg xmlns="http://www.w3.org/2000/svg" width="1440" height="980" viewBox="0 0 1440 980"><rect width="100%" height="100%" fill="#0B0F14"/><text x="60" y="90" font-family="Inter" font-size="40" fill="#E6EDF3" font-weight="700">Whaleer DataFrame Yapısı</text><text x="60" y="126" font-family="Inter" font-size="20" fill="#9FB2C7">Stratejiniz pandas DataFrame (df) üzerinde çalışır — sütunlar ve çıktılar</text><rect x="50" y="250" width="1300" height="308" rx="16" fill="#0F1720" stroke="#2A3A4A"/><rect x="60" y="260" width="1280" height="48" fill="#0D2230"/><line x1="60" y1="260" x2="60" y2="548" stroke="#2A3A4A"/><text x="72" y="290" font-family="Inter" font-size="16" fill="#8BD1FF" font-weight="600">timestamp</text><line x1="260" y1="260" x2="260" y2="548" stroke="#2A3A4A"/><text x="272" y="290" font-family="Inter" font-size="16" fill="#8BD1FF" font-weight="600">open</text><line x1="380" y1="260" x2="380" y2="548" stroke="#2A3A4A"/><text x="392" y="290" font-family="Inter" font-size="16" fill="#8BD1FF" font-weight="600">high</text><line x1="500" y1="260" x2="500" y2="548" stroke="#2A3A4A"/><text x="512" y="290" font-family="Inter" font-size="16" fill="#8BD1FF" font-weight="600">low</text><line x1="620" y1="260" x2="620" y2="548" stroke="#2A3A4A"/><text x="632" y="290" font-family="Inter" font-size="16" fill="#8BD1FF" font-weight="600">close</text><line x1="740" y1="260" x2="740" y2="548" stroke="#2A3A4A"/><text x="752" y="290" font-family="Inter" font-size="16" fill="#8BD1FF" font-weight="600">volume</text><line x1="860" y1="260" x2="860" y2="548" stroke="#2A3A4A"/><text x="872" y="290" font-family="Inter" font-size="16" fill="#8BD1FF" font-weight="600">position</text><line x1="980" y1="260" x2="980" y2="548" stroke="#2A3A4A"/><text x="992" y="290" font-family="Inter" font-size="16" fill="#8BD1FF" font-weight="600">percentage</text><line x1="1100" y1="260" x2="1100" y2="548" stroke="#2A3A4A"/><text x="1112" y="290" font-family="Inter" font-size="16" fill="#8BD1FF" font-weight="600">take_profit</text><line x1="1220" y1="260" x2="1220" y2="548" stroke="#2A3A4A"/><text x="1232" y="290" font-family="Inter" font-size="16" fill="#8BD1FF" font-weight="600">stop_loss</text><line x1="1340" y1="260" x2="1340" y2="548" stroke="#2A3A4A"/><rect x="60" y="308" width="1280" height="48" fill="#0C1A24"/><line x1="60" y1="308" x2="1340" y2="308" stroke="#2A3A4A"/><text x="72" y="338" font-family="Inter" font-size="16" fill="#E6EDF3">2023-10-11 16:00:00</text><text x="272" y="338" font-family="Inter" font-size="16" fill="#E6EDF3">27150.2</text><text x="392" y="338" font-family="Inter" font-size="16" fill="#E6EDF3">27312.0</text><text x="512" y="338" font-family="Inter" font-size="16" fill="#E6EDF3">27088.1</text><text x="632" y="338" font-family="Inter" font-size="16" fill="#E6EDF3">27205.7</text><text x="752" y="338" font-family="Inter" font-size="16" fill="#E6EDF3">152.3</text><text x="872" y="338" font-family="Inter" font-size="16" fill="#7EE787">1</text><text x="992" y="338" font-family="Inter" font-size="16" fill="#E6EDF3">100</text><text x="1112" y="338" font-family="Inter" font-size="16" fill="#FFD580">27500</text><text x="1232" y="338" font-family="Inter" font-size="16" fill="#FFD580">26900</text><rect x="60" y="356" width="1280" height="48" fill="#0B1620"/><line x1="60" y1="356" x2="1340" y2="356" stroke="#2A3A4A"/><text x="72" y="386" font-family="Inter" font-size="16" fill="#E6EDF3">2023-10-11 16:01:00</text><text x="272" y="386" font-family="Inter" font-size="16" fill="#E6EDF3">27205.7</text><text x="392" y="386" font-family="Inter" font-size="16" fill="#E6EDF3">27280.0</text><text x="512" y="386" font-family="Inter" font-size="16" fill="#E6EDF3">27100.4</text><text x="632" y="386" font-family="Inter" font-size="16" fill="#E6EDF3">27120.1</text><text x="752" y="386" font-family="Inter" font-size="16" fill="#E6EDF3">131.8</text><text x="872" y="386" font-family="Inter" font-size="16" fill="#9FB2C7">0</text><text x="992" y="386" font-family="Inter" font-size="16" fill="#9FB2C7">0</text><text x="1112" y="386" font-family="Inter" font-size="16" fill="#9FB2C7"></text><text x="1232" y="386" font-family="Inter" font-size="16" fill="#9FB2C7"></text><rect x="60" y="404" width="1280" height="48" fill="#0C1A24"/><line x1="60" y1="404" x2="1340" y2="404" stroke="#2A3A4A"/><text x="72" y="434" font-family="Inter" font-size="16" fill="#E6EDF3">2023-10-11 16:02:00</text><text x="272" y="434" font-family="Inter" font-size="16" fill="#E6EDF3">27120.1</text><text x="392" y="434" font-family="Inter" font-size="16" fill="#E6EDF3">27290.6</text><text x="512" y="434" font-family="Inter" font-size="16" fill="#E6EDF3">27105.2</text><text x="632" y="434" font-family="Inter" font-size="16" fill="#E6EDF3">27240.0</text><text x="752" y="434" font-family="Inter" font-size="16" fill="#E6EDF3">118.6</text><text x="872" y="434" font-family="Inter" font-size="16" fill="#7EE787">2</text><text x="992" y="434" font-family="Inter" font-size="16" fill="#E6EDF3">100</text><text x="1112" y="434" font-family="Inter" font-size="16" fill="#FFD580">27550</text><text x="1232" y="434" font-family="Inter" font-size="16" fill="#FFD580">26980</text><rect x="60" y="452" width="1280" height="48" fill="#0B1620"/><line x1="60" y1="452" x2="1340" y2="452" stroke="#2A3A4A"/><text x="72" y="482" font-family="Inter" font-size="16" fill="#E6EDF3">2023-10-11 16:03:00</text><text x="272" y="482" font-family="Inter" font-size="16" fill="#E6EDF3">27240.0</text><text x="392" y="482" font-family="Inter" font-size="16" fill="#E6EDF3">27260.0</text><text x="512" y="482" font-family="Inter" font-size="16" fill="#E6EDF3">27090.0</text><text x="632" y="482" font-family="Inter" font-size="16" fill="#E6EDF3">27110.0</text><text x="752" y="482" font-family="Inter" font-size="16" fill="#E6EDF3">109.2</text><text x="872" y="482" font-family="Inter" font-size="16" fill="#FF7B72">-1</text><text x="992" y="482" font-family="Inter" font-size="16" fill="#E6EDF3">50</text><text x="1112" y="482" font-family="Inter" font-size="16" fill="#9FB2C7"></text><text x="1232" y="482" font-family="Inter" font-size="16" fill="#FFD580">27000</text><rect x="60" y="500" width="1280" height="48" fill="#0C1A24"/><line x1="60" y1="500" x2="1340" y2="500" stroke="#2A3A4A"/><text x="72" y="530" font-family="Inter" font-size="16" fill="#E6EDF3">2023-10-11 16:04:00</text><text x="272" y="530" font-family="Inter" font-size="16" fill="#E6EDF3">27110.0</text><text x="392" y="530" font-family="Inter" font-size="16" fill="#E6EDF3">27130.0</text><text x="512" y="530" font-family="Inter" font-size="16" fill="#E6EDF3">27050.0</text><text x="632" y="530" font-family="Inter" font-size="16" fill="#E6EDF3">27080.0</text><text x="752" y="530" font-family="Inter" font-size="16" fill="#E6EDF3">95.1</text><text x="872" y="530" font-family="Inter" font-size="16" fill="#9FB2C7">0</text><text x="992" y="530" font-family="Inter" font-size="16" fill="#9FB2C7">0</text><text x="1112" y="530" font-family="Inter" font-size="16" fill="#9FB2C7"></text><text x="1232" y="530" font-family="Inter" font-size="16" fill="#9FB2C7"></text><line x1="60" y1="548" x2="1340" y2="548" stroke="#2A3A4A"/><rect x="860" y="150" width="480" height="210" rx="16" fill="#0F1720" stroke="#2A3A4A"/><text x="876" y="178" font-family="Inter" font-size="18" fill="#E6EDF3" font-weight="700">Satır Bazlı İşlem Açıklamaları</text><text x="876" y="206" font-family="Inter" font-size="14" fill="#8BD1FF" font-weight="600">Satır 1</text><text x="970" y="206" font-family="Inter" font-size="14" fill="#E6EDF3">100% LONG: position=1, percentage=100</text><text x="876" y="236" font-family="Inter" font-size="14" fill="#8BD1FF" font-weight="600">Satır 2</text><text x="970" y="236" font-family="Inter" font-size="14" fill="#E6EDF3">İşlem yok: position=0, percentage=0</text><text x="876" y="266" font-family="Inter" font-size="14" fill="#8BD1FF" font-weight="600">Satır 3</text><text x="970" y="266" font-family="Inter" font-size="14" fill="#E6EDF3">2x LONG %100: position=2, percentage=100</text><text x="876" y="296" font-family="Inter" font-size="14" fill="#9FB2C7" font-weight="600">Satır 4</text><text x="970" y="296" font-family="Inter" font-size="14" fill="#9FB2C7">Örnek SHORT %50: position=-1, percentage=50</text><text x="876" y="326" font-family="Inter" font-size="14" fill="#9FB2C7" font-weight="600">Satır 5</text><text x="970" y="326" font-family="Inter" font-size="14" fill="#9FB2C7">Flat (Pozisyon yok): position=0, percentage=0</text><rect x="60" y="790" width="1320" height="110" rx="16" fill="#0F1720" stroke="#2A3A4A"/><text x="80" y="830" font-family="Inter" font-size="18" fill="#E6EDF3" font-weight="600">commission (0–1 arası)</text><text x="80" y="860" font-family="Inter" font-size="14" fill="#9FB2C7">Komisyon ayrı değişken olarak verilir, simülasyonda işlem maliyetine uygulanır.</text></svg>