<svg xmlns="http://www.w3.org/2000/svg" width="1440" height="900" viewBox="0 0 1440 900"><rect width="100%" height="100%" fill="#0B0F14"/><text x="60" y="90" font-family="Inter, ui-sans-serif, system-ui, -apple-system" font-size="40" fill="#E6EDF3" font-weight="700">Whaleer DataFrame Yapısı</text><text x="60" y="126" font-family="Inter, ui-sans-serif, system-ui, -apple-system" font-size="20" fill="#9FB2C7">Stratejiniz pandas DataFrame (df) üzerinde çalışır — sütunlar ve çıktılar</text><rect x="60" y="160" width="240" height="44" rx="12" fill="#0F1720" stroke="#2A3A4A" /><text x="74" y="188.0" font-family="Inter, ui-sans-serif" font-size="18" fill="#E6EDF3" font-weight="600">Ham Veriler (OHLCV)</text><path d="M 312 182.0 H 40" stroke="#8BD1FF" stroke-width="2.5" marker-end="url(#arrow)"/><rect x="60" y="216" width="240" height="44" rx="12" fill="#0F1720" stroke="#2A3A4A" /><text x="74" y="244.0" font-family="Inter, ui-sans-serif" font-size="18" fill="#E6EDF3" font-weight="600">İndikatörler</text><rect x="60" y="272" width="240" height="44" rx="12" fill="#0F1720" stroke="#2A3A4A" /><text x="74" y="300.0" font-family="Inter, ui-sans-serif" font-size="18" fill="#E6EDF3" font-weight="600">Strateji Kuralları</text><rect x="60" y="328" width="240" height="44" rx="12" fill="#0F1720" stroke="#2A3A4A" /><text x="74" y="356.0" font-family="Inter, ui-sans-serif" font-size="18" fill="#E6EDF3" font-weight="600">Çıktılar: position / percentage</text><path d="M 180.0 204 V 256" stroke="#8BD1FF" stroke-width="2.5" marker-end="url(#arrow)"/>
<defs>
  <marker id="arrow" markerWidth="10" markerHeight="10" refX="6" refY="3" orient="auto">
    <path d="M0,0 L0,6 L6,3 z" fill="#8BD1FF"/>
  </marker>
</defs>
<rect x="50" y="270" width="1250" height="212" rx="16" fill="#0F1720" stroke="#2A3A4A" /><rect x="60" y="280" width="1230" height="48" fill="#0D2230"/><line x1="60" y1="280" x2="60" y2="472" stroke="#2A3A4A"/><text x="72" y="310" font-family="Inter, ui-sans-serif" font-size="16" fill="#8BD1FF" font-weight="600">timestamp</text><line x1="210" y1="280" x2="210" y2="472" stroke="#2A3A4A"/><text x="222" y="310" font-family="Inter, ui-sans-serif" font-size="16" fill="#8BD1FF" font-weight="600">open</text><line x1="330" y1="280" x2="330" y2="472" stroke="#2A3A4A"/><text x="342" y="310" font-family="Inter, ui-sans-serif" font-size="16" fill="#8BD1FF" font-weight="600">high</text><line x1="450" y1="280" x2="450" y2="472" stroke="#2A3A4A"/><text x="462" y="310" font-family="Inter, ui-sans-serif" font-size="16" fill="#8BD1FF" font-weight="600">low</text><line x1="570" y1="280" x2="570" y2="472" stroke="#2A3A4A"/><text x="582" y="310" font-family="Inter, ui-sans-serif" font-size="16" fill="#8BD1FF" font-weight="600">close</text><line x1="690" y1="280" x2="690" y2="472" stroke="#2A3A4A"/><text x="702" y="310" font-family="Inter, ui-sans-serif" font-size="16" fill="#8BD1FF" font-weight="600">volume</text><line x1="810" y1="280" x2="810" y2="472" stroke="#2A3A4A"/><text x="822" y="310" font-family="Inter, ui-sans-serif" font-size="16" fill="#8BD1FF" font-weight="600">position</text><line x1="930" y1="280" x2="930" y2="472" stroke="#2A3A4A"/><text x="942" y="310" font-family="Inter, ui-sans-serif" font-size="16" fill="#8BD1FF" font-weight="600">percentage</text><line x1="1050" y1="280" x2="1050" y2="472" stroke="#2A3A4A"/><text x="1062" y="310" font-family="Inter, ui-sans-serif" font-size="16" fill="#8BD1FF" font-weight="600">take_profit</text><line x1="1170" y1="280" x2="1170" y2="472" stroke="#2A3A4A"/><text x="1182" y="310" font-family="Inter, ui-sans-serif" font-size="16" fill="#8BD1FF" font-weight="600">stop_loss</text><line x1="1290" y1="280" x2="1290" y2="472" stroke="#2A3A4A"/><rect x="60" y="328" width="1230" height="48" fill="#0C1A24"/><line x1="60" y1="328" x2="1290" y2="328" stroke="#2A3A4A"/><text x="72" y="358" font-family="Inter, ui-sans-serif" font-size="16" fill="#E6EDF3">1697040000</text><text x="222" y="358" font-family="Inter, ui-sans-serif" font-size="16" fill="#E6EDF3">27150.2</text><text x="342" y="358" font-family="Inter, ui-sans-serif" font-size="16" fill="#E6EDF3">27312.0</text><text x="462" y="358" font-family="Inter, ui-sans-serif" font-size="16" fill="#E6EDF3">27088.1</text><text x="582" y="358" font-family="Inter, ui-sans-serif" font-size="16" fill="#E6EDF3">27205.7</text><text x="702" y="358" font-family="Inter, ui-sans-serif" font-size="16" fill="#E6EDF3">152.3</text><text x="822" y="358" font-family="Inter, ui-sans-serif" font-size="16" fill="#7EE787">1</text><text x="942" y="358" font-family="Inter, ui-sans-serif" font-size="16" fill="#E6EDF3">100</text><text x="1062" y="358" font-family="Inter, ui-sans-serif" font-size="16" fill="#FFD580">27500</text><text x="1182" y="358" font-family="Inter, ui-sans-serif" font-size="16" fill="#FFD580">26900</text><rect x="60" y="376" width="1230" height="48" fill="#0B1620"/><line x1="60" y1="376" x2="1290" y2="376" stroke="#2A3A4A"/><text x="72" y="406" font-family="Inter, ui-sans-serif" font-size="16" fill="#E6EDF3">1697040060</text><text x="222" y="406" font-family="Inter, ui-sans-serif" font-size="16" fill="#E6EDF3">27205.7</text><text x="342" y="406" font-family="Inter, ui-sans-serif" font-size="16" fill="#E6EDF3">27280.0</text><text x="462" y="406" font-family="Inter, ui-sans-serif" font-size="16" fill="#E6EDF3">27100.4</text><text x="582" y="406" font-family="Inter, ui-sans-serif" font-size="16" fill="#E6EDF3">27120.1</text><text x="702" y="406" font-family="Inter, ui-sans-serif" font-size="16" fill="#E6EDF3">131.8</text><text x="822" y="406" font-family="Inter, ui-sans-serif" font-size="16" fill="#9FB2C7">0</text><text x="942" y="406" font-family="Inter, ui-sans-serif" font-size="16" fill="#9FB2C7">0</text><text x="1062" y="406" font-family="Inter, ui-sans-serif" font-size="16" fill="#9FB2C7"></text><text x="1182" y="406" font-family="Inter, ui-sans-serif" font-size="16" fill="#9FB2C7"></text><rect x="60" y="424" width="1230" height="48" fill="#0C1A24"/><line x1="60" y1="424" x2="1290" y2="424" stroke="#2A3A4A"/><text x="72" y="454" font-family="Inter, ui-sans-serif" font-size="16" fill="#E6EDF3">1697040120</text><text x="222" y="454" font-family="Inter, ui-sans-serif" font-size="16" fill="#E6EDF3">27120.1</text><text x="342" y="454" font-family="Inter, ui-sans-serif" font-size="16" fill="#E6EDF3">27290.6</text><text x="462" y="454" font-family="Inter, ui-sans-serif" font-size="16" fill="#E6EDF3">27105.2</text><text x="582" y="454" font-family="Inter, ui-sans-serif" font-size="16" fill="#E6EDF3">27240.0</text><text x="702" y="454" font-family="Inter, ui-sans-serif" font-size="16" fill="#E6EDF3">118.6</text><text x="822" y="454" font-family="Inter, ui-sans-serif" font-size="16" fill="#7EE787">2</text><text x="942" y="454" font-family="Inter, ui-sans-serif" font-size="16" fill="#E6EDF3">100</text><text x="1062" y="454" font-family="Inter, ui-sans-serif" font-size="16" fill="#FFD580">27550</text><text x="1182" y="454" font-family="Inter, ui-sans-serif" font-size="16" fill="#FFD580">26980</text><line x1="60" y1="472" x2="1290" y2="472" stroke="#2A3A4A"/><path d="M 870 352.0 C 820 337.6, 820 318.4, 810 308.8" stroke="#7EE787" stroke-width="2" fill="none" marker-end="url(#arrow)"/><rect x="880" y="313.6" width="390" height="96" rx="12" fill="#0F1720" stroke="#7EE787"/><text x="898" y="337.6" font-family="Inter, ui-sans-serif" font-size="18" fill="#E6EDF3" font-weight="600">position</text><text x="898" y="365.6" font-family="Inter, ui-sans-serif" font-size="14" fill="#9FB2C7">Yön ve kaldıraç büyüklüğü: 1=long, -1=short, 2=2x long, -3=3x short</text><path d="M 970 400.0 C 940 376.0, 940 356.8, 930 347.2" stroke="#8BD1FF" stroke-width="2" fill="none" marker-end="url(#arrow)"/><rect x="980" y="352.0" width="420" height="96" rx="12" fill="#0F1720" stroke="#8BD1FF"/><text x="998" y="376.0" font-family="Inter, ui-sans-serif" font-size="18" fill="#E6EDF3" font-weight="600">percentage</text><text x="998" y="404.0" font-family="Inter, ui-sans-serif" font-size="14" fill="#9FB2C7">% cinsinden işlem büyüklüğü — genelde 100</text><rect x="60" y="710" width="1320" height="110" rx="16" fill="#0F1720" stroke="#2A3A4A"/><text x="80" y="750" font-family="Inter, ui-sans-serif" font-size="18" fill="#E6EDF3" font-weight="600">commission (0–1 arası)</text><text x="80" y="780" font-family="Inter, ui-sans-serif" font-size="14" fill="#9FB2C7">Komisyon ayrı değişken olarak verilir, simülasyonda işlem maliyetine uygulanır.</text><text x="1020" y="870" font-family="Inter, ui-sans-serif" font-size="12" fill="#9FB2C7">Generated 2025-09-17  •  Whaleer Docs</text></svg>