<svg xmlns="http://www.w3.org/2000/svg" width="1440" height="560" viewBox="0 0 1440 560"><rect width="100%" height="100%" fill="#0B0F14"/><text x="40" y="60" font-family="Inter" font-size="34" fill="#E6EDF3" font-weight="700">Whaleer DataFrame — Tablo</text><rect x="30" y="110" width="1320" height="308" rx="16" fill="#0F1720" stroke="#2A3A4A"/><rect x="40" y="120" width="1300" height="48" fill="#0D2230"/><line x1="40" y1="120" x2="40" y2="408" stroke="#2A3A4A"/><text x="52" y="150" font-family="Inter" font-size="16" fill="#8BD1FF" font-weight="600">timestamp</text><line x1="260" y1="120" x2="260" y2="408" stroke="#2A3A4A"/><text x="272" y="150" font-family="Inter" font-size="16" fill="#8BD1FF" font-weight="600">open</text><line x1="380" y1="120" x2="380" y2="408" stroke="#2A3A4A"/><text x="392" y="150" font-family="Inter" font-size="16" fill="#8BD1FF" font-weight="600">high</text><line x1="500" y1="120" x2="500" y2="408" stroke="#2A3A4A"/><text x="512" y="150" font-family="Inter" font-size="16" fill="#8BD1FF" font-weight="600">low</text><line x1="620" y1="120" x2="620" y2="408" stroke="#2A3A4A"/><text x="632" y="150" font-family="Inter" font-size="16" fill="#8BD1FF" font-weight="600">close</text><line x1="740" y1="120" x2="740" y2="408" stroke="#2A3A4A"/><text x="752" y="150" font-family="Inter" font-size="16" fill="#8BD1FF" font-weight="600">volume</text><line x1="860" y1="120" x2="860" y2="408" stroke="#2A3A4A"/><text x="872" y="150" font-family="Inter" font-size="16" fill="#8BD1FF" font-weight="600">position</text><line x1="980" y1="120" x2="980" y2="408" stroke="#2A3A4A"/><text x="992" y="150" font-family="Inter" font-size="16" fill="#8BD1FF" font-weight="600">percentage</text><line x1="1100" y1="120" x2="1100" y2="408" stroke="#2A3A4A"/><text x="1112" y="150" font-family="Inter" font-size="16" fill="#8BD1FF" font-weight="600">take_profit</text><line x1="1220" y1="120" x2="1220" y2="408" stroke="#2A3A4A"/><text x="1232" y="150" font-family="Inter" font-size="16" fill="#8BD1FF" font-weight="600">stop_loss</text><line x1="1340" y1="120" x2="1340" y2="408" stroke="#2A3A4A"/><rect x="40" y="168" width="1300" height="48" fill="#0C1A24"/><line x1="40" y1="168" x2="1340" y2="168" stroke="#2A3A4A"/><text x="52" y="198" font-family="Inter" font-size="16" fill="#E6EDF3">2023-10-11 16:00:00</text><text x="272" y="198" font-family="Inter" font-size="16" fill="#E6EDF3">27150.2</text><text x="392" y="198" font-family="Inter" font-size="16" fill="#E6EDF3">27312.0</text><text x="512" y="198" font-family="Inter" font-size="16" fill="#E6EDF3">27088.1</text><text x="632" y="198" font-family="Inter" font-size="16" fill="#E6EDF3">27205.7</text><text x="752" y="198" font-family="Inter" font-size="16" fill="#E6EDF3">152.3</text><text x="872" y="198" font-family="Inter" font-size="16" fill="#7EE787">1</text><text x="992" y="198" font-family="Inter" font-size="16" fill="#E6EDF3">100</text><text x="1112" y="198" font-family="Inter" font-size="16" fill="#FFD580">27500</text><text x="1232" y="198" font-family="Inter" font-size="16" fill="#FFD580">26900</text><rect x="40" y="216" width="1300" height="48" fill="#0B1620"/><line x1="40" y1="216" x2="1340" y2="216" stroke="#2A3A4A"/><text x="52" y="246" font-family="Inter" font-size="16" fill="#E6EDF3">2023-10-11 16:01:00</text><text x="272" y="246" font-family="Inter" font-size="16" fill="#E6EDF3">27205.7</text><text x="392" y="246" font-family="Inter" font-size="16" fill="#E6EDF3">27280.0</text><text x="512" y="246" font-family="Inter" font-size="16" fill="#E6EDF3">27100.4</text><text x="632" y="246" font-family="Inter" font-size="16" fill="#E6EDF3">27120.1</text><text x="752" y="246" font-family="Inter" font-size="16" fill="#E6EDF3">131.8</text><text x="872" y="246" font-family="Inter" font-size="16" fill="#9FB2C7">0</text><text x="992" y="246" font-family="Inter" font-size="16" fill="#9FB2C7">0</text><text x="1112" y="246" font-family="Inter" font-size="16" fill="#9FB2C7"></text><text x="1232" y="246" font-family="Inter" font-size="16" fill="#9FB2C7"></text><rect x="40" y="264" width="1300" height="48" fill="#0C1A24"/><line x1="40" y1="264" x2="1340" y2="264" stroke="#2A3A4A"/><text x="52" y="294" font-family="Inter" font-size="16" fill="#E6EDF3">2023-10-11 16:02:00</text><text x="272" y="294" font-family="Inter" font-size="16" fill="#E6EDF3">27120.1</text><text x="392" y="294" font-family="Inter" font-size="16" fill="#E6EDF3">27290.6</text><text x="512" y="294" font-family="Inter" font-size="16" fill="#E6EDF3">27105.2</text><text x="632" y="294" font-family="Inter" font-size="16" fill="#E6EDF3">27240.0</text><text x="752" y="294" font-family="Inter" font-size="16" fill="#E6EDF3">118.6</text><text x="872" y="294" font-family="Inter" font-size="16" fill="#7EE787">2</text><text x="992" y="294" font-family="Inter" font-size="16" fill="#E6EDF3">100</text><text x="1112" y="294" font-family="Inter" font-size="16" fill="#FFD580">27550</text><text x="1232" y="294" font-family="Inter" font-size="16" fill="#FFD580">26980</text><rect x="40" y="312" width="1300" height="48" fill="#0B1620"/><line x1="40" y1="312" x2="1340" y2="312" stroke="#2A3A4A"/><text x="52" y="342" font-family="Inter" font-size="16" fill="#E6EDF3">2023-10-11 16:03:00</text><text x="272" y="342" font-family="Inter" font-size="16" fill="#E6EDF3">27240.0</text><text x="392" y="342" font-family="Inter" font-size="16" fill="#E6EDF3">27260.0</text><text x="512" y="342" font-family="Inter" font-size="16" fill="#E6EDF3">27090.0</text><text x="632" y="342" font-family="Inter" font-size="16" fill="#E6EDF3">27110.0</text><text x="752" y="342" font-family="Inter" font-size="16" fill="#E6EDF3">109.2</text><text x="872" y="342" font-family="Inter" font-size="16" fill="#FF7B72">-1</text><text x="992" y="342" font-family="Inter" font-size="16" fill="#E6EDF3">50</text><text x="1112" y="342" font-family="Inter" font-size="16" fill="#9FB2C7"></text><text x="1232" y="342" font-family="Inter" font-size="16" fill="#FFD580">27000</text><rect x="40" y="360" width="1300" height="48" fill="#0C1A24"/><line x1="40" y1="360" x2="1340" y2="360" stroke="#2A3A4A"/><text x="52" y="390" font-family="Inter" font-size="16" fill="#E6EDF3">2023-10-11 16:04:00</text><text x="272" y="390" font-family="Inter" font-size="16" fill="#E6EDF3">27110.0</text><text x="392" y="390" font-family="Inter" font-size="16" fill="#E6EDF3">27130.0</text><text x="512" y="390" font-family="Inter" font-size="16" fill="#E6EDF3">27050.0</text><text x="632" y="390" font-family="Inter" font-size="16" fill="#E6EDF3">27080.0</text><text x="752" y="390" font-family="Inter" font-size="16" fill="#E6EDF3">95.1</text><text x="872" y="390" font-family="Inter" font-size="16" fill="#9FB2C7">0</text><text x="992" y="390" font-family="Inter" font-size="16" fill="#9FB2C7">0</text><text x="1112" y="390" font-family="Inter" font-size="16" fill="#9FB2C7"></text><text x="1232" y="390" font-family="Inter" font-size="16" fill="#9FB2C7"></text><line x1="40" y1="408" x2="1340" y2="408" stroke="#2A3A4A"/></svg>