<svg xmlns="http://www.w3.org/2000/svg" width="1280" height="580" viewBox="0 0 1280 580">
<rect x="0" y="0" width="1280" height="580" fill="#0b0f14"/>
<text x="20" y="32" fill="#e5e7eb" font-size="18" font-weight="600" font-family="Inter, system-ui">Strategy Behavior by Row (minimal text)</text>
<rect x="860" y="12" width="400" height="36" rx="8" ry="8" fill="#0e141b" stroke="#1f2937"/>
<polygon points="870,34 880,16 890,34" fill="#22c55e"/>
<text x="898" y="30" fill="#e5e7eb" font-family="ui-monospace, SFMono-Regular, Menlo, Monaco, Consolas, 'Liberation Mono', 'Courier New', monospace" font-size="12">Long</text>
<polygon points="956,16 966,34 976,16" fill="#ef4444"/>
<text x="984" y="30" fill="#e5e7eb" font-family="ui-monospace, SFMono-Regular, Menlo, Monaco, Consolas, 'Liberation Mono', 'Courier New', monospace" font-size="12">Short</text>
<circle cx="1050" cy="25" r="8" fill="#64748b"/>
<text x="1070" y="30" fill="#e5e7eb" font-family="ui-monospace, SFMono-Regular, Menlo, Monaco, Consolas, 'Liberation Mono', 'Courier New', monospace" font-size="12">Size %</text>
<path d="M 1162 34 v -16 l 14 5 l -14 5" fill="#3b82f6"/><line x1="1162" y1="34" x2="1162" y2="16" stroke="#e5e7eb" stroke-width="1"/>
<text x="1184" y="30" fill="#e5e7eb" font-family="ui-monospace, SFMono-Regular, Menlo, Monaco, Consolas, 'Liberation Mono', 'Courier New', monospace" font-size="12">TP</text>
<line x1="1232" y1="18" x2="1248" y2="34" stroke="#f59e0b" stroke-width="3"/><line x1="1248" y1="18" x2="1232" y2="34" stroke="#f59e0b" stroke-width="3"/>
<text x="1254" y="30" fill="#e5e7eb" font-family="ui-monospace, SFMono-Regular, Menlo, Monaco, Consolas, 'Liberation Mono', 'Courier New', monospace" font-size="12">SL</text>
<rect x="20" y="60" width="1240" height="42" rx="8" ry="8" fill="#0e141b" stroke="#1f2937"/>
<text x="32" y="88" fill="#e5e7eb" font-family="ui-monospace, SFMono-Regular, Menlo, Monaco, Consolas, 'Liberation Mono', 'Courier New', monospace" font-size="12">2023-10-11 16:00:00</text>
<polygon points="286,86 300,60.8 314,86" fill="#22c55e"/>
<text x="324" y="84" fill="#e5e7eb" font-family="ui-monospace, SFMono-Regular, Menlo, Monaco, Consolas, 'Liberation Mono', 'Courier New', monospace" font-size="12">×1</text>
<circle cx="480" cy="84" r="12" fill="none" stroke="#1f2937" stroke-width="4"/>
<path d="M 480 72 A 12 12 0 1 1 480.0 72.0" stroke="#64748b" stroke-width="4" fill="none"/>
<path d="M 1040 88 v -18 l 16 6 l -16 6" fill="#3b82f6"/><line x1="1040" y1="88" x2="1040" y2="68" stroke="#e5e7eb" stroke-width="1"/>
<line x1="1090" y1="74" x2="1108" y2="92" stroke="#f59e0b" stroke-width="3"/><line x1="1108" y1="74" x2="1090" y2="92" stroke="#f59e0b" stroke-width="3"/>
<rect x="20" y="108" width="1240" height="42" rx="8" ry="8" fill="#0e141b" stroke="#1f2937"/>
<text x="32" y="136" fill="#e5e7eb" font-family="ui-monospace, SFMono-Regular, Menlo, Monaco, Consolas, 'Liberation Mono', 'Courier New', monospace" font-size="12">2023-10-11 16:01:00</text>
<rect x="290" y="124" width="20" height="20" rx="3" ry="3" fill="#64748b"/>
<line x1="294" y1="134" x2="306" y2="134" stroke="#0b0f14" stroke-width="2"/>
<circle cx="480" cy="132" r="12" fill="none" stroke="#1f2937" stroke-width="4"/>
<rect x="20" y="156" width="1240" height="42" rx="8" ry="8" fill="#0e141b" stroke="#1f2937"/>
<text x="32" y="184" fill="#e5e7eb" font-family="ui-monospace, SFMono-Regular, Menlo, Monaco, Consolas, 'Liberation Mono', 'Courier New', monospace" font-size="12">2023-10-11 16:02:00</text>
<polygon points="284,182 300,153.2 316,182" fill="#22c55e"/>
<text x="326" y="180" fill="#e5e7eb" font-family="ui-monospace, SFMono-Regular, Menlo, Monaco, Consolas, 'Liberation Mono', 'Courier New', monospace" font-size="12">×2</text>
<circle cx="480" cy="180" r="12" fill="none" stroke="#1f2937" stroke-width="4"/>
<path d="M 480 168 A 12 12 0 1 1 480.0 168.0" stroke="#64748b" stroke-width="4" fill="none"/>
<path d="M 1040 184 v -18 l 16 6 l -16 6" fill="#3b82f6"/><line x1="1040" y1="184" x2="1040" y2="164" stroke="#e5e7eb" stroke-width="1"/>
<line x1="1090" y1="170" x2="1108" y2="188" stroke="#f59e0b" stroke-width="3"/><line x1="1108" y1="170" x2="1090" y2="188" stroke="#f59e0b" stroke-width="3"/>
<rect x="20" y="204" width="1240" height="42" rx="8" ry="8" fill="#0e141b" stroke="#1f2937"/>
<text x="32" y="232" fill="#e5e7eb" font-family="ui-monospace, SFMono-Regular, Menlo, Monaco, Consolas, 'Liberation Mono', 'Courier New', monospace" font-size="12">2023-10-11 16:03:00</text>
<polygon points="286,204.8 300,230 314,204.8" fill="#ef4444"/>
<text x="324" y="228" fill="#e5e7eb" font-family="ui-monospace, SFMono-Regular, Menlo, Monaco, Consolas, 'Liberation Mono', 'Courier New', monospace" font-size="12">×1</text>
<circle cx="480" cy="228" r="12" fill="none" stroke="#1f2937" stroke-width="4"/>
<path d="M 480 216 A 12 12 0 1 1 480.0 216.0" stroke="#64748b" stroke-width="4" fill="none"/>
<path d="M 1040 232 v -18 l 16 6 l -16 6" fill="#3b82f6"/><line x1="1040" y1="232" x2="1040" y2="212" stroke="#e5e7eb" stroke-width="1"/>
<line x1="1090" y1="218" x2="1108" y2="236" stroke="#f59e0b" stroke-width="3"/><line x1="1108" y1="218" x2="1090" y2="236" stroke="#f59e0b" stroke-width="3"/>
<rect x="20" y="252" width="1240" height="42" rx="8" ry="8" fill="#0e141b" stroke="#1f2937"/>
<text x="32" y="280" fill="#e5e7eb" font-family="ui-monospace, SFMono-Regular, Menlo, Monaco, Consolas, 'Liberation Mono', 'Courier New', monospace" font-size="12">2023-10-11 16:04:00</text>
<polygon points="284,249.2 300,278 316,249.2" fill="#ef4444"/>
<text x="326" y="276" fill="#e5e7eb" font-family="ui-monospace, SFMono-Regular, Menlo, Monaco, Consolas, 'Liberation Mono', 'Courier New', monospace" font-size="12">×2</text>
<circle cx="480" cy="276" r="12" fill="none" stroke="#1f2937" stroke-width="4"/>
<path d="M 480 264 A 12 12 0 1 1 480.0 264.0" stroke="#64748b" stroke-width="4" fill="none"/>
<path d="M 1040 280 v -18 l 16 6 l -16 6" fill="#3b82f6"/><line x1="1040" y1="280" x2="1040" y2="260" stroke="#e5e7eb" stroke-width="1"/>
<line x1="1090" y1="266" x2="1108" y2="284" stroke="#f59e0b" stroke-width="3"/><line x1="1108" y1="266" x2="1090" y2="284" stroke="#f59e0b" stroke-width="3"/>
<rect x="20" y="300" width="1240" height="42" rx="8" ry="8" fill="#0e141b" stroke="#1f2937"/>
<text x="32" y="328" fill="#e5e7eb" font-family="ui-monospace, SFMono-Regular, Menlo, Monaco, Consolas, 'Liberation Mono', 'Courier New', monospace" font-size="12">2023-10-11 16:05:00</text>
<polygon points="286,326 300,300.8 314,326" fill="#22c55e"/>
<text x="324" y="324" fill="#e5e7eb" font-family="ui-monospace, SFMono-Regular, Menlo, Monaco, Consolas, 'Liberation Mono', 'Courier New', monospace" font-size="12">×1</text>
<circle cx="480" cy="324" r="12" fill="none" stroke="#1f2937" stroke-width="4"/>
<path d="M 480 312 A 12 12 0 0 1 480.0 336.0" stroke="#64748b" stroke-width="4" fill="none"/>
<path d="M 1040 328 v -18 l 16 6 l -16 6" fill="#3b82f6"/><line x1="1040" y1="328" x2="1040" y2="308" stroke="#e5e7eb" stroke-width="1"/>
<line x1="1090" y1="314" x2="1108" y2="332" stroke="#f59e0b" stroke-width="3"/><line x1="1108" y1="314" x2="1090" y2="332" stroke="#f59e0b" stroke-width="3"/>
<rect x="20" y="348" width="1240" height="42" rx="8" ry="8" fill="#0e141b" stroke="#1f2937"/>
<text x="32" y="376" fill="#e5e7eb" font-family="ui-monospace, SFMono-Regular, Menlo, Monaco, Consolas, 'Liberation Mono', 'Courier New', monospace" font-size="12">2023-10-11 16:06:00</text>
<rect x="290" y="364" width="20" height="20" rx="3" ry="3" fill="#64748b"/>
<line x1="294" y1="374" x2="306" y2="374" stroke="#0b0f14" stroke-width="2"/>
<circle cx="480" cy="372" r="12" fill="none" stroke="#1f2937" stroke-width="4"/>
<rect x="20" y="396" width="1240" height="42" rx="8" ry="8" fill="#0e141b" stroke="#1f2937"/>
<text x="32" y="424" fill="#e5e7eb" font-family="ui-monospace, SFMono-Regular, Menlo, Monaco, Consolas, 'Liberation Mono', 'Courier New', monospace" font-size="12">2023-10-11 16:07:00</text>
<polygon points="286,396.8 300,422 314,396.8" fill="#ef4444"/>
<text x="324" y="420" fill="#e5e7eb" font-family="ui-monospace, SFMono-Regular, Menlo, Monaco, Consolas, 'Liberation Mono', 'Courier New', monospace" font-size="12">×1</text>
<circle cx="480" cy="420" r="12" fill="none" stroke="#1f2937" stroke-width="4"/>
<path d="M 480 408 A 12 12 0 0 1 492.0 420.0" stroke="#64748b" stroke-width="4" fill="none"/>
<path d="M 1040 424 v -18 l 16 6 l -16 6" fill="#3b82f6"/><line x1="1040" y1="424" x2="1040" y2="404" stroke="#e5e7eb" stroke-width="1"/>
<line x1="1090" y1="410" x2="1108" y2="428" stroke="#f59e0b" stroke-width="3"/><line x1="1108" y1="410" x2="1090" y2="428" stroke="#f59e0b" stroke-width="3"/>
<rect x="20" y="444" width="1240" height="42" rx="8" ry="8" fill="#0e141b" stroke="#1f2937"/>
<text x="32" y="472" fill="#e5e7eb" font-family="ui-monospace, SFMono-Regular, Menlo, Monaco, Consolas, 'Liberation Mono', 'Courier New', monospace" font-size="12">2023-10-11 16:08:00</text>
<polygon points="282,470 300,437.6 318,470" fill="#22c55e"/>
<text x="328" y="468" fill="#e5e7eb" font-family="ui-monospace, SFMono-Regular, Menlo, Monaco, Consolas, 'Liberation Mono', 'Courier New', monospace" font-size="12">×3</text>
<circle cx="480" cy="468" r="12" fill="none" stroke="#1f2937" stroke-width="4"/>
<path d="M 480 456 A 12 12 0 1 1 480.0 456.0" stroke="#64748b" stroke-width="4" fill="none"/>
<path d="M 1040 472 v -18 l 16 6 l -16 6" fill="#3b82f6"/><line x1="1040" y1="472" x2="1040" y2="452" stroke="#e5e7eb" stroke-width="1"/>
<line x1="1090" y1="458" x2="1108" y2="476" stroke="#f59e0b" stroke-width="3"/><line x1="1108" y1="458" x2="1090" y2="476" stroke="#f59e0b" stroke-width="3"/>
<rect x="20" y="492" width="1240" height="42" rx="8" ry="8" fill="#0e141b" stroke="#1f2937"/>
<text x="32" y="520" fill="#e5e7eb" font-family="ui-monospace, SFMono-Regular, Menlo, Monaco, Consolas, 'Liberation Mono', 'Courier New', monospace" font-size="12">2023-10-11 16:09:00</text>
<polygon points="282,485.6 300,518 318,485.6" fill="#ef4444"/>
<text x="328" y="516" fill="#e5e7eb" font-family="ui-monospace, SFMono-Regular, Menlo, Monaco, Consolas, 'Liberation Mono', 'Courier New', monospace" font-size="12">×3</text>
<circle cx="480" cy="516" r="12" fill="none" stroke="#1f2937" stroke-width="4"/>
<path d="M 480 504 A 12 12 0 1 1 468.0 516.0" stroke="#64748b" stroke-width="4" fill="none"/>
<path d="M 1040 520 v -18 l 16 6 l -16 6" fill="#3b82f6"/><line x1="1040" y1="520" x2="1040" y2="500" stroke="#e5e7eb" stroke-width="1"/>
<line x1="1090" y1="506" x2="1108" y2="524" stroke="#f59e0b" stroke-width="3"/><line x1="1108" y1="506" x2="1090" y2="524" stroke="#f59e0b" stroke-width="3"/>
</svg>